<?xml version="1.0" encoding="UTF-8" standalone="no"?>
<svg
   version="1.0"
   width="314.24454pt"
   height="383.45743pt"
   viewBox="0 0 314.24454 383.45743"
   preserveAspectRatio="xMidYMid"
   id="svg5587"
   xmlns="http://www.w3.org/2000/svg"
   xmlns:svg="http://www.w3.org/2000/svg">
  <defs
     id="defs5591" />
  <metadata
     id="metadata5307">
Created by potrace 1.15, written by Peter Selinger 2001-2017
</metadata>
  <g
     transform="matrix(0.1,0,0,-0.1,-0.55186808,855.564)"
     fill="#000000"
     stroke="none"
     id="g5585">
    <path
       d="m 1420,8551 c -62,-14 -78,-22 -84,-47 -5,-17 -16,-26 -36,-31 -17,-3 -30,-9 -30,-13 0,-11 35,-40 48,-40 20,0 13,-17 -10,-23 -18,-5 -19,-8 -8,-21 11,-14 4,-16 -59,-16 -56,0 -71,-3 -71,-15 0,-10 -11,-15 -35,-15 -27,0 -35,-4 -35,-18 0,-24 -19,-42 -44,-42 -21,-1 -21,-1 -2,-15 11,-8 30,-15 43,-15 12,0 37,-9 55,-20 36,-22 20,-27 -31,-9 -24,8 -35,8 -46,-1 -23,-19 -18,-30 16,-30 27,0 30,-2 19,-15 -7,-8 -26,-19 -43,-23 -32,-8 -50,-32 -24,-32 8,0 20,-7 27,-15 7,-8 23,-15 35,-15 13,0 32,-11 43,-25 24,-30 39,-32 47,-5 3,11 15,20 25,20 22,0 39,-22 22,-28 -7,-2 -12,-9 -12,-15 0,-7 -15,-19 -33,-27 -19,-9 -33,-24 -35,-36 -2,-13 -13,-25 -25,-28 -38,-10 -41,-7 -17,19 l 23,25 h -26 c -40,0 -38,38 2,46 21,4 28,11 24,21 -4,10 -14,13 -30,8 -18,-4 -35,3 -66,27 -27,22 -39,27 -34,15 4,-9 10,-24 13,-32 4,-10 -21,-2 -76,24 -65,32 -85,38 -99,29 -14,-9 -24,-6 -47,10 -34,25 -100,30 -182,13 -58,-11 -82,-25 -82,-47 0,-19 -10,-18 -27,4 -13,15 -14,15 -9,0 3,-12 -2,-18 -17,-20 -17,-2 -23,-12 -28,-41 -7,-45 -13,-52 -34,-40 -11,7 -31,2 -64,-14 -36,-18 -52,-34 -65,-64 -17,-39 -20,-40 -52,-34 -30,5 -34,3 -34,-15 0,-13 -8,-24 -20,-27 -21,-6 -26,-18 -11,-28 6,-3 3,-18 -7,-36 -16,-28 -16,-31 0,-43 10,-7 18,-25 18,-40 0,-31 13,-33 38,-6 19,20 20,20 24,2 5,-20 60,-38 66,-22 2,5 17,1 33,-8 28,-16 31,-16 43,1 7,9 20,17 29,17 8,0 17,7 21,15 10,26 27,17 20,-11 -6,-23 -5,-25 12,-16 11,6 28,20 38,31 11,12 25,21 31,21 7,0 18,7 25,15 18,21 24,11 9,-13 -18,-28 2,-72 32,-72 15,0 19,5 15,15 -7,18 5,20 22,3 9,-9 15,-9 23,-1 7,7 25,9 42,6 21,-4 32,-2 39,10 8,15 11,16 33,1 26,-17 65,-11 65,11 0,23 31,26 60,5 15,-11 36,-20 47,-20 42,-1 172,-81 238,-146 33,-33 -24,-48 -71,-18 -13,9 -39,20 -56,23 -23,5 -34,14 -38,31 -3,14 -15,26 -31,30 -14,4 -35,13 -47,19 -18,10 -25,9 -38,-4 -12,-12 -40,-15 -130,-15 -134,0 -194,-19 -254,-81 -20,-20 -47,-39 -60,-41 -15,-2 -30,-14 -38,-30 -7,-16 -21,-32 -32,-38 -15,-8 -50,-62 -50,-77 0,-1 9,-3 20,-3 11,0 20,-6 20,-14 0,-8 7,-21 15,-30 11,-11 12,-17 3,-22 -6,-4 -14,-2 -16,4 -7,23 -32,12 -32,-13 0,-22 4,-25 38,-25 20,1 48,7 62,15 28,16 70,20 70,7 0,-5 -11,-14 -25,-20 -26,-12 -26,-12 -8,-37 12,-16 25,-23 37,-21 11,3 27,1 36,-4 12,-6 29,-3 56,10 32,17 59,20 159,20 66,0 135,4 153,9 23,7 44,6 75,-5 64,-22 318,-193 344,-233 46,-68 22,-69 -45,-2 -43,43 -57,51 -126,67 -62,14 -81,16 -97,6 -17,-11 -26,-6 -76,48 -68,74 -104,95 -134,79 -12,-6 -32,-9 -45,-6 -17,3 -24,0 -24,-10 0,-11 -5,-13 -17,-8 -38,16 -60,15 -113,-4 -37,-13 -55,-25 -54,-36 1,-11 -4,-14 -16,-10 -24,7 -46,-25 -56,-80 -8,-48 -20,-65 -45,-65 -11,0 -24,-11 -31,-25 -9,-20 -19,-25 -46,-25 -27,0 -33,-3 -28,-16 4,-9 1,-23 -5,-30 -21,-25 -2,-46 39,-43 68,4 123,-1 118,-10 -11,-17 6,-41 30,-41 13,0 39,14 59,31 29,26 38,29 50,19 8,-7 24,-10 36,-7 11,3 36,-3 55,-15 40,-23 108,-40 173,-42 36,-1 48,-6 72,-36 29,-35 37,-60 19,-60 -5,0 -10,4 -10,9 0,14 -32,19 -58,9 -19,-6 -31,-3 -54,17 -18,15 -42,25 -61,25 -25,0 -36,7 -49,30 -18,32 -42,39 -51,16 -4,-9 -30,-15 -81,-18 -51,-3 -82,-10 -94,-22 -10,-9 -27,-16 -36,-16 -10,0 -31,-7 -46,-17 -26,-15 -35,-15 -134,0 -67,11 -113,13 -124,8 -9,-5 -36,-14 -59,-20 -24,-7 -43,-17 -43,-23 0,-6 -21,-31 -47,-56 -30,-27 -43,-46 -35,-49 18,-7 15,-23 -5,-23 -15,0 -15,-2 1,-19 17,-19 17,-20 -21,-23 -42,-3 -52,-21 -13,-26 13,-2 29,-11 35,-19 10,-13 16,-13 34,-3 27,14 38,8 16,-10 -22,-18 -18,-30 10,-30 33,0 59,-40 51,-77 -9,-40 18,-53 123,-60 83,-5 89,-4 103,16 l 16,23 7,-30 c 8,-40 35,-64 35,-33 0,23 10,27 27,10 9,-9 17,-4 31,20 18,29 20,30 25,12 3,-14 13,-21 28,-21 12,0 33,-10 46,-22 l 23,-21 v 26 c 0,15 5,27 10,27 6,0 10,-4 10,-10 0,-5 11,-10 24,-10 33,0 53,-26 29,-38 -10,-5 -24,-7 -30,-5 -7,3 -23,-3 -35,-11 -29,-21 -75,-20 -86,1 -9,15 -14,13 -48,-13 -22,-16 -48,-34 -59,-40 -11,-6 -21,-21 -23,-33 -2,-11 -10,-21 -18,-21 -9,0 -14,-11 -14,-29 0,-17 -4,-32 -9,-35 -4,-3 -6,-18 -3,-33 l 5,-28 -23,20 -23,20 5,-22 c 4,-14 2,-23 -5,-23 -34,-1 -39,-17 -18,-57 24,-49 34,-53 121,-53 55,0 71,4 79,17 7,14 12,15 25,4 12,-10 19,-9 37,7 12,12 28,18 37,15 12,-5 14,-1 8,23 -5,20 -4,26 3,19 6,-6 14,-28 19,-50 8,-39 9,-40 56,-43 27,-2 54,2 59,7 6,6 20,11 32,11 12,0 26,5 32,11 7,7 17,8 29,1 11,-5 50,-15 87,-20 58,-9 119,-28 272,-85 16,-6 64,-45 106,-87 93,-91 98,-105 106,-295 l 5,-140 -37,35 c -56,53 -88,123 -46,100 25,-13 53,-14 32,-1 -13,8 -13,12 0,27 13,15 12,16 -11,10 l -25,-7 23,17 c 12,9 22,23 22,30 0,23 -44,103 -56,104 -7,0 -38,14 -69,30 -69,36 -126,39 -195,9 -48,-20 -51,-21 -92,-5 -52,21 -107,14 -147,-20 -22,-18 -41,-24 -79,-24 -28,0 -54,4 -57,10 -7,12 -295,1 -311,-12 -7,-5 -10,-18 -7,-28 4,-16 0,-20 -21,-20 -21,0 -26,-5 -26,-25 0,-14 -8,-29 -20,-35 -11,-6 -20,-18 -20,-26 0,-10 -8,-14 -23,-12 -15,2 -21,-1 -18,-12 13,-53 13,-60 -4,-60 -14,0 -15,-3 -5,-15 7,-8 18,-15 24,-15 6,0 23,-14 37,-31 25,-31 27,-32 57,-18 18,8 32,20 32,28 0,11 3,11 17,0 13,-11 17,-11 21,-1 3,10 7,10 18,1 19,-16 18,-56 -3,-67 -14,-9 -14,-11 7,-22 16,-9 53,-11 117,-8 82,5 94,3 92,-11 -1,-9 -1,-19 0,-22 0,-4 31,4 67,17 l 66,24 24,-25 c 35,-38 70,-48 99,-29 14,9 32,14 40,10 18,-6 19,7 4,37 -12,21 -11,21 8,5 26,-24 32,-23 25,4 -3,13 -1,19 5,15 6,-4 23,3 37,14 l 27,21 16,-41 c 17,-44 36,-51 87,-31 34,13 34,52 0,87 -14,14 -23,28 -20,31 18,18 213,-58 275,-106 l 24,-19 -12,-197 c -6,-108 -14,-203 -17,-210 -7,-19 85,-28 228,-24 l 107,3 5,206 c 3,113 10,236 16,275 14,89 54,220 80,263 20,31 24,33 61,27 30,-5 41,-3 45,9 5,11 10,13 19,5 9,-8 14,-7 18,2 3,10 9,9 24,-5 19,-16 24,-17 63,-3 40,14 45,14 70,-4 53,-38 106,-47 79,-13 -15,17 8,48 25,35 6,-5 23,-12 39,-16 15,-3 27,-13 27,-22 0,-12 4,-13 21,-4 15,9 24,8 35,-1 11,-9 18,-9 22,-2 10,15 64,22 86,11 14,-7 22,-6 34,6 15,15 15,17 -1,33 -15,16 -14,18 13,35 17,10 30,26 30,37 0,18 2,19 28,5 15,-7 48,-14 73,-14 38,0 48,4 52,20 3,11 12,20 21,20 9,0 16,5 16,10 0,6 9,10 21,10 15,0 19,5 15,15 -4,11 2,15 21,15 21,0 23,2 13,15 -6,8 -22,17 -33,21 -12,4 -31,16 -43,28 -41,42 -65,56 -94,56 -16,0 -55,10 -87,22 -44,17 -79,23 -143,23 -47,0 -90,3 -96,7 -6,4 -26,1 -43,-8 -17,-8 -43,-14 -58,-12 -48,5 -32,31 37,60 71,30 103,31 243,2 73,-15 96,-11 77,12 -10,11 -4,12 37,8 43,-5 51,-3 72,20 21,22 22,28 10,42 -7,9 -14,22 -14,29 0,7 -13,23 -28,35 -21,17 -25,25 -17,35 8,10 2,22 -25,50 l -35,38 -127,-6 c -70,-4 -130,-11 -133,-17 -4,-6 -14,-3 -25,10 -10,11 -33,23 -52,26 -19,4 -48,18 -64,31 -28,24 -29,24 -29,4 0,-20 -1,-20 -35,-4 -42,20 -44,29 -7,38 15,3 144,62 287,130 144,68 294,133 336,144 75,20 181,23 222,6 11,-5 41,2 78,16 47,19 59,28 55,42 -3,12 2,17 15,17 12,0 16,5 13,15 -4,10 0,15 11,15 13,0 16,5 10,23 -3,12 -9,32 -12,45 -3,12 -10,22 -15,22 -5,0 -8,7 -6,17 2,10 -7,19 -25,24 -15,4 -41,19 -58,33 -17,15 -43,26 -59,26 -21,0 -29,6 -34,24 -3,14 -18,29 -36,36 -18,8 -33,22 -36,37 -7,26 -75,63 -118,63 -12,0 -31,7 -44,15 -17,13 -26,14 -44,4 -17,-9 -28,-8 -55,6 -26,14 -36,16 -45,7 -7,-7 -16,-12 -22,-12 -6,0 -5,5 2,12 7,7 12,21 12,31 0,10 30,50 68,89 66,69 99,94 109,85 3,-3 -8,-12 -23,-20 l -27,-14 32,-11 c 20,-7 57,-9 94,-5 59,6 61,5 47,-12 -14,-17 -13,-18 10,-12 14,4 29,7 33,7 5,0 5,9 2,21 -7,20 -6,20 20,3 23,-15 28,-15 36,-3 20,30 21,60 4,86 -15,23 -15,25 -2,20 9,-3 19,-2 22,3 8,13 -29,30 -65,30 -29,0 -32,3 -26,23 4,19 -2,30 -34,55 -21,18 -43,32 -48,32 -4,0 -21,14 -37,30 -16,17 -39,30 -53,30 -21,0 -16,8 44,74 64,71 68,74 96,64 21,-7 37,-7 54,1 37,16 43,14 66,-25 13,-22 26,-33 34,-30 8,3 21,9 29,12 10,4 15,0 15,-10 0,-9 4,-16 9,-16 12,0 24,101 15,134 -5,22 -3,26 15,26 30,0 26,28 -5,42 -20,9 -62,76 -52,83 2,0 14,6 28,12 24,12 25,12 4,18 -12,4 -26,15 -30,25 -5,9 -42,45 -83,79 -93,77 -155,96 -223,66 -15,-6 -18,-2 -18,20 0,28 6,29 54,9 16,-6 18,-4 13,10 -5,14 -3,17 8,12 8,-3 15,-1 15,5 0,14 26,39 39,39 16,0 13,26 -3,40 -8,6 -12,19 -9,27 5,13 1,15 -25,10 -18,-4 -34,-2 -38,4 -3,6 -12,8 -20,5 -10,-4 -14,3 -14,24 0,28 -3,30 -35,30 -19,0 -35,5 -35,10 0,6 -7,10 -15,10 -8,0 -24,5 -35,10 -11,6 -29,15 -40,20 -12,6 -25,8 -30,5 -5,-3 -11,-1 -15,5 -3,5 -26,10 -51,10 -40,0 -59,-6 -104,-32 -8,-5 -23,-11 -32,-14 -25,-9 -22,-23 7,-34 14,-5 25,-14 25,-20 0,-6 -9,-5 -25,2 -19,9 -34,7 -70,-6 -25,-10 -45,-22 -45,-27 0,-5 -13,-9 -30,-9 -19,0 -30,5 -30,14 0,9 -16,16 -45,20 -24,4 -48,12 -51,18 -5,7 -1,9 9,5 10,-3 17,-2 17,3 0,5 -9,11 -19,15 -12,4 -18,12 -14,20 3,8 -2,18 -12,21 -9,4 -14,13 -11,21 4,9 -9,20 -39,33 -25,11 -45,24 -45,30 0,6 -8,9 -18,6 -14,-5 -22,1 -32,21 -13,27 -14,27 -18,6 -4,-27 -27,-30 -41,-6 -8,15 -13,15 -36,5 -39,-18 -45,-15 -45,21 0,32 -15,57 -33,57 -5,0 -6,-7 -3,-16 6,-15 0,-16 -41,-11 -27,3 -56,9 -66,12 -13,6 -16,3 -11,-10 5,-13 2,-16 -12,-13 -11,2 -19,12 -19,23 0,15 -6,19 -25,17 -21,-4 -22,-2 -11,12 8,9 11,19 8,23 -10,9 -98,12 -137,4 z m 487,-197 c -9,-9 -28,6 -21,18 4,6 10,6 17,-1 6,-6 8,-13 4,-17 z m 87,-23 c 10,-11 16,-25 14,-32 -2,-7 -14,1 -27,19 -24,35 -15,44 13,13 z m -729,-1 c 17,-7 15,-9 -12,-9 -18,-1 -33,4 -33,9 0,12 17,12 45,0 z m 695,-16 c 0,-9 -5,-14 -12,-12 -18,6 -21,28 -4,28 9,0 16,-7 16,-16 z m 140,-130 c 0,-8 -4,-12 -10,-9 -5,3 -10,10 -10,16 0,5 5,9 10,9 6,0 10,-7 10,-16 z m -136,-69 c 21,-14 24,-14 29,0 4,10 20,15 46,15 39,0 40,-1 30,-24 -19,-42 -48,-47 -99,-18 -25,14 -49,29 -54,34 -17,15 24,9 48,-7 z m -864,-5 c 0,-5 -4,-10 -10,-10 -5,0 -10,5 -10,10 0,6 5,10 10,10 6,0 10,-4 10,-10 z m 220,-39 c 0,-14 -18,-23 -30,-16 -6,4 -8,11 -5,16 8,12 35,12 35,0 z m 785,-47 c 17,-4 36,-11 43,-17 10,-8 16,-7 22,2 6,11 15,11 39,3 17,-6 33,-7 36,-2 3,5 15,5 28,1 13,-5 34,-3 54,5 32,14 63,10 63,-8 0,-5 -9,-7 -19,-3 -22,7 -51,-18 -51,-45 0,-16 -4,-17 -28,-8 -36,14 -98,2 -123,-23 -10,-10 -28,-19 -38,-19 -21,0 -66,-66 -50,-75 5,-4 14,-3 19,0 6,3 10,2 10,-3 0,-6 -7,-13 -16,-16 -22,-8 -64,-7 -64,2 0,8 -92,52 -111,52 -8,0 -5,7 7,18 19,19 26,21 69,25 16,1 25,8 25,20 0,11 8,17 23,17 24,1 57,21 57,36 0,5 -14,17 -30,26 -17,9 -30,25 -30,34 0,16 2,16 18,1 9,-8 31,-19 47,-23 z m 395,7 c 0,-19 -24,-51 -39,-51 -9,0 -31,22 -31,32 0,4 6,8 14,8 7,0 19,7 26,15 17,21 30,19 30,-4 z m 135,-9 c -14,-2 -25,-8 -25,-13 0,-5 -7,-9 -15,-9 -8,0 -15,7 -15,15 0,8 7,15 15,15 8,0 15,4 15,9 0,5 11,4 25,-2 l 25,-12 z m -75,4 c 0,-16 -18,-31 -27,-22 -8,8 5,36 17,36 5,0 10,-6 10,-14 z m -723,-111 c 33,-17 48,-41 32,-51 -11,-7 -45,21 -60,48 -12,22 -10,22 28,3 z m -39,-28 c 22,-17 13,-27 -27,-27 -43,0 -68,19 -49,38 12,12 54,6 76,-11 z m -143,-34 c -20,-14 -65,-18 -65,-5 0,10 62,29 74,23 5,-2 1,-10 -9,-18 z m -299,-43 c 11,-10 14,-9 14,4 0,26 15,19 54,-24 40,-45 45,-66 17,-75 -11,-3 -22,-12 -25,-20 -3,-8 -16,-15 -30,-15 -13,0 -26,-6 -29,-14 -4,-9 -14,-12 -28,-9 -27,7 -22,-15 7,-31 10,-6 21,-12 23,-14 3,-1 -3,-8 -13,-15 -19,-14 -19,-60 -1,-55 6,2 9,6 8,11 -5,14 26,7 61,-14 l 36,-21 -6,31 c -7,35 10,44 19,10 5,-18 11,-21 36,-16 l 31,7 v -71 -71 l -32,24 c -18,14 -52,35 -76,48 -36,21 -45,22 -52,10 -8,-12 -15,-11 -47,7 -50,28 -93,89 -100,141 -7,50 8,72 48,72 19,0 29,5 29,15 0,9 7,18 15,21 11,4 15,23 16,63 1,31 4,46 6,34 2,-12 11,-27 19,-33 z m 184,24 c 0,-16 -24,-100 -31,-108 -4,-5 -13,11 -20,34 -12,40 -12,44 10,61 23,19 41,24 41,13 z m 820,-69 c 0,-8 -4,-15 -10,-15 -5,0 -10,7 -10,15 0,8 5,15 10,15 6,0 10,-7 10,-15 z m 190,-3 c 0,-25 -35,-58 -45,-42 -8,12 20,60 35,60 6,0 10,-8 10,-18 z m -260,-38 c 0,-28 -7,-30 -32,-8 -17,16 -17,18 -1,30 23,16 33,9 33,-22 z m -1134,-42 c 54,-121 52,-128 -22,-58 -42,41 -45,47 -39,78 14,64 25,61 61,-20 z m 1313,52 c 6,-6 -19,-133 -34,-169 l -12,-30 -6,35 c -19,112 -18,121 3,127 24,7 25,11 3,36 -18,20 -17,20 12,13 16,-4 32,-10 34,-12 z m -1269,-24 c 0,-10 -4,-22 -10,-25 -6,-4 -10,7 -10,25 0,18 4,29 10,25 6,-3 10,-15 10,-25 z m -150,5 c 7,-9 10,-18 7,-22 -8,-7 -37,15 -37,28 0,14 16,11 30,-6 z m 1310,-11 c 0,-8 -4,-14 -10,-14 -5,0 -10,9 -10,21 0,11 5,17 10,14 6,-3 10,-13 10,-21 z m -1370,-5 c 0,-4 -7,-6 -15,-3 -8,4 -15,10 -15,15 0,4 7,6 15,3 8,-4 15,-10 15,-15 z m -265,1 c 3,-5 2,-10 -4,-10 -5,0 -13,5 -16,10 -3,6 -2,10 4,10 5,0 13,-4 16,-10 z m 1841,-38 c 1,-2 12,6 24,18 22,22 40,19 40,-8 0,-26 -67,-162 -80,-162 -6,0 -22,7 -35,16 -23,15 -25,15 -25,-2 0,-13 -3,-15 -11,-7 -16,16 14,129 42,159 21,23 24,23 32,7 6,-10 11,-19 13,-21 z m -221,-7 c 14,-13 25,-33 25,-44 0,-10 9,-47 19,-81 18,-56 18,-61 3,-55 -63,26 -72,27 -103,11 -18,-9 -42,-16 -55,-16 -13,0 -26,-5 -29,-11 -10,-15 -114,-5 -158,17 -28,13 -42,15 -55,8 -19,-12 -152,-6 -152,6 0,13 43,20 83,13 23,-3 49,-1 65,7 37,18 63,28 90,35 12,4 31,23 42,43 11,22 19,30 20,20 0,-11 8,-18 20,-18 11,0 29,-6 40,-12 15,-10 27,-10 50,-1 25,9 30,9 30,-3 0,-8 5,-14 11,-14 6,0 8,9 4,20 -4,12 -2,20 6,20 8,0 10,13 6,40 -6,46 4,50 38,15 z m 405,5 c 0,-34 -25,-83 -60,-117 -35,-34 -70,-43 -70,-18 0,28 41,120 62,138 29,24 68,23 68,-3 z m -955,-146 c 0,-19 -5,-29 -15,-29 -16,0 -25,28 -16,51 10,25 31,10 31,-22 z m -65,8 c 0,-5 -7,-17 -15,-28 -15,-19 -20,-8 -9,20 6,17 24,22 24,8 z m -77,-18 c 22,-8 19,-42 -4,-57 -26,-16 -49,-1 -49,31 0,32 8,45 24,37 6,-3 19,-8 29,-11 z m -139,-109 c 11,-8 15,-15 10,-15 -6,0 -19,7 -30,15 -10,8 -14,14 -9,14 6,0 19,-6 29,-14 z M 445,7342 c 0,-18 -20,-15 -23,4 -3,10 1,15 10,12 7,-3 13,-10 13,-16 z m 943,-5 c 2,-8 -6,-21 -17,-27 -14,-7 -21,-7 -21,0 0,5 5,10 11,10 6,0 8,9 4,21 -5,15 -3,20 6,17 8,-3 15,-12 17,-21 z m -268,-115 c 0,-39 -2,-43 -15,-32 -9,7 -26,27 -37,43 l -22,30 22,-5 c 19,-5 22,-2 22,20 1,26 1,26 15,8 8,-11 15,-40 15,-64 z m 165,57 c 12,-38 -15,-37 -35,2 -9,16 -7,19 9,19 11,0 23,-9 26,-21 z m -365,-4 c 7,-9 8,-15 2,-15 -5,0 -12,7 -16,15 -3,8 -4,15 -2,15 2,0 9,-7 16,-15 z m 268,-1 c 18,-8 39,-25 47,-37 14,-20 13,-22 -4,-29 -17,-6 -18,-11 -9,-42 12,-39 7,-52 -17,-43 -28,11 -55,70 -55,120 0,26 2,47 3,47 2,0 18,-7 35,-16 z m -320,-32 c 6,-18 -15,-14 -22,4 -4,10 -1,14 6,12 6,-2 14,-10 16,-16 z m 142,3 c 7,-8 8,-15 2,-15 -5,0 -15,7 -22,15 -7,8 -8,15 -2,15 5,0 15,-7 22,-15 z m -282,-11 c 20,-9 32,-18 25,-21 -11,-4 -73,23 -73,32 0,8 9,6 48,-11 z m 1837,-36 c 22,-10 28,-9 35,2 5,8 11,12 15,9 9,-9 -54,-89 -80,-101 -13,-6 -31,-8 -40,-4 -24,9 -16,59 13,71 12,5 22,15 22,22 0,16 3,16 35,1 z m -177,-29 c -2,-6 -8,-10 -13,-10 -5,0 -11,4 -13,10 -2,6 4,11 13,11 9,0 15,-5 13,-11 z m -998,-64 c 8,-10 31,-15 64,-16 45,-1 48,-2 22,-9 -36,-11 -46,-25 -46,-67 0,-26 6,-36 31,-49 19,-9 41,-13 56,-9 l 26,6 -7,-62 c -4,-35 -12,-71 -18,-82 -9,-18 -11,-18 -29,-1 -22,20 -24,36 -7,64 11,17 9,23 -10,42 -19,20 -24,21 -32,8 -7,-11 -17,2 -40,54 -34,75 -49,136 -33,136 6,0 16,-7 23,-15 z m -80,-26 c 0,-5 -4,-9 -10,-9 -5,0 -10,7 -10,16 0,8 5,12 10,9 6,-3 10,-10 10,-16 z m 398,-111 c 9,-9 7,-19 -9,-44 -16,-26 -18,-37 -9,-54 12,-22 30,-26 47,-9 8,8 16,4 28,-14 24,-38 12,-48 -55,-45 l -58,3 -6,55 c -9,78 1,120 28,120 12,0 27,-5 34,-12 z m 574,-18 c 15,0 28,-4 28,-10 0,-17 -63,-37 -150,-49 -102,-14 -110,-14 -110,-1 0,6 5,10 12,10 6,0 19,7 29,16 15,13 24,14 50,5 42,-15 49,-14 49,4 0,12 4,13 19,5 30,-15 34,-13 26,18 -5,22 -4,25 6,15 7,-7 26,-13 41,-13 z m 128,-27 c -1,-18 -18,-35 -24,-24 -4,6 -4,16 -1,21 7,12 25,13 25,3 z m -422,-44 c 9,-3 1,-18 -23,-44 l -36,-40 5,40 c 3,22 6,49 6,59 0,17 2,18 18,4 9,-9 23,-17 30,-19 z m -1501,-5 c -3,-3 -12,-4 -19,-1 -8,3 -5,6 6,6 11,1 17,-2 13,-5 z m 1411,-61 c -11,-45 -26,-53 -52,-27 -41,41 -46,95 -7,74 28,-15 41,-12 41,7 0,15 2,15 15,3 11,-12 12,-23 3,-57 z m 1012,37 c 0,-5 -2,-10 -4,-10 -3,0 -8,5 -11,10 -3,6 -1,10 4,10 6,0 11,-4 11,-10 z m -1491,-36 c -6,-7 -8,-18 -4,-24 4,-6 -7,-10 -29,-10 -19,0 -36,-4 -38,-8 -1,-4 -24,-20 -50,-35 -43,-25 -84,-68 -87,-92 -2,-13 -49,-26 -56,-16 -6,10 13,78 31,113 21,41 60,79 75,73 8,-3 32,1 54,9 26,9 46,11 57,5 23,-13 28,-11 28,7 0,14 3,14 15,4 11,-9 12,-16 4,-26 z m 621,30 c 0,-5 -17,-28 -60,-81 -6,-7 -10,-19 -10,-28 0,-8 -4,-15 -10,-15 -20,0 -10,42 20,86 17,24 37,44 45,44 8,0 15,-3 15,-6 z m -879,-87 c -8,-8 -11,-5 -11,9 0,27 14,41 18,19 2,-9 -1,-22 -7,-28 z m -56,2 c 4,-11 4,-23 0,-27 -7,-7 -25,17 -25,36 0,20 18,14 25,-9 z m 1682,-185 c 4,-11 -44,-41 -52,-33 -2,3 3,15 11,28 16,22 35,24 41,5 z m 193,-4 c 0,-5 -2,-10 -4,-10 -3,0 -8,5 -11,10 -3,6 -1,10 4,10 6,0 11,-4 11,-10 z m -368,-41 c -18,-16 -38,-29 -45,-29 -6,1 6,16 27,35 22,19 42,32 45,29 3,-3 -9,-19 -27,-35 z m -92,-16 c 9,-8 -58,-57 -132,-97 l -72,-39 22,31 c 33,46 81,82 108,82 14,0 22,4 19,10 -3,6 -15,10 -26,10 -10,0 -19,4 -19,10 0,9 89,3 100,-7 z m -215,-93 c -22,-22 -55,-51 -75,-65 -35,-24 -120,-45 -120,-29 1,22 22,39 47,39 25,0 28,4 31,37 4,53 26,67 57,38 l 25,-23 v 21 c 0,19 4,21 24,16 13,-3 27,-1 31,6 4,6 10,9 13,5 3,-3 -12,-23 -33,-45 z M 178,6408 c 10,-10 14,-10 21,0 6,9 12,7 26,-8 13,-15 15,-24 8,-31 -13,-13 -39,-1 -67,30 -20,22 -9,30 12,9 z m 772,-6 c 0,-10 -6,-24 -12,-31 -10,-11 -10,-14 -1,-18 10,-3 10,-10 2,-25 -9,-16 -7,-24 5,-36 15,-15 16,-15 16,1 0,9 5,17 10,17 6,0 10,-4 10,-10 0,-15 41,-12 73,4 23,13 27,13 27,1 0,-26 20,-26 32,0 13,29 25,28 45,-2 12,-18 12,-23 -2,-37 -9,-9 -33,-16 -53,-16 -31,0 -40,-5 -54,-31 -15,-25 -23,-30 -50,-27 -25,2 -39,13 -65,50 -44,61 -53,110 -24,134 11,10 21,24 21,31 0,7 5,13 10,13 6,0 10,-8 10,-18 z m 980,-43 c 28,-21 50,-22 92,-4 17,7 17,4 4,-31 -31,-87 -36,-93 -70,-87 -27,4 -37,0 -57,-24 -20,-24 -31,-29 -59,-26 -30,3 -38,-1 -60,-31 -23,-32 -50,-48 -50,-29 0,9 71,226 76,231 1,2 13,-2 26,-9 20,-12 66,-13 77,-3 2,2 -2,10 -9,19 -18,21 -4,19 30,-6 z m -414,-12 c 10,4 12,-10 7,-69 -3,-40 -10,-81 -15,-91 -8,-17 -14,-14 -53,22 -25,23 -54,41 -66,41 -13,0 -31,8 -41,17 -14,13 -21,14 -30,5 -18,-18 -56,-14 -78,8 -23,23 -29,50 -7,32 7,-6 22,-9 34,-6 11,3 55,-4 97,-15 91,-25 96,-25 96,-6 0,8 5,15 10,15 6,0 10,14 10,32 0,24 3,29 11,21 6,-6 17,-9 25,-6 z m 188,-7 25,-9 -32,-93 -32,-93 -3,89 c -3,83 1,116 12,116 3,0 16,-4 30,-10 z M 345,6310 c 3,-5 2,-10 -4,-10 -5,0 -13,5 -16,10 -3,6 -2,10 4,10 5,0 13,-4 16,-10 z m 508,-17 c 8,24 28,-34 22,-64 -6,-25 -11,-29 -40,-29 -43,0 -99,44 -75,60 8,5 23,10 33,10 9,0 17,7 17,15 0,12 4,13 19,5 14,-7 21,-6 24,3 z m 57,-73 c 0,-5 -2,-10 -4,-10 -3,0 -8,5 -11,10 -3,6 -1,10 4,10 6,0 11,-4 11,-10 z m 1084,-303 c -22,-33 -28,-37 -35,-24 -11,19 3,59 34,96 l 22,28 3,-30 c 2,-19 -6,-43 -24,-70 z m 89,60 c -9,-16 -26,12 -18,30 7,17 8,17 15,-2 4,-11 5,-24 3,-28 z m -577,-92 c -5,-57 -17,-103 -39,-152 -7,-17 -5,-27 12,-49 22,-28 27,-59 12,-69 -5,-3 -15,12 -22,32 -6,21 -36,93 -66,161 -48,111 -63,162 -47,162 3,0 15,-5 26,-11 19,-10 20,-9 16,15 -6,31 2,33 27,6 23,-25 45,-26 45,-2 0,34 15,34 29,0 9,-22 11,-53 7,-93 z m 370,112 c 7,-7 -13,-52 -31,-70 -9,-10 -27,-17 -40,-17 -14,0 -40,-14 -59,-31 -20,-17 -40,-28 -46,-24 -13,8 -13,111 1,137 10,19 18,20 91,15 44,-3 82,-7 84,-10 z m -556,-177 c 13,-33 20,-64 16,-67 -4,-4 -34,21 -68,55 l -62,61 22,24 c 20,21 21,25 7,37 -8,7 -15,18 -15,24 1,26 79,-79 100,-134 z m 965,105 c -16,-8 -37,-14 -45,-14 -8,0 -1,7 15,14 17,8 37,14 45,14 8,0 2,-7 -15,-14 z m -147,-7 c 51,5 57,-13 7,-27 -36,-10 -71,-5 -92,12 -22,16 -14,26 15,18 15,-4 46,-6 70,-3 z m -1078,-8 c 0,-5 9,-10 20,-10 11,0 20,-5 20,-10 0,-6 23,-25 52,-42 63,-39 49,-47 -29,-16 -37,15 -62,31 -68,46 -10,23 -25,30 -25,12 0,-5 -5,-10 -10,-10 -7,0 -7,6 0,20 11,21 40,28 40,10 z m -99,-30 c 17,0 20,-3 12,-11 -14,-14 -65,1 -71,20 -3,10 0,10 16,2 11,-6 31,-11 43,-11 z m 989,-195 c 16,-20 6,-45 -20,-45 -13,0 -24,-11 -34,-34 -8,-18 -19,-37 -26,-41 -19,-12 -1,88 19,102 9,7 21,17 26,22 14,14 21,13 35,-4 z m -192,-32 21,-18 -39,-168 c -21,-93 -42,-172 -46,-175 -8,-9 2,353 11,367 9,16 30,13 53,-6 z m -459,-319 c 27,-34 27,-47 -1,-38 -30,9 -78,43 -78,55 0,21 59,8 79,-17 z m -784,-14 c 3,-5 1,-10 -4,-10 -6,0 -11,5 -11,10 0,6 2,10 4,10 3,0 8,-4 11,-10 z"
       id="path5311" />
  </g>
</svg>
