<?xml version="1.0" encoding="UTF-8" standalone="no"?>
<svg
   version="1.0"
   width="637.68402pt"
   height="474.13797pt"
   viewBox="0 0 637.68402 474.13797"
   preserveAspectRatio="xMidYMid"
   id="svg5587"
   xmlns="http://www.w3.org/2000/svg"
   xmlns:svg="http://www.w3.org/2000/svg">
  <defs
     id="defs5591" />
  <metadata
     id="metadata5307">
Created by potrace 1.15, written by Peter Selinger 2001-2017
</metadata>
  <g
     transform="matrix(0.1,0,0,-0.1,-412.08205,476.93798)"
     fill="#000000"
     stroke="none"
     id="g5585">
    <path
       d="m 6913,4740 c 5,-21 3,-28 -7,-24 -7,3 -24,-4 -37,-15 -23,-19 -24,-19 -5,-40 11,-12 14,-21 7,-21 -6,0 -26,20 -43,45 -34,49 -48,56 -48,26 0,-37 -21,-33 -38,8 -19,47 -36,55 -28,14 13,-68 18,-123 10,-123 -5,0 -20,18 -34,40 -27,45 -43,52 -34,15 6,-24 -4,-33 -19,-18 -4,3 -31,8 -59,9 -35,2 -47,0 -38,-7 12,-7 10,-13 -13,-31 -19,-16 -27,-31 -25,-48 4,-32 -29,-39 -62,-12 -21,17 -26,17 -51,5 -25,-13 -32,-12 -51,1 -45,32 -53,8 -12,-36 25,-25 27,-35 30,-122 2,-55 0,-98 -6,-101 -6,-3 -10,3 -10,13 0,11 -7,22 -14,25 -8,3 -20,24 -26,46 -10,39 -50,81 -75,81 -7,0 -18,-13 -23,-29 -10,-29 -11,-29 -70,-24 -36,3 -62,1 -66,-5 -3,-6 12,-33 34,-61 22,-28 40,-53 40,-57 0,-3 -12,-4 -27,-1 l -28,5 30,-24 c 16,-13 42,-29 57,-35 34,-14 36,-29 4,-29 -24,0 -76,-41 -76,-60 0,-6 5,-20 10,-31 13,-24 9,-24 -37,1 -47,25 -64,25 -105,0 -18,-11 -41,-20 -50,-20 -9,0 -29,-11 -45,-24 -23,-19 -30,-21 -40,-11 -9,10 -22,11 -51,3 -26,-6 -51,-6 -75,0 -31,9 -40,7 -62,-10 -14,-11 -25,-16 -25,-13 0,4 -12,-1 -27,-10 -18,-12 -28,-14 -31,-7 -6,18 -26,14 -55,-8 -14,-11 -32,-20 -40,-20 -7,0 -22,9 -32,20 -10,11 -22,20 -27,20 -4,0 -8,-9 -8,-20 0,-17 -7,-20 -38,-20 -44,0 -75,-26 -93,-79 -10,-29 -9,-35 15,-60 14,-15 26,-35 26,-44 0,-9 13,-23 29,-32 45,-23 46,-34 1,-28 -46,6 -90,-16 -90,-47 0,-11 -4,-20 -10,-20 -5,0 -10,14 -10,30 0,23 -4,30 -20,30 -11,0 -20,-4 -20,-10 0,-19 -37,-10 -58,15 -35,40 -101,29 -87,-14 5,-16 1,-26 -11,-36 -10,-7 -23,-28 -29,-46 -7,-20 -20,-35 -31,-37 -10,-2 -23,-8 -28,-12 -10,-10 60,-56 98,-66 31,-7 31,-7 10,-67 -12,-37 -21,-47 -38,-47 -31,0 -125,-34 -143,-53 -12,-12 -21,-13 -39,-5 -31,14 -40,5 -26,-26 7,-17 7,-27 -1,-35 -8,-8 -8,-11 1,-11 7,0 12,-4 12,-10 0,-19 -31,-10 -38,11 -8,21 -8,21 -39,-5 -33,-28 -46,-25 -37,9 5,19 -20,56 -30,44 -25,-33 -46,-84 -46,-113 0,-42 -12,-47 -29,-10 -8,17 -17,24 -27,20 -9,-3 -23,-6 -31,-6 -24,0 14,-39 55,-57 18,-7 30,-18 27,-22 -6,-11 -70,2 -89,18 -15,13 -26,5 -26,-21 0,-19 15,-24 25,-8 4,7 17,3 33,-9 15,-10 37,-22 50,-25 27,-9 62,-44 62,-63 0,-20 -28,-15 -40,7 -6,11 -18,20 -26,20 -27,0 -9,-24 37,-50 l 44,-25 -60,-6 c -69,-7 -92,7 -126,74 -38,74 -55,30 -17,-48 l 22,-45 -22,-23 c -23,-25 -29,-52 -12,-62 6,-3 10,-13 10,-22 0,-11 -7,-14 -25,-11 -36,7 -31,-7 8,-22 17,-7 37,-20 44,-28 18,-22 36,-4 29,31 l -6,31 25,-24 c 14,-13 25,-29 25,-36 0,-6 9,-14 20,-17 11,-3 20,-13 20,-22 0,-13 5,-15 18,-10 37,17 72,17 78,2 4,-12 11,-13 33,-4 31,12 111,-1 114,-18 1,-5 -26,-16 -60,-24 -53,-12 -63,-18 -63,-35 0,-12 -9,-27 -20,-34 -12,-7 -18,-17 -14,-23 7,-12 54,28 54,47 0,17 26,25 106,31 84,7 111,-11 31,-21 -28,-3 -70,-12 -91,-20 -35,-12 -37,-14 -18,-20 27,-9 29,-26 2,-26 -23,0 -40,-28 -40,-65 0,-24 -3,-26 -29,-20 -38,8 -51,-12 -22,-36 11,-10 27,-19 34,-22 9,-3 8,-9 -4,-21 -14,-15 -21,-16 -57,-4 -28,9 -42,19 -42,30 0,22 -16,23 -24,2 -5,-13 -9,-14 -20,-5 -8,7 -18,11 -22,10 -5,-1 -17,1 -27,6 -10,4 -23,2 -32,-5 -11,-9 -18,-7 -36,14 -29,33 -45,24 -64,-35 -18,-53 -35,-65 -35,-24 0,16 -6,25 -15,25 -8,0 -15,-4 -15,-10 0,-5 -11,-10 -24,-10 -20,0 -22,-4 -18,-26 4,-24 3,-25 -16,-15 -11,6 -29,23 -40,38 -11,16 -23,25 -26,22 -11,-10 15,-69 35,-80 27,-14 24,-32 -4,-26 -17,5 -26,0 -40,-24 -14,-25 -22,-30 -42,-25 -32,8 -40,-9 -15,-34 11,-11 20,-27 20,-35 0,-9 11,-21 25,-27 34,-15 31,-32 -7,-43 -54,-16 -41,-37 32,-53 l 65,-15 -77,-26 c -79,-26 -119,-51 -85,-51 10,0 37,10 60,21 38,20 47,21 99,10 68,-14 98,-3 98,33 0,24 -17,36 -51,36 -10,0 -25,13 -34,29 -8,16 -20,31 -27,34 -7,2 -10,8 -6,12 10,10 59,-22 55,-36 -1,-7 4,-14 11,-16 6,-3 12,3 12,11 0,13 6,15 28,10 51,-11 53,-12 46,-40 -7,-26 -7,-26 19,-10 31,21 64,14 108,-25 33,-28 33,-29 15,-44 -28,-21 -79,-19 -111,6 -22,18 -29,20 -36,8 -22,-35 -18,-37 113,-70 43,-10 47,-14 42,-35 -9,-36 20,-74 56,-74 30,0 49,15 28,22 -6,2 -9,12 -5,21 8,22 95,24 103,3 3,-8 28,-17 57,-20 56,-8 97,-29 97,-50 0,-11 10,-11 51,-4 33,6 55,6 63,-1 6,-6 31,-13 54,-17 l 43,-7 -22,-23 c -27,-29 -20,-30 23,-4 18,11 43,20 56,20 25,0 29,-21 8,-39 -8,-7 -17,-25 -21,-40 -3,-16 -17,-39 -31,-51 -15,-15 -24,-34 -24,-54 1,-28 6,-22 43,46 31,57 52,82 79,98 21,12 42,19 47,16 5,-3 14,1 21,9 14,17 50,20 50,5 0,-5 16,-10 36,-10 20,0 48,-7 62,-15 15,-8 50,-25 77,-37 45,-20 48,-22 23,-26 -23,-3 -27,-9 -33,-45 -10,-67 -14,-75 -43,-82 -15,-4 -34,-12 -42,-19 -23,-19 -114,-36 -198,-36 -101,0 -210,-17 -239,-36 -18,-11 -28,-12 -45,-3 -21,11 -20,12 17,30 42,21 85,57 85,71 0,5 7,16 15,24 8,9 15,23 15,32 -1,12 -7,8 -22,-13 -38,-51 -87,-97 -98,-90 -15,10 -12,21 16,54 14,17 21,31 16,31 -6,0 -26,-18 -45,-41 -21,-24 -38,-36 -42,-30 -3,6 -4,15 0,20 3,5 0,13 -6,16 -7,5 -9,-15 -4,-66 8,-94 12,-106 27,-91 7,7 18,12 26,12 7,0 30,11 50,25 73,50 84,21 20,-53 -24,-27 -52,-62 -64,-78 -18,-25 -23,-27 -37,-16 -12,10 -21,11 -36,3 -11,-6 -36,-11 -55,-11 -20,0 -36,-5 -36,-11 0,-7 28,-10 86,-8 73,3 89,7 100,24 8,11 37,50 64,87 28,37 50,72 50,77 0,18 47,23 97,11 26,-7 60,-13 75,-13 33,-2 84,-47 66,-58 -7,-5 -23,-6 -35,-3 -17,5 -25,-1 -37,-23 -8,-16 -22,-35 -30,-42 -22,-18 -20,-30 3,-24 27,7 45,-30 37,-79 -6,-38 -5,-39 16,-32 13,4 50,8 83,9 33,1 80,9 105,19 55,21 70,15 70,-24 0,-27 2,-30 25,-24 19,5 25,2 25,-10 0,-13 11,-16 54,-16 30,0 67,5 82,10 30,12 44,6 26,-12 -20,-20 -14,-28 23,-28 24,0 37,-6 45,-20 6,-11 16,-17 25,-14 8,4 18,-1 21,-10 8,-21 61,-21 114,0 23,9 51,13 65,10 14,-4 49,0 78,8 70,19 150,28 142,16 -3,-5 -36,-25 -73,-45 -37,-19 -109,-71 -160,-115 -70,-59 -103,-81 -130,-85 -111,-16 -162,-30 -223,-60 l -67,-34 -38,27 c -21,15 -61,51 -89,79 -29,29 -60,53 -71,53 -11,0 -35,-13 -55,-29 -34,-28 -36,-29 -47,-10 -7,10 -19,19 -27,19 -18,0 -19,-12 -4,-27 7,-7 9,-19 5,-29 -5,-13 -15,-15 -49,-11 -32,4 -38,3 -23,-5 33,-18 99,-3 155,36 29,20 57,33 62,30 5,-3 18,-23 29,-45 11,-21 25,-39 30,-39 6,0 33,-16 61,-35 28,-19 57,-35 64,-35 7,0 46,16 86,35 76,36 167,59 194,49 30,-12 66,7 137,72 91,82 149,119 263,171 108,49 181,67 255,61 41,-3 58,0 66,11 14,18 154,30 154,13 0,-5 -7,-13 -16,-16 -8,-3 -12,-10 -9,-16 3,-5 -6,-21 -21,-35 -15,-14 -24,-31 -21,-39 4,-10 21,1 60,40 l 54,54 45,-13 c 97,-30 136,-49 147,-73 18,-40 13,-50 -30,-60 -56,-13 -53,-27 8,-37 l 52,-8 32,-77 c 64,-155 105,-225 230,-394 63,-85 114,-218 103,-266 -13,-51 -42,-97 -98,-152 -31,-30 -56,-57 -56,-61 0,-10 143,-18 464,-25 l 289,-6 -5,39 c -3,22 -24,69 -46,104 -52,82 -98,191 -106,249 -4,25 2,131 13,235 24,229 25,231 131,222 95,-7 250,10 336,38 96,31 124,48 69,40 -73,-11 -100,-17 -110,-25 -5,-5 -21,-10 -35,-12 -19,-2 -29,5 -47,37 -35,60 -28,78 32,87 61,10 91,4 126,-26 16,-14 47,-26 78,-30 27,-4 68,-13 90,-20 22,-9 56,-12 80,-9 33,5 41,3 41,-11 0,-20 7,-20 26,-1 9,9 34,15 60,15 37,0 44,3 44,19 0,14 8,21 28,23 41,5 29,22 -20,28 -24,3 -53,11 -65,18 -31,17 -38,-2 -8,-22 14,-9 23,-21 20,-26 -10,-16 -52,-11 -59,5 -5,13 -9,14 -28,3 -30,-16 -192,-16 -241,1 -27,9 -37,18 -35,29 3,14 14,16 67,14 55,-3 63,-1 68,16 2,11 16,25 29,31 33,15 37,14 30,-4 -4,-11 2,-15 27,-15 18,0 42,-7 53,-14 17,-13 21,-13 35,6 12,15 31,22 70,25 69,5 99,12 99,21 0,4 -21,8 -46,9 -26,1 -49,4 -51,7 -11,11 10,26 35,26 15,0 45,5 66,11 29,8 36,13 25,20 -22,14 -75,11 -119,-7 -46,-19 -70,-13 -70,16 0,31 -20,24 -26,-10 -4,-16 -10,-30 -14,-30 -5,0 -15,-3 -24,-6 -11,-4 -16,0 -16,12 0,14 -3,15 -12,6 -7,-7 -21,-12 -31,-12 -35,0 1,30 44,36 22,4 39,11 39,16 0,6 -41,7 -105,2 l -104,-7 -10,26 c -6,16 -20,27 -40,32 -48,10 -27,23 49,31 39,4 73,11 77,17 4,6 -8,7 -33,3 -27,-5 -34,-4 -24,3 26,17 90,24 105,11 15,-12 17,-10 19,18 2,19 180,119 226,127 21,4 46,2 56,-4 11,-6 36,-17 57,-25 35,-14 37,-17 37,-60 v -45 l 69,-21 c 37,-11 71,-20 75,-20 4,0 -13,24 -38,52 -25,29 -46,59 -46,68 1,12 3,11 11,-2 6,-12 22,-18 46,-18 28,0 33,-3 24,-13 -8,-11 -3,-19 26,-38 44,-28 47,-40 16,-54 -26,-11 -30,-25 -8,-25 16,0 85,57 85,71 0,5 -7,9 -14,9 -14,0 -66,42 -66,53 0,3 8,3 18,0 10,-2 24,3 31,11 18,21 44,20 93,-5 22,-11 77,-26 122,-33 44,-7 89,-17 100,-21 18,-8 18,-7 1,18 l -17,27 38,16 c 25,10 51,14 74,10 19,-4 73,-8 120,-9 59,-1 94,-7 110,-18 17,-11 32,-13 45,-8 11,4 50,5 86,2 109,-9 159,17 159,83 0,26 -1,26 -18,11 -19,-18 -62,-23 -62,-9 0,5 11,14 25,20 17,8 25,20 25,37 0,25 -1,25 -25,9 -19,-12 -37,-15 -73,-10 -31,4 -66,1 -98,-9 -59,-18 -64,-18 -64,-3 0,26 32,47 61,41 23,-4 28,-2 24,9 -5,12 4,17 34,22 22,3 43,11 46,16 10,16 -18,12 -107,-16 -64,-20 -86,-24 -100,-15 -24,15 -25,14 -33,-11 l -8,-23 -4,23 c -3,16 -9,22 -20,18 -8,-3 -27,-9 -41,-13 -15,-3 -47,-19 -72,-34 -36,-22 -62,-29 -130,-34 l -85,-7 38,27 c 25,17 35,31 29,37 -16,16 -62,-3 -78,-33 -18,-36 -31,-38 -111,-17 -41,10 -59,28 -29,28 7,0 19,7 26,15 11,14 5,15 -56,9 -62,-5 -72,-4 -94,15 -20,19 -22,24 -10,31 8,6 21,10 28,10 32,0 252,95 257,111 7,21 111,117 161,147 40,25 95,25 118,2 8,-9 -2,-10 -38,-4 -72,10 -50,-11 26,-25 35,-6 75,-14 91,-17 21,-4 27,-2 27,11 0,14 8,16 63,10 59,-6 66,-5 93,18 34,30 27,46 -9,22 -32,-20 -86,-23 -98,-4 -11,19 9,25 147,44 128,18 246,54 301,91 20,13 41,24 47,24 6,0 4,-5 -4,-10 -12,-8 -9,-10 11,-10 28,0 59,27 59,52 0,16 -39,28 -89,28 -26,0 -26,0 7,20 17,11 32,27 32,35 0,21 -36,55 -58,55 -38,0 -30,14 21,37 28,13 56,31 60,39 4,8 14,14 21,14 8,0 17,11 20,25 5,21 12,25 46,25 21,0 41,4 45,9 11,18 -12,20 -71,6 -32,-7 -60,-12 -62,-11 -1,2 22,20 53,41 30,21 55,42 55,46 0,24 -26,16 -64,-19 -52,-48 -83,-66 -91,-53 -3,5 -1,12 5,16 5,3 10,13 10,21 0,22 -41,-2 -47,-28 -5,-18 -6,-18 -29,3 -19,18 -30,21 -62,15 -41,-6 -71,11 -57,34 10,16 25,12 19,-5 -7,-17 11,-21 21,-5 3,6 21,10 39,10 17,0 37,5 43,11 6,6 32,11 59,12 47,2 49,1 46,-23 l -3,-25 21,21 c 20,19 20,22 4,60 -21,49 -33,57 -62,38 -34,-22 -52,-3 -52,53 0,32 -4,44 -12,40 -7,-3 -21,-8 -30,-12 -13,-5 -20,0 -28,20 -14,37 -35,26 -35,-19 0,-39 -23,-63 -51,-52 -19,7 -18,36 2,36 13,0 14,3 5,14 -9,11 -7,20 14,40 28,28 25,51 -6,41 -10,-4 -26,-2 -35,3 -15,9 -15,11 5,22 20,10 22,17 16,51 -5,28 -3,39 6,39 7,0 10,3 6,6 -3,4 -20,2 -36,-4 -47,-17 -37,3 19,37 38,23 50,37 50,55 0,14 5,28 10,31 18,11 10,24 -25,41 -36,17 -64,11 -32,-7 19,-11 23,-29 5,-29 -7,0 -25,-12 -40,-27 l -28,-27 5,32 c 3,18 7,46 10,64 l 5,32 -34,-33 c -27,-26 -37,-31 -48,-22 -7,7 -22,18 -33,26 -20,15 -20,15 3,21 14,4 22,14 22,29 0,16 8,26 28,33 45,16 91,59 85,82 -5,19 -6,19 -35,-5 -34,-28 -68,-33 -68,-9 0,12 -6,15 -25,10 -14,-4 -25,-3 -25,1 0,9 136,53 162,53 24,0 48,11 48,22 0,5 9,23 21,39 30,42 19,54 -21,24 -29,-21 -36,-23 -38,-10 -5,25 -23,17 -35,-15 l -11,-30 -28,27 c -23,22 -42,28 -95,34 -81,8 -89,6 -110,-35 -9,-17 -23,-36 -32,-43 -19,-15 -65,-17 -56,-3 3,6 14,10 24,10 29,0 47,28 33,51 -7,10 -12,26 -12,34 0,8 -4,15 -10,15 -23,0 -8,19 20,25 30,7 47,21 36,32 -3,3 -12,1 -19,-5 -19,-16 -27,-5 -27,35 0,19 -5,43 -11,54 -28,53 22,80 196,104 125,18 165,28 165,45 0,13 -23,13 -37,-1 -15,-15 -33,-3 -33,22 0,27 -15,24 -40,-8 -19,-24 -31,-28 -115,-38 -52,-6 -95,-8 -95,-5 0,12 52,31 70,25 11,-3 20,0 24,10 3,8 14,15 25,15 11,0 26,3 35,6 22,8 79,94 63,95 -7,1 -17,2 -24,3 -6,0 -25,20 -42,44 -36,48 -53,53 -69,17 -13,-28 -34,-34 -30,-8 2,10 -4,19 -15,21 -12,2 -22,-7 -31,-29 -13,-31 -14,-31 -25,-11 -6,11 -11,35 -11,52 0,24 -6,33 -27,41 -23,8 -30,6 -59,-22 -19,-18 -35,-31 -36,-28 -2,2 -8,13 -14,24 -14,26 -52,30 -98,11 -20,-8 -44,-12 -53,-9 -15,6 -15,5 0,-17 19,-27 23,-60 7,-60 -5,0 -10,7 -10,15 0,11 -11,15 -39,15 -22,0 -43,5 -46,10 -8,13 -35,13 -35,-1 0,-6 7,-17 15,-25 20,-20 20,-64 0,-64 -8,0 -15,4 -15,10 0,5 -18,22 -40,36 -22,14 -42,35 -45,45 -7,21 -30,25 -41,8 -4,-7 1,-16 10,-21 9,-5 21,-21 26,-34 6,-14 18,-24 30,-24 11,0 20,-5 20,-11 0,-5 16,-17 35,-25 24,-10 35,-21 35,-35 0,-20 -36,-89 -47,-89 -11,0 -33,30 -33,45 0,9 -5,13 -10,10 -17,-11 -40,15 -40,44 0,28 -24,70 -34,61 -3,-3 1,-24 9,-45 13,-36 21,-125 11,-125 -2,0 -17,7 -32,15 -36,19 -64,19 -64,1 0,-7 -7,-19 -15,-26 -13,-11 -19,-9 -37,9 -17,19 -19,27 -9,47 6,14 11,33 11,43 0,10 7,24 15,31 8,7 15,16 15,21 0,15 -40,10 -56,-6 -19,-18 -54,-3 -61,27 -6,19 -6,19 -28,-2 l -21,-20 -22,23 c -20,21 -21,27 -10,58 15,45 38,62 130,100 71,28 108,53 96,64 -6,7 -246,-102 -276,-125 -13,-11 -34,-20 -45,-20 -21,0 -20,0 1,20 12,12 22,24 22,29 0,4 27,23 61,41 65,37 110,76 52,47 -40,-21 -57,-21 -73,-2 -7,8 -17,15 -22,15 -6,0 -5,-6 2,-15 13,-16 6,-35 -15,-35 -8,0 -25,-11 -39,-25 -27,-27 -56,-33 -56,-11 0,7 -7,19 -15,26 -20,17 -19,27 4,33 13,3 21,15 23,38 3,35 9,40 103,81 28,12 53,24 58,26 4,2 7,-11 7,-28 0,-41 21,-35 32,8 7,25 21,39 63,63 51,29 87,60 54,47 -52,-22 -52,-22 -45,-1 8,24 -22,66 -31,43 -20,-52 -150,-140 -230,-156 l -31,-6 5,43 c 3,24 8,46 10,49 4,4 19,-16 26,-34 4,-11 11,-8 82,33 28,16 65,36 83,45 32,15 41,41 26,80 -8,22 -24,20 -24,-2 0,-20 -36,-56 -94,-95 -45,-30 -56,-27 -56,13 0,22 -4,28 -15,24 -9,-4 -19,3 -26,20 -14,30 -35,33 -61,9 -17,-15 -19,-15 -33,3 -15,19 -15,19 -30,-1 -20,-25 -16,-59 7,-63 10,-2 31,6 47,17 16,12 34,21 40,21 15,0 14,-37 -4,-98 -9,-29 -15,-59 -13,-68 2,-9 -5,-21 -15,-28 -15,-9 -23,-4 -58,37 -22,26 -47,47 -55,47 -8,0 -14,5 -14,10 0,6 10,10 23,10 l 22,1 -22,18 c -24,20 -30,46 -13,56 21,13 9,33 -22,38 -20,3 -50,-2 -75,-13 -50,-22 -53,-17 -15,23 l 27,29 -23,18 c -12,10 -27,20 -33,22 -7,2 -7,12 1,30 9,19 9,31 1,47 -14,24 -31,19 -31,-9 0,-10 -4,-22 -10,-25 -5,-3 -10,3 -10,14 0,11 -4,23 -10,26 -5,3 -10,15 -10,26 0,20 -15,26 -25,9 -12,-20 -35,11 -35,46 0,37 -10,43 -30,19 -18,-21 -47,-19 -53,5 -5,20 -27,28 -27,10 0,-5 -7,-10 -16,-10 -12,0 -14,5 -8,18 4,9 9,34 12,54 6,54 -19,61 -64,17 -22,-21 -34,-28 -34,-18 0,8 5,20 12,27 22,22 -1,25 -36,4 -32,-19 -34,-19 -39,-3 -3,14 -12,17 -34,14 -26,-4 -33,0 -53,34 -13,21 -24,34 -26,28 -1,-5 -5,-22 -8,-36 -8,-39 -34,-44 -59,-13 -31,40 -69,52 -131,42 -46,-8 -60,-7 -97,11 -58,28 -66,27 -107,-16 l -35,-38 5,29 c 3,17 4,36 1,43 -6,15 -43,18 -43,3 0,-5 -15,-10 -34,-10 -33,0 -53,-20 -40,-41 8,-14 -9,-11 -34,7 -12,8 -22,22 -22,30 0,17 12,18 28,2 8,-8 12,-8 12,-1 0,16 -24,32 -58,39 -30,6 -33,4 -47,-30 -20,-48 -41,-42 -59,17 -9,30 -33,19 -40,-18 -8,-40 -19,-44 -40,-13 -11,16 -12,26 -5,41 9,15 7,23 -6,36 -17,17 -23,11 -86,-67 -16,-19 -33,-9 -39,23 -3,15 -12,31 -20,35 -8,4 -25,12 -37,18 -37,19 -46,15 -40,-18 z m -223,-120 c 0,-5 -4,-10 -10,-10 -5,0 -10,5 -10,10 0,6 5,10 10,10 6,0 10,-4 10,-10 z m -100,-10 c 0,-5 -4,-10 -10,-10 -5,0 -7,-14 -4,-32 l 6,-33 -28,28 c -28,27 -28,28 -10,43 23,16 46,19 46,4 z m 78,-19 c 21,-13 10,-46 -17,-49 -25,-4 -41,12 -41,41 0,18 34,23 58,8 z m 1312,-11 c 0,-5 -4,-10 -10,-10 -5,0 -10,5 -10,10 0,6 5,10 10,10 6,0 10,-4 10,-10 z m 222,-22 c -7,-7 -12,-8 -12,-2 0,14 12,26 19,19 2,-3 -1,-11 -7,-17 z m -1437,-18 c 3,-6 -3,-10 -13,-10 -21,0 -46,23 -36,33 8,7 40,-8 49,-23 z m -330,-10 c 23,-26 28,-62 7,-58 -21,4 -56,54 -48,67 10,16 21,14 41,-9 z m 389,-35 c -4,-8 -1,-29 5,-47 9,-25 8,-35 -3,-46 -12,-12 -15,-11 -21,7 -3,11 -11,21 -16,21 -14,0 -11,25 8,58 17,30 37,35 27,7 z m 326,-31 c 0,-8 -4,-12 -10,-9 -5,3 -10,13 -10,21 0,8 5,12 10,9 6,-3 10,-13 10,-21 z m -570,-29 c 7,-8 8,-15 2,-15 -5,0 -15,7 -22,15 -7,8 -8,15 -2,15 5,0 15,-7 22,-15 z m -82,-59 c 3,-15 -2,-16 -31,-11 -29,6 -35,4 -40,-14 -6,-23 -37,-29 -37,-8 0,8 9,22 20,32 11,10 20,29 20,43 v 25 l 33,-25 c 17,-14 34,-33 35,-42 z m 212,2 c -1,-28 -2,-30 -11,-15 -6,10 -8,25 -5,33 9,24 16,16 16,-18 z m 250,22 c 0,-5 -7,-10 -15,-10 -8,0 -15,5 -15,10 0,6 7,10 15,10 8,0 15,-4 15,-10 z m -820,-20 c 0,-5 -4,-10 -9,-10 -6,0 -13,5 -16,10 -3,6 1,10 9,10 9,0 16,-4 16,-10 z m 490,-32 c 0,-12 -6,-9 -26,13 -19,22 -19,22 4,8 12,-8 22,-17 22,-21 z m -432,-11 c 2,-11 -3,-17 -17,-17 -23,0 -35,15 -26,31 10,15 39,6 43,-14 z m 71,-3 c 3,-16 1,-17 -13,-5 -19,16 -21,34 -3,29 6,-3 14,-13 16,-24 z m 2106,-4 c -3,-5 -10,-10 -16,-10 -5,0 -9,5 -9,10 0,6 7,10 16,10 8,0 12,-4 9,-10 z m -2135,-30 c 0,-5 -4,-10 -10,-10 -5,0 -10,5 -10,10 0,6 5,10 10,10 6,0 10,-4 10,-10 z m 136,-27 c -10,-10 -19,5 -10,18 6,11 8,11 12,0 2,-7 1,-15 -2,-18 z m -186,7 c 0,-5 -4,-10 -10,-10 -5,0 -10,5 -10,10 0,6 5,10 10,10 6,0 10,-4 10,-10 z m 100,-31 c 0,-11 -4,-17 -10,-14 -5,3 -10,13 -10,21 0,8 5,14 10,14 6,0 10,-9 10,-21 z m 136,-6 c -7,-7 -26,7 -26,19 0,6 6,6 15,-2 9,-7 13,-15 11,-17 z m 1131,-65 c -3,-8 -6,-5 -6,6 -1,11 2,17 5,13 3,-3 4,-12 1,-19 z m -757,-79 c 0,-5 -4,-9 -10,-9 -5,0 -10,7 -10,16 0,8 5,12 10,9 6,-3 10,-10 10,-16 z M 5340,3920 c 0,-5 -2,-10 -4,-10 -3,0 -8,5 -11,10 -3,6 -1,10 4,10 6,0 11,-4 11,-10 z m 2347,-22 c -3,-8 -6,-5 -6,6 -1,11 2,17 5,13 3,-3 4,-12 1,-19 z m -1922,-18 c 3,-5 -1,-10 -10,-10 -9,0 -13,5 -10,10 3,6 8,10 10,10 2,0 7,-4 10,-10 z m 1510,0 c 3,-5 1,-10 -4,-10 -6,0 -11,5 -11,10 0,6 2,10 4,10 3,0 8,-4 11,-10 z m -1920,-20 c 14,-16 15,-20 4,-20 -16,0 -39,19 -39,32 0,14 16,9 35,-12 z m 1765,-16 c 0,-8 -4,-12 -10,-9 -5,3 -10,10 -10,16 0,5 5,9 10,9 6,0 10,-7 10,-16 z m 1546,-11 c -10,-10 -19,5 -10,18 6,11 8,11 12,0 2,-7 1,-15 -2,-18 z m 971,-58 c 6,-11 8,-34 6,-51 -4,-25 -9,-31 -24,-27 -14,4 -19,0 -19,-13 0,-17 -1,-17 -17,-2 -18,19 -20,57 -3,117 l 11,42 18,-23 c 10,-13 23,-32 28,-43 z m -892,35 c -10,-11 -20,-18 -23,-15 -7,6 18,35 31,35 5,0 2,-9 -8,-20 z m 985,-6 c 0,-8 -5,-12 -10,-9 -6,4 -8,11 -5,16 9,14 15,11 15,-7 z m -4050,-15 c 0,-11 -4,-17 -10,-14 -5,3 -10,13 -10,21 0,8 5,14 10,14 6,0 10,-9 10,-21 z m 1584,-1 c 9,-12 13,-24 11,-27 -6,-5 -45,29 -45,41 0,15 19,8 34,-14 z m -1672,0 c -9,-9 -15,-9 -24,0 -9,9 -7,12 12,12 19,0 21,-3 12,-12 z m 3246,-25 c -10,-2 -28,-2 -40,0 -13,2 -5,4 17,4 22,1 32,-1 23,-4 z m -1188,-13 c 0,-5 -7,-10 -16,-10 -8,0 -12,5 -9,10 3,6 10,10 16,10 5,0 9,-4 9,-10 z m 1110,2 c 0,-5 -11,-14 -25,-20 -31,-14 -33,1 -2,16 28,14 27,13 27,4 z m 977,-4 c 18,-24 21,-57 6,-77 -16,-24 -43,-28 -43,-7 0,8 -7,22 -16,31 -15,15 -15,18 6,41 27,27 34,29 47,12 z m -3097,-23 c 13,-14 19,-25 13,-25 -5,0 -20,11 -33,25 -13,14 -19,25 -13,25 5,0 20,-11 33,-25 z m -780,0 c 0,-8 -4,-15 -10,-15 -5,0 -10,7 -10,15 0,8 5,15 10,15 6,0 10,-7 10,-15 z m 1144,-32 c -9,-37 -11,-38 -30,-23 -14,12 -13,15 8,32 30,23 30,23 22,-9 z m 2510,2 c -11,-18 -14,-35 -9,-64 4,-22 3,-47 -2,-56 -9,-15 -11,-15 -23,0 -12,14 -12,18 1,25 12,8 12,13 1,30 -14,22 -10,32 21,68 27,29 31,28 11,-3 z m 330,16 c 11,-17 -5,-38 -43,-59 -52,-30 -58,-28 -27,9 14,17 26,37 26,45 0,15 35,19 44,5 z m -936,-18 c -2,-9 -17,-20 -34,-25 -17,-4 -37,-15 -44,-23 -12,-14 -40,-21 -40,-10 0,23 36,55 61,55 15,0 31,5 34,10 10,16 27,11 23,-7 z m -1418,-14 c 0,-5 -4,-9 -10,-9 -5,0 -10,7 -10,16 0,8 5,12 10,9 6,-3 10,-10 10,-16 z m -2195,-9 c -3,-5 -10,-10 -16,-10 -5,0 -9,5 -9,10 0,6 7,10 16,10 8,0 12,-4 9,-10 z m 1565,-54 c -1,-21 -1,-21 -15,-2 -8,11 -15,29 -15,40 1,21 1,21 15,2 8,-11 15,-29 15,-40 z m 1080,34 c 0,-11 -7,-20 -15,-20 -15,0 -21,21 -8,33 12,13 23,7 23,-13 z m 536,-17 c -11,-11 -19,6 -11,24 8,17 8,17 12,0 3,-10 2,-21 -1,-24 z m 1494,29 c 0,-13 -12,-22 -22,-16 -10,6 -1,24 13,24 5,0 9,-4 9,-8 z m -2850,-48 c 0,-14 -4,-22 -10,-19 -5,3 -10,17 -10,31 0,14 4,22 10,19 6,-3 10,-17 10,-31 z m 2456,-5 c -11,-70 -38,-101 -50,-61 -7,21 29,102 46,102 7,0 8,-14 4,-41 z m 274,23 c 0,-13 -12,-22 -22,-16 -10,6 -1,24 13,24 5,0 9,-4 9,-8 z m -4785,-12 c 3,-5 -1,-10 -10,-10 -9,0 -13,5 -10,10 3,6 8,10 10,10 2,0 7,-4 10,-10 z m 2185,0 c 8,-5 12,-12 9,-15 -8,-8 -39,5 -39,16 0,11 11,11 30,-1 z m 2380,-19 c 0,-22 -16,-36 -24,-22 -8,12 3,41 15,41 5,0 9,-9 9,-19 z m -2426,-7 c 4,-9 4,-19 1,-22 -6,-6 -35,18 -35,29 0,16 28,10 34,-7 z m 1591,6 c 3,-5 -3,-10 -15,-10 -12,0 -18,5 -15,10 3,6 10,10 15,10 5,0 12,-4 15,-10 z m 986,-23 c -8,-8 -11,-7 -11,4 0,20 13,34 18,19 3,-7 -1,-17 -7,-23 z m -3224,-3 c -7,-7 -37,7 -37,17 0,6 9,5 21,-1 11,-7 19,-14 16,-16 z m 143,5 c 0,-6 -4,-7 -10,-4 -5,3 -10,11 -10,16 0,6 5,7 10,4 6,-3 10,-11 10,-16 z m 828,9 c -6,-18 -28,-21 -28,-4 0,9 7,16 16,16 9,0 14,-5 12,-12 z m 1931,-49 c 15,-34 27,-49 41,-49 10,0 22,-4 25,-10 3,-5 0,-10 -8,-10 -7,0 -24,-11 -37,-25 -30,-32 -40,-32 -40,4 0,21 -6,30 -21,34 -17,4 -20,11 -16,28 3,12 1,31 -4,41 -7,14 -7,23 1,33 18,22 36,8 59,-46 z m -1106,18 c -9,-35 -34,-57 -65,-57 -31,0 -38,20 -14,39 11,9 20,10 35,1 20,-10 26,-7 22,14 -1,5 0,15 3,23 9,22 25,5 19,-20 z m 59,-3 c -5,-26 -10,-30 -23,-17 -14,14 -3,46 14,40 6,-2 10,-13 9,-23 z m -172,7 c 0,-12 -20,-25 -27,-18 -7,7 6,27 18,27 5,0 9,-4 9,-9 z m -1300,-27 c 0,-16 -16,-19 -25,-4 -8,13 4,32 16,25 5,-4 9,-13 9,-21 z m 510,5 c 0,-6 -4,-7 -10,-4 -5,3 -10,11 -10,16 0,6 5,7 10,4 6,-3 10,-11 10,-16 z m 2291,1 c -22,-19 -51,-27 -51,-14 0,12 35,33 55,33 19,0 19,-1 -4,-19 z m -3461,-31 c 0,-5 -4,-9 -10,-9 -5,0 -10,7 -10,16 0,8 5,12 10,9 6,-3 10,-10 10,-16 z m 860,1 c 16,-16 18,-25 10,-40 -13,-25 -50,-27 -50,-2 0,9 -3,27 -6,40 -8,29 18,30 46,2 z m -346,-29 c -6,-6 -24,19 -24,34 1,6 7,1 15,-9 8,-11 12,-22 9,-25 z m 200,22 c 4,-9 3,-20 -1,-24 -13,-13 -37,7 -30,25 8,21 23,20 31,-1 z m 1226,-12 c 0,-5 -7,-11 -15,-15 -15,-5 -20,5 -8,17 9,10 23,9 23,-2 z m 346,-5 c 3,-8 -4,-28 -16,-44 -18,-24 -32,-31 -72,-35 -88,-11 -110,22 -43,63 42,26 63,27 44,3 -7,-10 -2,-8 11,5 28,25 68,29 76,8 z m 779,-6 c 3,-5 1,-10 -4,-10 -6,0 -11,5 -11,10 0,6 2,10 4,10 3,0 8,-4 11,-10 z m 409,-34 c -8,-20 -34,-21 -34,-1 0,8 5,15 10,15 6,0 10,8 10,18 1,16 1,16 10,0 6,-9 7,-23 4,-32 z m -3094,9 c 7,-8 8,-15 2,-15 -5,0 -15,7 -22,15 -7,8 -8,15 -2,15 5,0 15,-7 22,-15 z m -390,-10 c 0,-8 -4,-15 -10,-15 -5,0 -10,7 -10,15 0,8 5,15 10,15 6,0 10,-7 10,-15 z m 195,4 c 10,-15 -1,-23 -20,-15 -9,3 -13,10 -10,16 8,13 22,13 30,-1 z m 1082,-9 c -3,-13 1,-21 14,-25 10,-4 19,-10 19,-14 0,-19 -15,-18 -44,2 -17,12 -33,23 -36,25 -6,5 31,32 43,32 5,0 7,-9 4,-20 z m 2133,11 c 0,-14 -57,-71 -71,-71 -7,0 5,18 26,40 42,43 45,45 45,31 z m -1376,-20 c -18,-11 -35,-24 -39,-30 -3,-6 -10,-9 -15,-6 -5,3 -19,1 -30,-5 -22,-12 -23,-10 -14,15 9,21 59,44 99,45 h 30 z m 1280,4 c -7,-17 -35,-35 -56,-35 -7,0 1,11 17,25 35,28 47,31 39,10 z m -3244,-5 c 0,-5 -4,-10 -10,-10 -5,0 -10,5 -10,10 0,6 5,10 10,10 6,0 10,-4 10,-10 z m 890,-9 c -11,-21 -30,-37 -30,-25 0,8 30,44 37,44 2,0 -1,-9 -7,-19 z m 170,-1 c 0,-11 -4,-20 -10,-20 -5,0 -10,9 -10,20 0,11 5,20 10,20 6,0 10,-9 10,-20 z m -556,-22 c -4,-6 -10,-5 -15,3 -14,22 -10,33 6,19 8,-7 12,-17 9,-22 z m 2566,17 c 0,-15 -43,-12 -48,3 -3,10 4,13 22,10 15,-2 26,-7 26,-13 z m -2880,-15 c 0,-5 -4,-10 -10,-10 -5,0 -10,5 -10,10 0,6 5,10 10,10 6,0 10,-4 10,-10 z m 2980,-4 c 0,-17 -14,-29 -23,-20 -8,8 3,34 14,34 5,0 9,-6 9,-14 z m -2580,0 c 0,-3 -4,-8 -10,-11 -5,-3 -10,-1 -10,4 0,6 5,11 10,11 6,0 10,-2 10,-4 z m 2840,-5 c 0,-16 -48,-67 -55,-59 -4,4 3,21 15,37 21,30 40,40 40,22 z m -3356,-23 c 16,-26 -16,-57 -38,-38 -9,7 -16,23 -16,37 0,19 4,24 21,21 12,-2 27,-11 33,-20 z m 156,-8 c 0,-5 -7,-10 -16,-10 -8,0 -12,5 -9,10 3,6 10,10 16,10 5,0 9,-4 9,-10 z m 500,-16 c 0,-8 -4,-12 -10,-9 -5,3 -10,10 -10,16 0,5 5,9 10,9 6,0 10,-7 10,-16 z m 2600,0 c 0,-8 -4,-12 -10,-9 -5,3 -10,10 -10,16 0,5 5,9 10,9 6,0 10,-7 10,-16 z m -1210,-12 c 0,-4 -9,-13 -20,-20 -22,-13 -27,-3 -8,16 14,14 28,16 28,4 z m -2259,-18 c 11,-14 10,-15 -11,-12 -13,1 -25,9 -28,16 -5,17 23,15 39,-4 z m 299,-8 c 11,-29 30,-43 30,-22 0,9 5,16 10,16 6,0 10,-9 10,-20 0,-33 -90,-123 -107,-106 -10,10 19,36 40,36 20,0 19,2 -6,28 -15,15 -30,42 -33,60 -6,30 -5,32 20,32 19,0 29,-7 36,-24 z m 1070,15 c 0,-12 -20,-25 -27,-18 -7,7 6,27 18,27 5,0 9,-4 9,-9 z m 936,-26 c -20,-19 -42,-35 -51,-35 -8,0 -15,-4 -15,-10 0,-5 -6,-10 -12,-10 -17,1 83,90 100,90 7,0 -3,-16 -22,-35 z m 1134,25 c 0,-13 -61,-40 -73,-33 -10,6 42,43 61,43 6,0 12,-5 12,-10 z m -2946,-39 c -6,-6 -24,19 -24,34 1,6 7,1 15,-9 8,-11 12,-22 9,-25 z m 304,4 c 8,-18 8,-26 0,-31 -14,-9 -38,24 -31,42 8,21 18,17 31,-11 z m 2750,6 c -15,-21 -73,-71 -82,-71 -3,0 -1,10 6,23 23,40 51,67 70,67 17,0 17,-2 6,-19 z m -3482,-28 c -6,-14 -9,-15 -16,-4 -11,19 -1,46 13,32 5,-5 7,-18 3,-28 z m 140,-8 c 8,-13 14,-34 11,-47 -4,-21 -4,-21 -6,3 -1,24 -18,40 -44,43 -11,1 -26,29 -21,38 8,12 42,-9 60,-37 z m 808,23 c 9,-12 16,-28 16,-34 0,-7 16,-35 35,-64 19,-29 35,-57 35,-63 0,-15 -45,29 -61,61 -7,15 -24,37 -36,49 -23,22 -32,73 -14,73 6,0 17,-10 25,-22 z m 111,-7 c 3,-5 1,-12 -5,-16 -5,-3 -10,1 -10,9 0,18 6,21 15,7 z m 2307,-13 c -7,-7 -12,-8 -12,-2 0,14 12,26 19,19 2,-3 -1,-11 -7,-17 z m -4961,-11 c -13,-13 -26,-3 -16,12 3,6 11,8 17,5 6,-4 6,-10 -1,-17 z m 2086,-25 c -6,-54 -35,-132 -48,-132 -14,0 -11,24 6,46 16,22 20,58 5,49 -6,-3 -15,6 -20,20 -13,35 -13,38 5,31 9,-3 19,3 25,14 20,37 33,23 27,-28 z m 319,22 c -11,-7 -22,-12 -25,-9 -2,3 4,12 15,19 10,8 21,12 24,9 3,-2 -4,-11 -14,-19 z m 1519,16 c -3,-5 -10,-10 -16,-10 -5,0 -9,5 -9,10 0,6 7,10 16,10 8,0 12,-4 9,-10 z m -1966,-33 c 0,-21 -1,-21 -9,-2 -12,28 -12,37 0,30 6,-3 10,-16 9,-28 z m -1919,8 c 0,-8 -4,-15 -10,-15 -5,0 -10,7 -10,15 0,8 5,15 10,15 6,0 10,-7 10,-15 z m 4195,4 c 10,-15 -1,-23 -20,-15 -9,3 -13,10 -10,16 8,13 22,13 30,-1 z m 1103,-9 c -15,-23 -25,-25 -30,-8 -4,10 -14,8 -41,-7 -43,-23 -62,-12 -28,16 15,12 39,19 67,19 42,0 43,-1 32,-20 z m 112,10 c 0,-5 -7,-10 -15,-10 -8,0 -15,5 -15,10 0,6 7,10 15,10 8,0 15,-4 15,-10 z m -1290,-36 c -18,-21 -24,-10 -9,18 8,14 14,18 17,10 2,-7 -2,-19 -8,-28 z m 165,26 c -3,-5 -11,-10 -16,-10 -6,0 -7,5 -4,10 3,6 11,10 16,10 6,0 7,-4 4,-10 z m -3965,-10 c 0,-5 -5,-10 -11,-10 -5,0 -7,5 -4,10 3,6 8,10 11,10 2,0 4,-4 4,-10 z m 46,-17 c -7,-7 -26,7 -26,19 0,6 6,6 15,-2 9,-7 13,-15 11,-17 z m 2082,4 c 4,-19 -6,-21 -27,-8 -16,10 -5,34 12,28 7,-2 13,-11 15,-20 z m 1367,-14 c -9,-20 -17,-37 -18,-38 -1,-1 -17,-13 -35,-28 -50,-40 -60,-33 -18,13 20,22 36,47 36,55 0,13 25,34 43,35 4,0 0,-17 -8,-37 z m 85,2 c -7,-8 -17,-15 -23,-15 -5,0 -2,9 8,20 21,23 35,19 15,-5 z m -1609,-4 c 20,-16 22,-21 9,-35 -38,-47 -70,-40 -70,15 0,44 22,51 61,20 z m 1384,9 c -3,-5 -10,-10 -16,-10 -5,0 -9,5 -9,10 0,6 7,10 16,10 8,0 12,-4 9,-10 z m -3675,-10 c 0,-5 -7,-10 -15,-10 -8,0 -15,5 -15,10 0,6 7,10 15,10 8,0 15,-4 15,-10 z m 1124,4 c 17,-6 22,-24 8,-24 -5,0 -17,7 -28,15 -19,15 -8,20 20,9 z m 986,-3 c 0,-12 -20,-25 -27,-18 -7,7 6,27 18,27 5,0 9,-4 9,-9 z m -450,-22 c 12,-22 8,-35 -8,-25 -13,8 -22,46 -11,46 4,0 13,-9 19,-21 z m 2535,-27 c -8,-38 -26,-54 -45,-41 -13,8 -13,11 2,22 9,7 20,26 24,41 9,38 28,17 19,-22 z m -4085,34 c 0,-2 3,-11 6,-20 4,-10 1,-16 -9,-16 -17,0 -40,24 -30,33 7,8 33,10 33,3 z m 2360,-31 c 42,-26 66,-53 56,-62 -4,-4 -16,-2 -27,5 -17,11 -21,9 -31,-15 -16,-37 -15,-36 -28,-28 -8,5 -7,14 4,31 21,30 20,34 -4,34 -11,0 -27,-11 -36,-25 -9,-14 -23,-25 -30,-25 -20,0 -17,14 6,35 16,14 19,26 14,53 -6,32 -5,34 17,27 13,-5 40,-18 59,-30 z m -526,9 c 8,-22 2,-27 -23,-19 -12,4 -18,12 -14,21 7,19 29,18 37,-2 z m -100,-15 c 32,-25 33,-35 2,-43 -14,-3 -28,-15 -31,-26 -3,-11 -11,-20 -17,-20 -21,0 -48,33 -48,60 0,51 47,66 94,29 z m 3201,11 c -3,-5 -13,-10 -21,-10 -8,0 -12,5 -9,10 3,6 13,10 21,10 8,0 12,-4 9,-10 z m 155,-11 c 7,-11 8,-24 4,-27 -4,-4 -9,-1 -11,6 -6,16 -33,16 -33,-1 0,-7 -7,-22 -15,-33 -11,-13 -14,-14 -13,-4 3,13 -12,14 -97,12 -67,-3 -97,-1 -90,6 8,8 196,56 237,61 4,1 12,-8 18,-20 z m -4920,4 c -1,-19 -19,-35 -34,-30 -21,8 -20,24 2,30 28,7 32,7 32,0 z m 4215,-2 c 7,-12 -12,-24 -25,-16 -11,7 -4,25 10,25 5,0 11,-4 15,-9 z m -2288,-38 c -3,-10 -5,-4 -5,12 0,17 2,24 5,18 2,-7 2,-21 0,-30 z m 162,16 c -16,-10 -23,-4 -14,10 3,6 11,8 17,5 6,-4 5,-9 -3,-15 z m -1338,-5 c 11,-14 9,-15 -21,-12 -18,2 -35,9 -38,16 -6,18 43,15 59,-4 z m -821,-25 c 0,-11 -27,-12 -34,0 -3,4 -3,11 0,14 8,8 34,-3 34,-14 z m 1748,-28 c 42,-73 24,-121 -45,-121 -27,-1 -27,-1 -9,-15 19,-15 19,-15 -2,-15 -30,0 -55,42 -50,85 4,39 1,43 -18,18 -7,-10 -16,-15 -20,-11 -11,12 91,109 108,103 8,-3 25,-23 36,-44 z m 1376,15 c -10,-8 -21,-12 -23,-10 -3,2 4,11 15,18 10,8 21,12 23,10 3,-2 -4,-11 -15,-18 z m -3274,4 c 0,-5 -7,-10 -15,-10 -8,0 -15,5 -15,10 0,6 7,10 15,10 8,0 15,-4 15,-10 z m 795,0 c -3,-5 -10,-10 -16,-10 -5,0 -9,5 -9,10 0,6 7,10 16,10 8,0 12,-4 9,-10 z m 50,0 c 3,-5 2,-10 -4,-10 -5,0 -13,5 -16,10 -3,6 -2,10 4,10 5,0 13,-4 16,-10 z m 2612,4 c -3,-3 -12,-4 -19,-1 -8,3 -5,6 6,6 11,1 17,-2 13,-5 z m 1433,-9 35,-13 -65,-1 c -59,0 -63,1 -46,14 23,18 30,18 76,0 z m -2365,-5 c -3,-5 -11,-10 -16,-10 -6,0 -7,5 -4,10 3,6 11,10 16,10 6,0 7,-4 4,-10 z m -2385,-26 c 0,-8 -7,-14 -15,-14 -8,0 -15,-5 -15,-11 0,-5 -4,-7 -10,-4 -14,9 -12,42 3,48 18,6 37,-3 37,-19 z m 3870,18 c 0,-14 -39,-46 -47,-39 -3,4 2,16 12,27 19,21 35,26 35,12 z m 1180,-6 c 0,-17 -51,-62 -81,-71 -14,-5 -25,-1 -34,12 -22,28 -18,42 13,48 15,3 38,10 52,14 38,13 50,12 50,-3 z m -5149,-13 c 12,-15 12,-16 -4,-10 -10,4 -23,7 -28,7 -6,0 -7,5 -4,10 9,15 21,12 36,-7 z m 2059,7 c 0,-5 -7,-10 -15,-10 -8,0 -15,5 -15,10 0,6 7,10 15,10 8,0 15,-4 15,-10 z m 2040,6 c 0,-7 -67,-46 -79,-46 -20,0 -12,27 12,38 22,11 67,16 67,8 z m 91,-16 c -13,-11 -28,-20 -35,-20 -6,1 0,10 13,20 13,11 28,20 35,20 6,-1 0,-10 -13,-20 z m 762,13 c -7,-2 -19,-2 -25,0 -7,3 -2,5 12,5 14,0 19,-2 13,-5 z m -5023,-13 c 0,-5 -4,-10 -9,-10 -6,0 -13,5 -16,10 -3,6 1,10 9,10 9,0 16,-4 16,-10 z m 2399,-28 c 22,-53 -17,-106 -49,-67 -9,11 -10,22 -2,42 5,16 13,36 16,46 7,23 20,15 35,-21 z m -2166,8 c 14,-11 30,-20 36,-20 15,0 32,-36 25,-54 -8,-20 -30,-21 -37,-2 -4,9 1,16 11,18 12,2 3,11 -27,28 -25,14 -46,31 -49,38 -6,18 12,15 41,-8 z m 2607,-6 c 0,-8 -4,-14 -9,-14 -11,0 -22,26 -14,34 9,9 23,-3 23,-20 z m 380,22 c 0,-11 -19,-15 -25,-6 -3,5 1,10 9,10 9,0 16,-2 16,-4 z m -2420,-21 c 7,-8 8,-15 2,-15 -5,0 -15,7 -22,15 -7,8 -8,15 -2,15 5,0 15,-7 22,-15 z m 3160,-1 c 0,-8 -4,-12 -10,-9 -5,3 -10,10 -10,16 0,5 5,9 10,9 6,0 10,-7 10,-16 z m -525,-4 c -3,-5 -13,-10 -21,-10 -8,0 -14,5 -14,10 0,6 9,10 21,10 11,0 17,-4 14,-10 z m -2544,-17 c 13,-15 12,-15 -8,-4 -24,12 -29,21 -14,21 5,0 15,-7 22,-17 z m 1243,-7 c 7,-28 -2,-58 -15,-50 -12,7 -12,74 0,74 5,0 12,-11 15,-24 z m 796,20 c 0,-11 -19,-15 -25,-6 -3,5 1,10 9,10 9,0 16,-2 16,-4 z m 1251,-16 c -25,-22 -41,-26 -41,-10 0,11 30,29 50,29 10,0 8,-6 -9,-19 z m -1971,-30 c -16,-31 -23,-19 -9,16 6,16 13,24 16,17 2,-7 -1,-22 -7,-33 z m 110,31 c 0,-12 -20,-25 -27,-18 -7,7 6,27 18,27 5,0 9,-4 9,-9 z m 1590,-1 c 0,-12 -28,-25 -36,-17 -9,9 6,27 22,27 8,0 14,-5 14,-10 z m -2175,-10 c 3,-5 -1,-10 -9,-10 -9,0 -16,5 -16,10 0,6 4,10 9,10 6,0 13,-4 16,-10 z m 299,-23 c 30,-39 32,-47 11,-47 -14,0 -72,25 -84,36 -6,5 30,44 40,44 4,0 19,-15 33,-33 z m 2294,16 c 4,-14 -26,-17 -78,-7 -22,5 -28,9 -18,16 19,12 91,5 96,-9 z m 82,7 c 0,-5 -11,-10 -25,-10 -14,0 -25,5 -25,10 0,6 11,10 25,10 14,0 25,-4 25,-10 z m 200,0 c 0,-5 -7,-10 -16,-10 -8,0 -12,5 -9,10 3,6 10,10 16,10 5,0 9,-4 9,-10 z m -2095,-11 c 11,-17 -1,-21 -15,-4 -8,9 -8,15 -2,15 6,0 14,-5 17,-11 z m 135,1 c 0,-5 -4,-10 -10,-10 -5,0 -10,5 -10,10 0,6 5,10 10,10 6,0 10,-4 10,-10 z m 590,1 c 0,-17 -43,-42 -51,-30 -9,14 -29,3 -29,-17 0,-8 -4,-14 -10,-14 -27,0 11,57 43,63 39,8 47,7 47,-2 z m -2490,-11 c 0,-5 15,-10 33,-10 42,0 70,-20 61,-43 -10,-26 -52,-21 -85,12 -29,30 -37,51 -19,51 6,0 10,-4 10,-10 z m -617,-32 c 9,-5 17,-18 17,-29 0,-19 0,-19 -39,1 -27,13 -50,18 -70,14 -32,-7 -40,3 -19,24 12,12 79,7 111,-10 z m 1057,12 c 0,-5 -2,-10 -4,-10 -3,0 -8,5 -11,10 -3,6 -1,10 4,10 6,0 11,-4 11,-10 z m 357,-8 c 2,-10 17,-26 33,-37 28,-19 56,-63 46,-72 -14,-14 -50,15 -76,60 -16,29 -30,55 -30,60 0,15 22,6 27,-11 z m 238,8 c 3,-5 2,-10 -4,-10 -5,0 -13,5 -16,10 -3,6 -2,10 4,10 5,0 13,-4 16,-10 z m 683,-13 c 2,-10 -3,-17 -12,-17 -18,0 -29,16 -21,31 9,14 29,6 33,-14 z m 464,-9 c -15,-15 -26,-4 -18,18 5,13 9,15 18,6 9,-9 9,-15 0,-24 z m 1063,22 c -3,-5 -13,-10 -21,-10 -8,0 -12,5 -9,10 3,6 13,10 21,10 8,0 12,-4 9,-10 z m -1357,-24 c 2,-10 -1,-23 -7,-29 -15,-15 -46,16 -37,38 8,21 40,15 44,-9 z m 436,3 c -3,-5 -10,-7 -15,-3 -5,3 -7,10 -3,15 3,5 10,7 15,3 5,-3 7,-10 3,-15 z m 1140,9 c -15,-7 -23,-22 -27,-50 -7,-49 -32,-78 -69,-78 -25,0 -28,4 -28,30 0,22 -6,33 -21,39 -21,7 -21,8 6,29 15,12 42,22 59,22 17,0 38,5 46,10 8,5 24,9 35,9 19,0 19,-1 -1,-11 z m -3644,-18 c 0,-5 -4,-10 -9,-10 -6,0 -13,5 -16,10 -3,6 1,10 9,10 9,0 16,-4 16,-10 z m 494,-11 c 40,-31 31,-42 -14,-17 -22,13 -40,26 -40,31 0,14 27,7 54,-14 z m 1229,6 c 4,-8 2,-17 -3,-20 -13,-8 -40,6 -40,21 0,19 36,18 43,-1 z m 2062,-26 c -4,-6 -13,-8 -21,-5 -9,3 -23,-9 -39,-34 -30,-48 -62,-68 -71,-45 -4,8 -1,22 5,29 9,11 9,19 -1,35 -11,17 -10,23 5,38 13,13 20,15 29,5 18,-18 67,-15 75,4 5,15 7,15 15,0 5,-9 6,-21 3,-27 z m -4425,7 c 0,-14 -4,-28 -10,-31 -6,-4 -10,7 -10,24 0,17 5,31 10,31 6,0 10,-11 10,-24 z m 1193,17 c -7,-2 -19,-2 -25,0 -7,3 -2,5 12,5 14,0 19,-2 13,-5 z m 930,-35 c 18,-9 18,-11 1,-29 -9,-10 -13,-19 -8,-20 5,0 25,-1 44,-2 l 35,-2 12,-80 c 6,-44 18,-98 26,-120 10,-29 11,-49 4,-77 -8,-32 -7,-42 8,-59 13,-14 15,-23 8,-30 -15,-15 -33,-3 -33,21 0,10 -5,20 -11,22 -8,3 -7,14 5,35 23,46 20,60 -16,79 -72,36 -177,106 -182,121 -4,9 -1,20 6,24 18,11 -13,93 -37,97 -15,4 -17,-1 -11,-35 6,-35 5,-37 -9,-19 -29,38 -16,77 30,89 26,7 105,-2 128,-15 z m -2033,2 c 0,-5 -7,-10 -15,-10 -8,0 -15,5 -15,10 0,6 7,10 15,10 8,0 15,-4 15,-10 z m 263,-3 c 36,-15 62,-42 49,-50 -10,-7 -122,43 -122,54 0,13 36,11 73,-4 z m 2142,3 c 3,-5 -1,-10 -9,-10 -9,0 -16,5 -16,10 0,6 4,10 9,10 6,0 13,-4 16,-10 z m 2001,-26 c -10,-14 -20,-23 -23,-20 -3,3 2,17 11,32 10,14 20,23 23,20 3,-3 -2,-17 -11,-32 z m 186,4 c -15,-15 -26,-4 -18,18 5,13 9,15 18,6 9,-9 9,-15 0,-24 z m -4382,-20 c 52,-16 100,-36 106,-44 6,-8 16,-14 21,-14 6,0 17,-7 24,-17 8,-9 29,-22 47,-30 17,-7 32,-18 32,-24 0,-7 -7,-8 -17,-4 -18,8 -143,44 -220,64 -29,8 -46,20 -55,38 -9,18 -28,31 -61,42 -52,18 -54,34 -3,24 17,-3 74,-19 126,-35 z m 170,34 c 0,-14 -11,-21 -26,-15 -21,8 -17,23 6,23 11,0 20,-4 20,-8 z m 646,-43 c 42,-41 59,-50 177,-92 31,-11 57,-24 57,-28 0,-15 -51,-10 -150,16 -52,14 -109,25 -126,25 -37,0 -51,14 -56,55 -3,30 -4,30 -60,28 -62,-2 -71,6 -35,32 17,13 37,15 86,12 58,-4 66,-8 107,-48 z m 117,36 c -4,-15 -36,-12 -41,3 -3,9 3,13 19,10 13,-1 23,-7 22,-13 z m 607,-6 c 0,-6 -4,-7 -10,-4 -5,3 -10,11 -10,16 0,6 5,7 10,4 6,-3 10,-11 10,-16 z m 2134,-10 c -9,-10 -21,-19 -26,-19 -15,0 -8,29 9,39 26,14 37,2 17,-20 z m -1230,6 c -4,-8 -16,-15 -28,-15 -21,1 -21,1 -2,15 25,19 37,19 30,0 z m -2137,-1 c -3,-3 -12,-4 -19,-1 -8,3 -5,6 6,6 11,1 17,-2 13,-5 z m 1133,-15 c 0,-6 -4,-7 -10,-4 -5,3 -10,11 -10,16 0,6 5,7 10,4 6,-3 10,-11 10,-16 z m 3630,11 c 0,-5 -7,-10 -15,-10 -8,0 -15,5 -15,10 0,6 7,10 15,10 8,0 15,-4 15,-10 z m -740,-20 c -11,-20 -40,-28 -40,-10 0,9 28,29 43,30 4,0 3,-9 -3,-20 z m -4424,-7 c 8,-3 14,-10 14,-15 0,-10 -196,-1 -214,10 -32,19 151,24 200,5 z m 1274,7 c 0,-5 -7,-10 -15,-10 -8,0 -15,5 -15,10 0,6 7,10 15,10 8,0 15,-4 15,-10 z m 2430,-4 c 0,-16 -18,-31 -27,-22 -8,8 5,36 17,36 5,0 10,-6 10,-14 z m -2510,-31 c 0,-12 -4,-12 -20,2 -11,10 -20,21 -20,26 0,4 9,3 20,-3 11,-6 20,-17 20,-25 z m 1142,18 c 19,-17 24,-48 8,-58 -5,-3 -24,8 -42,24 -21,20 -28,31 -18,31 13,0 13,1 0,10 -12,8 -10,10 9,10 14,0 33,-7 43,-17 z m 78,7 c 0,-5 -4,-10 -10,-10 -5,0 -10,5 -10,10 0,6 5,10 10,10 6,0 10,-4 10,-10 z m 1030,0 c 0,-5 -4,-10 -10,-10 -5,0 -10,5 -10,10 0,6 5,10 10,10 6,0 10,-4 10,-10 z m -2654,-11 c 3,-6 2,-15 -4,-21 -12,-12 -55,8 -47,23 8,12 42,12 51,-2 z m 1304,-30 c 0,-11 11,-24 23,-30 13,-6 31,-23 40,-38 9,-16 32,-39 52,-52 26,-18 33,-29 29,-44 -9,-28 -10,-28 -32,-16 -12,6 -31,11 -45,11 -38,0 -65,39 -82,118 -19,92 -19,98 0,82 8,-7 15,-21 15,-31 z m 1460,21 c -24,-15 -37,-11 -16,5 11,8 22,12 25,9 3,-3 -1,-9 -9,-14 z m -2440,-10 c 38,-20 56,-37 47,-46 -6,-6 -137,42 -150,55 -20,20 61,12 103,-9 z m 380,10 c 0,-5 -7,-10 -16,-10 -8,0 -12,5 -9,10 3,6 10,10 16,10 5,0 9,-4 9,-10 z m 1565,0 c -3,-5 -15,-10 -26,-10 -11,0 -17,5 -14,10 3,6 15,10 26,10 11,0 17,-4 14,-10 z m -441,-32 c 25,-35 21,-68 -8,-68 -41,0 -56,11 -56,39 0,50 38,67 64,29 z m 2456,12 c 0,-5 -4,-10 -10,-10 -5,0 -10,5 -10,10 0,6 5,10 10,10 6,0 10,-4 10,-10 z m -927,-14 c 8,-19 -15,-60 -36,-64 -22,-4 -23,25 -1,56 17,25 30,28 37,8 z m 517,6 c 0,-13 -47,-32 -76,-32 -43,0 -21,24 27,31 24,3 45,7 47,7 1,1 2,-2 2,-6 z m 50,3 c 0,-3 -7,-17 -16,-31 -22,-33 -11,-41 22,-15 37,29 55,26 21,-4 -32,-29 -55,-32 -64,-9 -7,18 12,64 27,64 5,0 10,-2 10,-5 z m 188,-7 c -3,-7 -14,-14 -26,-16 -12,-2 -31,-15 -42,-30 -36,-49 -41,-52 -73,-52 l -32,1 25,20 c 29,24 48,41 74,69 22,22 80,28 74,8 z m -4187,-34 c 6,-8 9,-14 6,-14 -14,0 -77,34 -77,41 0,12 57,-10 71,-27 z m 3608,15 c -16,-10 -23,-4 -14,10 3,6 11,8 17,5 6,-4 5,-9 -3,-15 z m -3859,1 c 0,-5 -4,-10 -10,-10 -5,0 -10,5 -10,10 0,6 5,10 10,10 6,0 10,-4 10,-10 z m 324,4 c 9,-3 16,-10 16,-16 0,-14 -43,-5 -48,10 -4,13 7,15 32,6 z m 936,-4 c 0,-5 -2,-10 -4,-10 -3,0 -8,5 -11,10 -3,6 -1,10 4,10 6,0 11,-4 11,-10 z m 580,-21 c 0,-5 -7,-9 -15,-9 -9,0 -15,9 -15,21 0,18 2,19 15,9 8,-7 15,-16 15,-21 z m 1760,21 c 0,-15 -38,-50 -55,-50 -21,0 -19,10 7,37 22,24 48,31 48,13 z m -3506,-9 c 3,-5 0,-14 -7,-19 -9,-8 -16,-6 -25,9 -11,16 -9,19 7,19 11,0 22,-4 25,-9 z m 3339,-5 c 3,-8 2,-27 -2,-43 -7,-23 -10,-25 -16,-10 -4,9 -16,17 -28,17 -20,0 -20,1 3,25 27,29 36,31 43,11 z m -3490,-7 c 33,-17 67,-51 61,-60 -3,-5 -23,-9 -45,-9 -32,0 -41,5 -51,24 -10,23 -6,56 7,56 4,0 16,-5 28,-11 z m 2052,-9 c 0,-22 -29,-18 -33,3 -3,14 1,18 15,15 10,-2 18,-10 18,-18 z m 1115,5 c -7,-8 -16,-12 -21,-9 -13,8 -1,24 18,24 13,0 13,-3 3,-15 z m -2875,-10 c 33,-8 83,-15 111,-15 61,0 114,-9 114,-20 0,-8 -39,-15 -142,-26 -32,-4 -55,-11 -52,-16 10,-16 83,-58 102,-58 19,0 46,24 54,48 2,9 22,15 56,16 49,1 53,0 48,-19 -3,-11 -6,-28 -6,-38 0,-10 -4,-15 -10,-12 -15,10 -12,-6 6,-26 21,-24 2,-63 -27,-54 -14,5 -19,2 -19,-14 0,-22 -17,-34 -63,-45 -26,-6 -28,-5 -22,16 l 7,23 -23,-21 c -20,-18 -42,-23 -136,-29 l -112,-7 2,114 2,113 41,-3 c 23,-2 45,1 49,7 4,7 -10,11 -39,11 -29,0 -46,4 -46,12 0,9 -3,9 -12,0 -16,-16 -48,-15 -48,1 0,16 60,56 85,56 11,0 47,-6 80,-14 z m -525,-11 c 0,-2 -7,-4 -15,-4 -8,0 -15,4 -15,10 0,5 7,7 15,4 8,-4 15,-8 15,-10 z m 1630,-25 c 51,-40 59,-61 26,-67 -11,-2 -19,4 -23,17 -3,12 -12,21 -19,21 -8,0 -14,9 -14,19 0,11 -4,23 -10,26 -5,3 -10,-2 -10,-11 0,-16 -1,-16 -20,1 -11,10 -20,22 -20,27 0,20 42,5 90,-33 z m 564,19 c 17,-24 21,-74 7,-82 -9,-6 -71,58 -71,74 0,9 28,29 42,30 4,0 14,-10 22,-22 z m 2266,7 c -14,-17 -46,-20 -55,-6 -5,10 15,18 49,20 15,1 16,-2 6,-14 z m -840,-16 c 0,-11 -4,-17 -10,-14 -5,3 -19,1 -30,-5 -24,-13 -26,-3 -3,22 22,24 43,23 43,-3 z m -3569,-12 c -13,-13 -26,-3 -16,12 3,6 11,8 17,5 6,-4 6,-10 -1,-17 z m 831,3 c 10,0 18,-4 18,-10 0,-5 -8,-10 -18,-10 -20,0 -42,18 -42,34 0,6 5,5 12,-2 7,-7 20,-12 30,-12 z m 2658,9 c 0,-14 -68,-41 -82,-33 -6,4 3,14 23,25 39,21 59,24 59,8 z m 460,2 c 0,-5 -7,-11 -15,-15 -15,-5 -20,5 -8,17 9,10 23,9 23,-2 z m 380,-5 c 0,-18 -17,-29 -30,-21 -8,5 -7,11 1,21 15,18 29,18 29,0 z m -1990,-4 c 0,-12 -49,-56 -55,-50 -7,7 34,58 46,58 5,0 9,-4 9,-8 z m -1006,-26 c -4,-19 -1,-26 15,-31 22,-7 27,-20 11,-30 -5,-3 -22,6 -36,20 -25,25 -25,27 -8,46 22,25 26,24 18,-5 z m 2886,4 c 6,-11 19,-20 30,-20 24,0 36,-18 22,-32 -8,-8 -16,-7 -27,2 -8,7 -19,9 -23,5 -4,-4 -1,-10 6,-12 30,-11 -6,-63 -45,-63 -28,0 -41,25 -25,50 8,13 7,21 -6,33 -21,22 -10,32 18,17 29,-16 49,8 23,28 -16,11 -16,12 0,12 9,0 21,-9 27,-20 z m -1841,-21 c -19,-12 -24,-2 -8,17 9,11 14,13 17,4 3,-7 -2,-16 -9,-21 z m -2425,-1 c 22,-31 20,-40 -6,-36 -12,2 -28,13 -34,25 -6,13 -14,20 -17,16 -4,-3 -7,-1 -7,5 0,21 48,13 64,-10 z m 4146,-10 c 25,-42 25,-58 0,-58 -10,0 -23,-7 -28,-15 -9,-16 -88,-35 -81,-19 3,5 11,21 18,36 8,15 27,32 42,37 28,9 40,31 19,31 -5,0 -10,5 -10,10 0,21 21,9 40,-22 z m -2664,-3 c 4,-15 1,-32 -6,-40 -14,-17 -11,-23 22,-39 22,-11 39,-56 21,-56 -5,0 -24,16 -43,35 -29,30 -33,39 -23,53 6,10 9,30 6,45 -7,35 14,36 23,2 z m 2104,14 c 0,-6 -15,-25 -33,-42 -19,-18 -36,-39 -39,-47 -5,-12 -8,-12 -22,5 -15,19 -17,19 -30,2 -8,-10 -17,-14 -20,-8 -9,13 22,41 45,41 11,0 22,8 26,18 3,9 10,23 16,30 12,15 57,16 57,1 z m -3254,-26 c 4,-16 15,-44 26,-63 20,-39 24,-85 7,-96 -6,-3 -15,0 -20,7 -7,12 -9,11 -9,-1 0,-9 5,-21 11,-27 6,-6 9,-17 7,-23 -2,-8 -16,-2 -38,16 -18,16 -41,28 -51,26 -9,-2 -29,12 -44,30 -23,28 -26,29 -22,11 8,-35 -10,-37 -28,-4 -15,30 -15,30 37,84 29,30 60,57 68,60 34,12 50,7 56,-20 z m 4664,17 c 20,-12 12,-18 -30,-20 -57,-3 -75,-1 -64,9 19,19 72,25 94,11 z m -4340,-25 c 7,-8 8,-15 2,-15 -5,0 -15,7 -22,15 -7,8 -8,15 -2,15 5,0 15,-7 22,-15 z m 3155,-5 c -10,-11 -20,-18 -23,-15 -7,6 18,35 31,35 5,0 2,-9 -8,-20 z m -3435,0 c 0,-5 -4,-10 -10,-10 -5,0 -10,5 -10,10 0,6 5,10 10,10 6,0 10,-4 10,-10 z m 2941,0 c 23,-13 25,-30 3,-30 -9,0 -22,-7 -29,-17 -19,-26 -36,-8 -23,27 11,32 19,36 49,20 z m 1329,1 c 0,-14 -18,-23 -30,-16 -6,4 -8,11 -5,16 8,12 35,12 35,0 z m -2950,-11 c 0,-5 -8,-10 -17,-10 -15,0 -16,2 -3,10 19,12 20,12 20,0 z m 520,-11 c 0,-6 -4,-7 -10,-4 -5,3 -10,11 -10,16 0,6 5,7 10,4 6,-3 10,-11 10,-16 z m 280,11 c 0,-5 -7,-10 -16,-10 -8,0 -12,5 -9,10 3,6 10,10 16,10 5,0 9,-4 9,-10 z m 900,-21 c 0,-10 -4,-19 -10,-19 -5,0 -10,12 -10,26 0,14 4,23 10,19 6,-3 10,-15 10,-26 z m 560,6 c -22,-27 -50,-38 -50,-21 0,9 12,22 28,30 32,17 40,13 22,-9 z m -4000,-15 c 0,-16 -4,-30 -9,-30 -13,0 -21,27 -15,45 10,25 24,17 24,-15 z m 960,20 c 0,-5 -7,-10 -15,-10 -8,0 -15,5 -15,10 0,6 7,10 15,10 8,0 15,-4 15,-10 z m 878,-9 c 3,-8 -1,-12 -9,-9 -7,2 -15,10 -17,17 -3,8 1,12 9,9 7,-2 15,-10 17,-17 z m 2590,0 c 3,-8 -1,-12 -9,-9 -7,2 -15,10 -17,17 -3,8 1,12 9,9 7,-2 15,-10 17,-17 z m 497,0 c 0,-8 -6,-16 -12,-18 -7,-3 -13,2 -13,11 0,9 -7,16 -16,16 -12,0 -14,-7 -9,-28 4,-20 0,-34 -15,-50 -21,-23 -46,-29 -52,-13 -1,5 -16,13 -31,17 -27,6 -28,6 -16,-14 20,-31 4,-41 -84,-52 -42,-5 -88,-12 -103,-16 -37,-9 -24,10 18,27 18,7 37,19 41,26 9,14 112,94 137,105 8,4 47,6 85,5 53,-2 70,-5 70,-16 z m -5068,-26 c -2,-5 -12,-11 -23,-12 -10,-2 -13,0 -7,3 10,4 10,11 2,25 -9,18 -8,19 10,7 12,-7 20,-17 18,-23 z m 208,-5 c 1,-45 -1,-46 -33,-24 -36,25 -28,64 12,64 18,0 21,-6 21,-40 z m 1020,-35 -1,-70 -43,-7 c -52,-9 -89,-31 -100,-61 -17,-43 -85,-88 -204,-132 -54,-20 -67,-14 -67,34 0,14 -11,41 -25,61 -28,40 -25,65 6,75 24,8 79,-3 79,-16 0,-5 18,-9 40,-9 22,0 40,5 40,11 0,6 -9,8 -22,3 l -23,-7 20,23 c 29,33 102,100 138,127 21,15 45,23 73,23 24,0 46,5 49,11 4,5 14,9 23,7 14,-3 17,-16 17,-73 z m 936,38 c -10,-17 -10,-16 -11,3 0,23 13,41 18,25 2,-6 -1,-18 -7,-28 z m 818,-8 c 26,-44 46,-46 38,-5 -6,25 -3,30 13,30 20,0 40,-27 40,-54 0,-9 -6,-16 -14,-16 -7,0 -22,-24 -32,-52 -16,-44 -24,-54 -45,-56 -23,-3 -27,1 -32,35 -13,73 -8,153 9,153 1,0 11,-16 23,-35 z m 1381,4 c 0,-5 -7,-9 -15,-9 -15,0 -20,12 -9,23 8,8 24,-1 24,-14 z m -4276,-29 c 20,-51 20,-60 -2,-60 -27,0 -42,20 -42,55 0,58 22,60 44,5 z m 2639,-46 c 2,-65 -8,-114 -23,-114 -6,0 -10,23 -10,51 0,44 -4,54 -30,77 -38,34 -38,47 3,59 45,14 58,-1 60,-73 z m 812,56 c -10,-11 -23,-20 -28,-20 -6,0 0,11 13,25 27,29 42,25 15,-5 z m 1836,3 c -8,-30 -36,-42 -54,-24 -13,13 18,51 44,51 14,0 16,-5 10,-27 z m -2152,-15 c -8,-14 -14,-18 -17,-10 -4,13 17,46 25,38 3,-2 -1,-15 -8,-28 z m 1342,22 c 20,0 -4,-21 -52,-45 -54,-28 -57,-26 -32,16 17,29 37,40 61,33 8,-2 18,-4 23,-4 z m -4291,-19 c 0,-24 -27,-48 -40,-35 -6,6 -4,18 6,32 19,27 34,28 34,3 z m 2325,0 c -3,-6 -11,-11 -17,-11 -6,0 -6,6 2,15 14,17 26,13 15,-4 z m 2150,-6 c -26,-21 -73,-39 -91,-35 -3,1 -11,-6 -18,-15 -12,-16 -13,-16 -29,0 -9,9 -17,20 -17,24 0,20 38,36 99,42 36,3 71,6 76,7 6,1 -3,-10 -20,-23 z m 511,14 c 3,-6 1,-16 -5,-22 -9,-9 -14,-9 -19,0 -5,8 -13,9 -22,3 -8,-6 -22,-10 -30,-10 -10,1 -8,7 9,20 26,22 56,26 67,9 z m -3371,-19 c 23,-26 9,-26 -30,0 -26,17 -27,20 -9,20 11,0 29,-9 39,-20 z m 1557,0 c 12,-11 16,-20 10,-20 -7,0 -15,0 -19,-1 -4,0 -10,9 -15,20 -9,26 -3,26 24,1 z m -1157,0 c 9,-14 -39,-41 -86,-47 -36,-5 -41,-4 -37,13 2,10 14,24 28,31 30,15 86,17 95,3 z m 1355,-10 c -28,-22 -44,-21 -48,3 -3,14 4,17 35,17 h 38 z m 810,11 c 0,-12 -20,-25 -27,-18 -7,7 6,27 18,27 5,0 9,-4 9,-9 z m -4470,-33 c 0,-5 -9,-4 -20,2 -11,6 -18,15 -14,21 6,11 34,-7 34,-23 z m 189,8 c 15,-15 19,-26 12,-31 -26,-15 -71,21 -55,46 8,14 19,11 43,-15 z m 3211,4 c 0,-11 -2,-20 -4,-20 -2,0 -21,-7 -42,-16 l -39,-16 34,36 c 40,41 51,45 51,16 z m 988,-6 c -2,-18 -13,-30 -35,-39 -32,-14 -33,-13 -33,10 0,29 24,55 51,55 16,0 20,-6 17,-26 z m -832,1 c -11,-8 -27,-15 -35,-14 -9,0 -2,7 14,14 39,18 45,18 21,0 z m 734,0 c 10,-12 9,-15 -5,-15 -9,0 -19,-9 -22,-20 -3,-11 -8,-20 -12,-20 -3,0 -12,-4 -19,-9 -12,-7 -12,-12 0,-30 11,-18 11,-23 -1,-30 -8,-5 -11,-16 -8,-24 3,-8 -3,-23 -13,-32 -22,-20 -140,-55 -182,-55 -68,0 2,75 80,85 64,9 95,19 100,33 4,14 -27,15 -81,3 -20,-5 -39,-5 -42,-1 -8,13 41,65 92,99 50,34 93,40 113,16 z m -1641,-21 c 17,-14 31,-32 31,-40 0,-20 -14,-17 -35,6 -10,11 -23,20 -29,20 -6,0 -18,5 -26,10 -13,9 -13,11 0,20 21,14 25,13 59,-16 z m -830,2 c 8,-10 8,-16 -2,-24 -17,-14 -42,2 -34,22 8,20 21,20 36,2 z m 2141,3 c 0,-14 -19,-50 -38,-72 -11,-12 -18,-14 -23,-6 -5,9 -20,7 -58,-7 -53,-19 -65,-17 -55,9 6,17 54,37 89,37 12,0 31,11 43,25 23,26 42,33 42,14 z m -3620,-9 c 0,-5 -4,-10 -10,-10 -5,0 -10,5 -10,10 0,6 5,10 10,10 6,0 10,-4 10,-10 z m -302,-17 c 5,-18 -22,-27 -56,-18 -26,6 -26,7 -7,21 23,17 56,15 63,-3 z m 1361,7 c 10,-5 42,-45 71,-89 65,-100 63,-116 -15,-108 -84,9 -66,-20 29,-47 36,-10 41,-16 44,-44 3,-31 -10,-43 -23,-22 -10,16 -25,12 -19,-5 8,-20 -20,-20 -36,1 -9,10 -26,14 -49,12 -29,-2 -37,-8 -39,-25 -2,-13 -10,-23 -17,-23 -8,0 -29,-9 -47,-19 -17,-11 -35,-18 -40,-15 -5,3 -15,0 -23,-6 -21,-18 -35,-3 -36,38 l -1,37 -14,-34 -15,-33 -30,41 c -31,42 -43,49 -54,31 -3,-5 -11,-10 -17,-10 -10,0 -8,16 7,53 15,35 -15,16 -35,-23 -17,-34 -25,-40 -53,-40 -28,-1 -30,-2 -13,-12 11,-6 43,-8 76,-5 55,5 58,4 84,-29 29,-36 27,-59 -4,-49 -10,3 -21,1 -25,-5 -8,-13 -61,-13 -86,1 -17,9 -18,13 -7,27 10,12 10,14 0,8 -15,-9 -72,29 -72,49 0,7 -18,29 -40,49 -44,40 -47,46 -24,46 21,0 110,38 157,68 21,13 46,22 55,20 10,-2 25,9 37,27 23,33 123,98 195,126 53,21 56,22 79,9 z m 616,-59 c -7,-6 -65,50 -65,63 0,5 16,-5 35,-24 19,-18 32,-36 30,-39 z m 2555,65 c 0,-3 -4,-8 -10,-11 -5,-3 -10,-1 -10,4 0,6 5,11 10,11 6,0 10,-2 10,-4 z m -1016,-21 c -7,-18 -72,-56 -79,-46 -7,13 45,61 66,61 12,0 16,-5 13,-15 z m 210,-17 c -23,-45 -54,-64 -54,-34 0,12 54,66 66,66 2,0 -3,-15 -12,-32 z m 1488,0 c -9,-9 -12,-7 -12,12 0,19 3,21 12,12 9,-9 9,-15 0,-24 z m -1805,4 c -10,-10 -17,-23 -17,-29 0,-13 -23,-23 -51,-23 -29,0 -22,12 24,42 49,32 67,36 44,10 z m -3231,-12 c 19,8 26,5 34,-10 12,-22 13,-57 2,-64 -4,-2 -47,5 -95,16 l -87,20 -35,-31 c -46,-40 -90,-62 -109,-55 -9,4 -23,1 -31,-6 -9,-7 -17,-11 -19,-9 -2,2 -7,34 -11,71 l -7,67 35,6 c 19,4 52,2 73,-4 56,-16 160,-14 176,3 11,11 16,11 32,1 13,-9 26,-11 42,-5 z m 2064,11 c 0,-25 -83,-49 -106,-30 -23,19 -16,28 29,32 23,2 50,4 60,5 9,1 17,-2 17,-7 z m 355,-15 c 20,-13 25,-25 25,-56 0,-21 -4,-41 -9,-44 -5,-4 -33,12 -61,35 -37,29 -49,44 -41,52 7,7 5,14 -7,24 -15,13 -12,14 26,10 23,-3 54,-12 67,-21 z m 2250,14 c -3,-5 -21,-10 -38,-10 -24,0 -28,3 -17,10 20,13 63,13 55,0 z m -5138,-22 c -3,-8 -6,-5 -6,6 -1,11 2,17 5,13 3,-3 4,-12 1,-19 z m 623,-6 c 0,-52 -54,-74 -66,-27 -8,31 10,55 42,55 20,0 24,-5 24,-28 z m 400,14 c 0,-16 -27,-29 -41,-20 -13,8 9,34 27,34 8,0 14,-6 14,-14 z m 3839,-13 c -21,-55 -58,-71 -79,-34 -14,27 -13,31 8,31 9,1 28,7 42,15 36,21 41,18 29,-12 z m -2227,-55 c -5,-5 -20,-8 -33,-6 -25,3 -36,34 -24,66 5,14 11,12 37,-17 19,-21 26,-37 20,-43 z m 936,49 c 4,-18 -14,-22 -37,-8 -7,5 -10,14 -6,20 10,17 39,9 43,-12 z m -2883,-7 c 14,-15 16,-23 7,-32 -17,-17 -42,-1 -42,27 0,30 11,32 35,5 z m 711,5 c -11,-8 -22,-12 -25,-9 -6,6 19,24 34,24 6,-1 1,-7 -9,-15 z m 2514,5 c 0,-5 -15,-10 -32,-9 -28,0 -30,2 -13,9 28,12 45,12 45,0 z m -2984,-40 c 22,0 49,-6 60,-14 18,-14 18,-15 -5,-24 -22,-8 -22,-9 -6,-16 10,-3 23,-2 29,4 16,16 38,12 34,-6 -2,-9 -21,-22 -43,-30 -49,-17 -45,-17 -45,1 0,9 -9,15 -24,15 -28,0 -96,59 -96,83 0,14 3,14 28,1 15,-7 45,-14 68,-14 z m 1505,9 c 31,-16 40,-25 36,-40 -9,-33 13,-21 29,16 14,34 34,40 34,10 0,-26 58,-48 106,-40 42,6 45,5 94,-44 27,-27 50,-55 50,-62 0,-6 -11,-24 -24,-39 -18,-22 -24,-44 -28,-107 -6,-88 -30,-149 -82,-208 -26,-31 -36,-36 -54,-30 -13,3 -27,17 -32,30 -5,13 -19,25 -32,27 -21,3 -23,7 -20,56 3,49 1,53 -17,47 -13,-4 -23,0 -30,12 -6,10 -11,12 -11,6 0,-19 -17,-16 -25,5 -4,9 -13,42 -20,72 -12,48 -12,57 2,73 13,14 14,22 5,40 -42,81 -57,197 -25,197 2,0 22,-9 44,-21 z m 1709,2 c 0,-30 -26,-44 -67,-38 -60,10 -64,27 -7,28 27,0 43,3 35,6 -11,5 -11,7 0,14 23,14 39,10 39,-10 z m 938,13 c 42,-12 22,-21 -56,-27 -43,-3 -86,-9 -96,-13 -18,-7 -18,-8 0,-21 16,-12 16,-13 -9,-13 -36,0 -35,22 4,54 24,21 41,26 82,26 29,0 62,-3 75,-6 z m 474,-16 c -7,-7 -12,-8 -12,-2 0,14 12,26 19,19 2,-3 -1,-11 -7,-17 z m -3568,-9 c 59,-47 76,-134 31,-163 -14,-9 -30,-14 -36,-10 -19,12 -69,128 -69,162 0,27 4,32 24,32 13,0 35,-9 50,-21 z m 1745,-5 c -12,-15 -49,-19 -49,-6 0,11 43,31 53,25 4,-3 3,-11 -4,-19 z m 2036,17 c 17,-7 16,-10 -15,-23 -72,-31 -91,-38 -110,-38 -26,0 -26,20 0,27 11,3 17,10 14,15 -15,24 64,37 111,19 z m -2205,-18 c -1,-5 -17,-16 -38,-25 -40,-19 -64,-10 -42,17 12,15 80,22 80,8 z m 350,-3 c 0,-5 -7,-10 -16,-10 -8,0 -12,5 -9,10 3,6 10,10 16,10 5,0 9,-4 9,-10 z m -3452,-20 c 35,-11 77,-20 93,-20 36,0 76,-20 107,-53 l 24,-25 -22,-12 c -21,-11 -68,-8 -107,7 -13,5 -14,3 -3,-17 29,-54 -42,-46 -169,21 -41,21 -85,39 -98,39 -44,0 -19,47 37,69 38,15 69,13 138,-9 z m 1762,-20 c 17,-31 12,-40 -25,-40 -33,0 -35,2 -35,33 0,19 3,37 6,40 10,9 42,-10 54,-33 z m 2496,26 c 3,-8 1,-23 -5,-33 -6,-10 -11,-12 -11,-5 0,6 -11,12 -25,12 -29,0 -33,15 -7,29 24,15 42,13 48,-3 z m -1486,0 c 0,-3 -4,-8 -10,-11 -5,-3 -10,-1 -10,4 0,6 5,11 10,11 6,0 10,-2 10,-4 z m 1964,-2 c 28,-11 18,-34 -13,-34 -34,0 -51,18 -30,31 17,10 23,11 43,3 z m 82,-22 c -9,-9 -37,8 -31,18 5,8 11,7 21,-1 8,-6 12,-14 10,-17 z m -4451,-20 c -6,-7 -35,18 -35,31 0,5 9,2 20,-8 11,-10 18,-20 15,-23 z m -1185,13 c 0,-16 -35,-21 -44,-6 -8,12 4,21 26,21 10,0 18,-7 18,-15 z m 4443,0 c 26,-3 47,-10 47,-14 0,-22 -37,-36 -92,-36 -56,0 -70,6 -47,21 6,3 9,15 6,25 -4,15 -1,18 16,14 12,-2 43,-7 70,-10 z m 102,-22 c -17,-40 -25,-52 -25,-36 0,21 22,73 31,73 5,0 2,-17 -6,-37 z m 934,0 c -15,-17 -63,-43 -81,-43 -7,0 -1,12 15,25 15,13 34,22 42,19 10,-4 15,0 15,11 0,9 5,13 10,10 8,-5 7,-12 -1,-22 z m 301,9 c 0,-9 -77,-54 -123,-71 -49,-19 -28,6 36,43 62,35 87,43 87,28 z m -1894,-17 c -23,-17 -36,-19 -36,-6 0,5 8,12 18,14 32,9 37,6 18,-8 z m 94,6 c 0,-17 -12,-41 -20,-41 -11,0 -21,30 -14,41 7,12 34,12 34,0 z m 300,-7 c 0,-8 -4,-12 -10,-9 -5,3 -10,10 -10,16 0,5 5,9 10,9 6,0 10,-7 10,-16 z m 1556,1 c -11,-8 -22,-12 -25,-9 -6,6 19,24 34,24 6,-1 1,-7 -9,-15 z m -5441,-17 c 7,-6 2,-16 -14,-29 -27,-22 -41,-13 -41,29 0,20 4,22 23,17 12,-4 27,-12 32,-17 z m 719,16 c 17,-7 22,-34 6,-34 -5,0 -10,-4 -10,-10 0,-5 13,-7 29,-4 21,4 47,-2 88,-22 32,-15 62,-30 67,-32 5,-3 6,0 2,7 -10,16 -2,14 41,-10 21,-12 50,-21 66,-21 31,1 33,-4 10,-30 -21,-24 -12,-32 20,-17 23,10 28,8 59,-26 18,-21 39,-47 47,-58 13,-18 12,-19 -10,-12 -13,4 -53,23 -89,41 -36,19 -66,30 -68,24 -2,-5 -12,-10 -23,-10 -15,0 -19,7 -19,33 0,57 -8,61 -91,47 -41,-6 -87,-18 -103,-26 -37,-18 -49,-9 -41,28 7,28 2,45 -26,100 -6,12 -4,20 9,27 21,13 17,12 36,5 z m 2684,-26 c -2,-20 -8,-32 -15,-30 -8,1 -13,-8 -13,-23 0,-23 -2,-24 -20,-13 -27,17 -25,37 7,70 35,36 45,35 41,-4 z m 1442,27 c 0,-9 -51,-25 -61,-19 -17,10 1,24 32,24 16,0 29,-2 29,-5 z m 134,-19 c -3,-7 -24,-19 -47,-26 -49,-14 -143,-83 -150,-109 -7,-29 -152,-122 -219,-142 -25,-7 -35,-3 -70,29 l -40,36 28,24 c 29,25 47,15 24,-14 -7,-8 -10,-17 -8,-20 11,-11 59,9 77,32 10,13 26,24 35,24 12,0 16,9 16,34 0,18 6,38 13,44 6,5 55,21 107,36 52,14 122,36 155,50 60,24 88,25 79,2 z m -1734,-6 c 0,-11 -7,-20 -15,-20 -8,0 -15,9 -15,20 0,11 7,20 15,20 8,0 15,-9 15,-20 z m 1896,-7 c -10,-10 -19,5 -10,18 6,11 8,11 12,0 2,-7 1,-15 -2,-18 z m -1296,9 c 0,-17 -39,-44 -55,-39 -18,8 -20,33 -2,40 20,9 57,8 57,-1 z m 1377,-9 c -9,-9 -19,-14 -23,-11 -10,10 6,28 24,28 15,0 15,-1 -1,-17 z m -5337,-9 c 0,-8 -4,-12 -10,-9 -5,3 -10,10 -10,16 0,5 5,9 10,9 6,0 10,-7 10,-16 z m 384,0 c 18,-4 23,-12 23,-32 -2,-37 -12,-42 -94,-42 -94,0 -130,32 -86,76 14,13 28,15 75,10 32,-3 69,-8 82,-12 z m 4263,10 c -3,-3 -12,-4 -19,-1 -8,3 -5,6 6,6 11,1 17,-2 13,-5 z m 193,-8 c -16,-14 -74,-36 -97,-36 -42,0 42,48 87,49 21,1 22,-1 10,-13 z m 388,-35 c -16,-5 -29,14 -22,34 6,16 8,15 20,-6 8,-15 9,-25 2,-28 z m 252,40 c 0,-10 -24,-21 -43,-21 -7,0 -3,7 7,15 22,17 36,19 36,6 z m -3152,-13 c -5,-15 -48,-24 -48,-10 0,14 12,22 33,22 10,0 17,-5 15,-12 z m 2167,-8 c 0,-8 -10,-16 -22,-18 -22,-3 -32,16 -16,32 12,11 38,2 38,-14 z m -1425,-5 c 0,-8 -4,-15 -10,-15 -5,0 -10,7 -10,15 0,8 5,15 10,15 6,0 10,-7 10,-15 z m 1555,7 c -23,-20 -85,-53 -85,-45 0,14 36,41 62,46 13,2 25,5 28,6 2,0 0,-3 -5,-7 z m 664,-33 c -16,-12 -25,-14 -28,-7 -5,14 29,39 42,31 5,-3 -1,-14 -14,-24 z m 222,10 c -13,-11 -26,-17 -29,-14 -8,8 20,35 37,35 12,-1 11,-5 -8,-21 z m -5337,-10 c -3,-5 -10,-7 -15,-3 -5,3 -7,10 -3,15 3,5 10,7 15,3 5,-3 7,-10 3,-15 z m 5551,1 c 3,-5 1,-10 -4,-10 -6,0 -11,5 -11,10 0,6 2,10 4,10 3,0 8,-4 11,-10 z m -2615,-21 c 0,-6 -4,-7 -10,-4 -5,3 -10,11 -10,16 0,6 5,7 10,4 6,-3 10,-11 10,-16 z m 1288,6 c 57,-17 60,-29 10,-39 -25,-5 -37,-1 -57,18 -14,13 -33,26 -41,29 -36,13 41,6 88,-8 z m 1252,10 c 0,-5 -75,-45 -85,-45 -15,0 -2,32 18,40 24,9 67,13 67,5 z m -5195,-24 c -3,-6 -11,-8 -17,-5 -6,4 -5,9 3,15 16,10 23,4 14,-10 z m 4893,8 c -2,-6 -8,-10 -13,-10 -5,0 -11,4 -13,10 -2,6 4,11 13,11 9,0 15,-5 13,-11 z m -4639,-12 c 38,4 49,2 65,-16 23,-25 15,-67 -14,-76 -14,-5 -31,2 -55,22 -18,15 -44,35 -56,44 -14,10 -19,20 -15,28 6,9 12,9 18,3 6,-6 31,-8 57,-5 z m 1615,-8 c -3,-5 -10,-7 -15,-3 -5,3 -7,10 -3,15 3,5 10,7 15,3 5,-3 7,-10 3,-15 z m 2676,1 c -12,-23 -30,-27 -30,-7 0,17 10,27 27,27 11,0 11,-5 3,-20 z m -1920,-11 c 0,-6 -4,-7 -10,-4 -5,3 -10,11 -10,16 0,6 5,7 10,4 6,-3 10,-11 10,-16 z m -2885,-5 c 23,-23 13,-39 -24,-38 l -31,2 21,-29 c 18,-26 18,-30 5,-35 -23,-9 -46,14 -46,45 0,15 -5,32 -11,38 -6,6 -8,16 -5,22 11,17 72,13 91,-5 z m 4495,8 c 0,-4 -19,-12 -42,-19 -24,-6 -54,-14 -68,-18 -21,-7 -23,-6 -12,6 24,26 122,51 122,31 z m 1025,-2 c 3,-6 -5,-10 -19,-10 -14,0 -28,5 -31,10 -3,6 5,10 19,10 14,0 28,-4 31,-10 z m -5149,-28 c 66,-45 113,-85 108,-94 -3,-4 -18,-8 -34,-8 -21,0 -28,-4 -24,-14 9,-23 -33,-25 -99,-7 -81,24 -147,58 -147,76 0,24 60,56 97,52 20,-2 34,2 37,10 7,18 16,16 62,-15 z m 1564,-4 c 0,-6 -7,-5 -15,2 -8,7 -15,17 -15,22 0,6 7,5 15,-2 8,-7 15,-17 15,-22 z m 3310,7 c -15,-18 -97,-18 -93,0 2,9 91,24 102,18 2,-1 -2,-10 -9,-18 z m -5141,6 c 11,-7 10,-11 -7,-20 -29,-15 -52,-14 -52,3 0,12 11,19 40,25 3,0 11,-3 19,-8 z m 1918,-48 c 7,-52 -11,-64 -44,-30 l -26,25 23,32 c 27,37 39,30 47,-27 z m 2943,48 c 0,-5 -15,-13 -32,-16 -18,-4 -46,-14 -61,-22 -16,-8 -34,-12 -40,-10 -16,5 42,35 90,46 21,5 39,9 41,10 1,1 2,-3 2,-8 z m 85,-15 c -11,-7 -31,-16 -45,-20 l -25,-7 24,20 c 13,12 33,21 44,21 21,0 21,0 2,-14 z m 65,-35 c -7,-13 -21,-21 -37,-21 -15,0 -34,-6 -42,-14 -16,-13 -75,-36 -95,-36 -9,0 65,45 150,91 32,17 41,10 24,-20 z m 348,30 c 10,-6 10,-10 -2,-20 -16,-13 -56,1 -56,19 0,12 40,13 58,1 z m -5310,-28 c 4,-25 -18,-35 -58,-26 -38,7 -38,15 3,36 39,19 51,17 55,-10 z m 629,10 c 5,-15 -34,-41 -75,-49 -38,-8 -55,18 -29,43 14,14 18,14 32,3 15,-12 18,-12 27,4 10,19 39,18 45,-1 z m 3704,2 c -1,-15 -24,-12 -29,3 -3,9 2,13 12,10 10,-1 17,-7 17,-13 z m 299,0 c 0,-8 -7,-15 -15,-15 -16,0 -20,12 -8,23 11,12 23,8 23,-8 z m -442,-22 c 5,-16 26,-48 46,-72 20,-24 35,-49 33,-55 -5,-16 -45,-24 -134,-25 -88,-1 -113,13 -38,21 51,6 95,31 95,54 0,12 -10,15 -47,12 -30,-2 -48,1 -50,10 -3,7 4,12 17,12 12,0 18,4 15,11 -7,10 31,59 46,59 4,0 11,-12 17,-27 z m -1538,-22 c 0,-10 -9,-26 -19,-35 -29,-26 -47,-74 -32,-89 15,-15 14,-27 -4,-27 -26,0 -28,27 -6,92 12,34 21,70 21,80 0,16 3,17 20,8 11,-6 20,-19 20,-29 z m 2130,31 c 0,-14 -31,-52 -51,-62 -29,-16 -25,12 7,44 26,26 44,33 44,18 z m 617,2 c -3,-3 -12,-4 -19,-1 -8,3 -5,6 6,6 11,1 17,-2 13,-5 z m -5660,-40 c -9,-9 -28,6 -21,18 4,6 10,6 17,-1 6,-6 8,-13 4,-17 z m 1643,16 c 8,-5 11,-12 7,-16 -4,-4 -15,0 -24,9 -18,18 -8,23 17,7 z m 2505,-11 c -4,-5 -13,-9 -22,-9 -13,0 -13,3 -3,15 13,15 35,11 25,-6 z m -4005,1 c 0,-5 -4,-10 -10,-10 -5,0 -10,5 -10,10 0,6 5,10 10,10 6,0 10,-4 10,-10 z m 610,-11 c 0,-6 -4,-7 -10,-4 -5,3 -10,11 -10,16 0,6 5,7 10,4 6,-3 10,-11 10,-16 z m 1005,11 c -8,13 21,13 46,0 26,-15 26,-43 -1,-35 -13,4 -37,-2 -60,-14 -40,-20 -40,-20 -40,-1 0,11 -7,20 -15,20 -22,0 -18,16 8,27 13,6 31,7 45,2 15,-6 21,-5 17,1 z m 3822,4 c -3,-3 -12,-4 -19,-1 -8,3 -5,6 6,6 11,1 17,-2 13,-5 z m -3402,-40 c 9,-14 14,-28 11,-31 -8,-9 -46,27 -46,44 0,21 16,15 35,-13 z m 2745,14 c 0,-12 -37,-28 -62,-27 -17,1 -18,3 -5,6 9,2 17,10 17,16 0,7 11,12 25,12 14,0 25,-3 25,-7 z m 440,-4 c 0,-8 -67,-34 -90,-34 -31,0 -24,15 13,27 36,12 77,16 77,7 z m -4263,-38 c 45,-15 98,-33 117,-41 34,-15 35,-16 19,-35 -24,-28 -45,-25 -96,14 -55,42 -81,56 -103,56 -12,0 -4,-11 24,-31 44,-32 60,-63 19,-36 -24,15 -50,20 -99,18 -29,-1 -40,-21 -13,-21 8,0 15,-4 15,-9 0,-13 -111,-21 -134,-9 -36,18 -55,39 -49,55 9,24 45,31 85,17 37,-13 48,-10 48,11 0,8 -10,10 -26,7 -25,-4 -25,-3 -14,18 11,20 17,22 69,17 31,-3 93,-17 138,-31 z m 428,24 c -3,-5 -13,-10 -21,-10 -8,0 -14,5 -14,10 0,6 9,10 21,10 11,0 17,-4 14,-10 z m 75,-5 c 0,-10 10,-15 31,-15 27,0 30,-2 19,-15 -7,-8 -18,-15 -25,-15 -7,0 -18,-7 -25,-15 -14,-17 -66,-20 -75,-5 -3,6 -13,10 -21,10 -8,0 -12,-4 -9,-10 7,-11 -21,-12 -48,-1 -26,10 -4,27 50,39 22,5 51,17 64,26 29,20 39,20 39,1 z m 1340,-6 c 0,-11 -4,-17 -10,-14 -5,3 -10,13 -10,21 0,8 5,14 10,14 6,0 10,-9 10,-21 z m 1825,11 c -3,-5 -18,-10 -33,-10 -21,0 -24,2 -12,10 20,13 53,13 45,0 z m -3935,-10 c 0,-12 -48,-25 -58,-16 -8,9 18,26 41,26 9,0 17,-4 17,-10 z m 598,-7 c -4,-19 -30,-28 -55,-19 -14,6 -14,8 3,21 27,20 56,19 52,-2 z m -1228,-14 c 0,-4 -7,-6 -15,-3 -8,4 -15,10 -15,15 0,4 7,6 15,3 8,-4 15,-10 15,-15 z m 170,-5 c 72,-21 98,-34 105,-52 4,-12 -2,-13 -32,-8 -21,4 -61,10 -88,12 -40,4 -60,13 -90,40 l -40,35 45,-6 c 25,-3 70,-13 100,-21 z m 1666,2 c 14,-11 16,-17 7,-26 -13,-14 -29,-7 -43,21 -13,24 6,26 36,5 z m -1276,-32 c 0,-8 -10,-14 -25,-14 -16,0 -25,6 -25,16 0,10 6,14 15,10 8,-3 15,-1 15,5 0,6 5,7 10,4 6,-3 10,-13 10,-21 z m 3934,1 c -30,-24 -75,-47 -81,-41 -10,10 10,28 50,46 46,21 61,18 31,-5 z m -2814,-23 25,-17 -23,-3 c -25,-4 -72,22 -72,39 0,13 36,3 70,-19 z m 2910,18 c 0,-12 -48,-25 -58,-16 -8,9 18,26 41,26 9,0 17,-4 17,-10 z m 345,-1 c 11,-17 2,-18 -19,-3 -17,12 -17,14 -4,14 9,0 20,-5 23,-11 z m -3002,-70 c -9,-9 -15,-6 -24,14 -14,32 -29,35 -29,7 0,-11 -4,-20 -10,-20 -14,0 -12,44 2,58 10,10 19,6 42,-18 23,-23 28,-32 19,-41 z m 2052,52 c -8,-13 -45,-15 -45,-2 0,5 10,11 23,13 27,5 31,3 22,-11 z m -2460,-11 c -3,-5 -10,-10 -16,-10 -5,0 -9,5 -9,10 0,6 7,10 16,10 8,0 12,-4 9,-10 z m 1985,0 c 8,-5 11,-12 8,-16 -10,-9 -38,3 -38,16 0,12 10,13 30,0 z m 865,0 c 3,-5 -3,-10 -15,-10 -12,0 -18,5 -15,10 3,6 10,10 15,10 5,0 12,-4 15,-10 z m -3985,-9 c 0,-12 -28,-22 -34,-12 -3,5 -3,11 1,15 9,9 33,7 33,-3 z m 3476,0 c -8,-12 -46,-21 -46,-11 0,5 8,11 18,13 29,8 33,7 28,-2 z m -2446,-11 c 0,-5 -4,-10 -10,-10 -5,0 -10,5 -10,10 0,6 5,10 10,10 6,0 10,-4 10,-10 z m 3176,-47 c -71,-66 -158,-108 -239,-115 l -58,-5 58,59 c 62,63 59,61 178,94 124,34 129,31 61,-33 z m -3746,10 c 0,-13 -3,-13 -15,-3 -8,7 -15,19 -15,27 0,13 3,13 15,3 8,-7 15,-19 15,-27 z m 812,3 c 23,-34 -36,-48 -70,-16 -12,11 -22,25 -22,29 0,13 83,0 92,-13 z m -772,-2 c 0,-8 -4,-12 -10,-9 -5,3 -10,10 -10,16 0,5 5,9 10,9 6,0 10,-7 10,-16 z m 335,8 c 6,-4 16,-18 24,-32 l 14,-25 -26,23 c -18,17 -26,20 -30,10 -3,-10 -7,-10 -17,-1 -22,21 9,44 35,25 z m 2898,-3 c -14,-14 -84,-30 -97,-21 -14,8 42,31 79,32 21,0 26,-3 18,-11 z m -923,-8 c 0,-13 -37,-24 -51,-15 -8,4 -7,9 2,15 19,12 49,11 49,0 z m 80,-12 c -7,-11 -14,-18 -17,-15 -8,8 5,36 17,36 7,0 7,-6 0,-21 z m 1078,12 c 11,-6 7,-13 -16,-30 -35,-24 -82,-28 -82,-7 0,33 67,57 98,37 z m -3568,-11 c 0,-5 -4,-10 -10,-10 -5,0 -10,5 -10,10 0,6 5,10 10,10 6,0 10,-4 10,-10 z m 760,0 c 0,-5 17,-18 38,-29 50,-27 23,-26 -39,0 -53,23 -63,39 -24,39 14,0 25,-4 25,-10 z m -390,-9 c 0,-13 -26,-32 -33,-24 -14,13 -6,33 13,33 11,0 20,-4 20,-9 z m 1970,-16 c 18,-9 40,-13 55,-9 41,10 28,-2 -22,-21 -44,-17 -47,-17 -60,0 -13,19 -18,45 -8,45 4,0 19,-7 35,-15 z m 421,-8 c -13,-13 -26,-3 -16,12 3,6 11,8 17,5 6,-4 6,-10 -1,-17 z m 239,8 c 0,-9 -9,-15 -25,-15 -24,0 -32,10 -18,23 12,13 43,7 43,-8 z m 331,5 c 41,-23 8,-58 -69,-75 -18,-4 -44,-17 -57,-29 -25,-23 -105,-60 -105,-48 1,16 62,86 97,112 34,24 83,47 106,49 5,1 17,-4 28,-9 z m 59,-5 c 0,-8 -4,-15 -9,-15 -5,0 -11,7 -15,15 -3,9 0,15 9,15 8,0 15,-7 15,-15 z m -2870,-4 c 0,-6 -4,-13 -10,-16 -5,-3 -10,1 -10,9 0,9 5,16 10,16 6,0 10,-4 10,-9 z m -230,-32 c 0,-18 -35,-5 -38,14 -3,16 -1,17 17,7 12,-6 21,-15 21,-21 z m 104,15 c 9,-24 8,-26 -14,-14 -11,6 -18,15 -15,21 9,14 22,11 29,-7 z m 3096,-28 c 0,-18 -21,-36 -42,-36 -14,0 -18,8 -18,33 0,19 3,36 6,40 9,8 54,-23 54,-37 z m -3124,-33 c -6,-6 -56,16 -56,25 0,20 15,21 37,0 12,-12 21,-23 19,-25 z m 934,37 c 0,-5 -4,-10 -10,-10 -5,0 -10,5 -10,10 0,6 5,10 10,10 6,0 10,-4 10,-10 z m 663,-5 c -4,-15 -86,-12 -91,3 -3,10 8,12 44,10 27,-2 48,-7 47,-13 z m -1493,-10 c 0,-9 -6,-12 -15,-9 -8,4 -15,10 -15,15 0,5 7,9 15,9 8,0 15,-7 15,-15 z m 1030,-3 c 0,-13 -12,-22 -22,-16 -10,6 -1,24 13,24 5,0 9,-4 9,-8 z m 1247,-9 c 4,-12 -122,-31 -133,-20 -3,3 7,12 23,21 32,18 104,17 110,-1 z m 308,7 c 3,-5 -3,-10 -15,-10 -12,0 -18,5 -15,10 3,6 10,10 15,10 5,0 12,-4 15,-10 z m -2997,-9 c 17,-10 6,-19 -65,-55 -63,-32 -63,-32 -63,-3 0,17 11,29 43,44 46,24 65,27 85,14 z m 652,-11 c 0,-5 -2,-10 -4,-10 -3,0 -8,5 -11,10 -3,6 -1,10 4,10 6,0 11,-4 11,-10 z m 1108,-43 c 13,-27 21,-51 17,-55 -12,-12 -40,15 -43,42 -2,14 -8,24 -13,21 -5,-4 -9,-1 -9,6 0,8 -4,8 -15,-1 -22,-18 -27,-8 -9,19 23,32 44,23 72,-32 z m 52,43 c -20,-13 -43,-13 -35,0 3,6 16,10 28,10 18,0 19,-2 7,-10 z m 585,0 c 3,-5 -1,-10 -10,-10 -9,0 -13,5 -10,10 3,6 8,10 10,10 2,0 7,-4 10,-10 z m 556,-10 c 18,-15 20,-19 8,-20 -9,0 -24,9 -34,20 -23,26 -4,26 26,0 z m -2351,-10 c 12,-23 7,-25 -22,-9 -14,8 -23,8 -31,0 -17,-17 -27,-13 -27,9 0,16 7,20 35,20 24,0 37,-6 45,-20 z m 1704,-38 c -16,-23 -19,-24 -22,-9 -2,10 4,30 14,45 16,23 19,24 22,9 2,-10 -4,-30 -14,-45 z m 1055,47 33,-12 -59,-28 c -58,-28 -103,-37 -103,-20 0,17 58,71 78,71 10,0 34,-5 51,-11 z m -1435,-21 c 3,-7 7,-34 10,-60 5,-43 4,-47 -17,-50 -14,-2 -23,-11 -25,-25 -2,-13 -6,-23 -10,-23 -4,0 -17,-3 -29,-6 -21,-6 -22,-4 -18,50 3,32 0,58 -6,61 -14,9 9,35 46,51 38,17 45,17 49,2 z m 987,-7 22,-18 -20,-29 c -12,-16 -32,-39 -45,-50 -31,-29 -298,-167 -298,-155 0,6 8,15 18,20 15,9 15,10 -5,11 -13,0 -23,4 -23,10 0,14 46,23 80,16 22,-4 30,-2 30,8 0,8 12,24 28,35 36,27 8,28 -37,0 -102,-62 28,47 176,147 43,29 45,29 74,5 z m 290,-11 c -13,-11 -28,-20 -35,-20 -6,1 0,10 13,20 13,11 28,20 35,20 6,-1 0,-10 -13,-20 z m -3110,-23 c -8,-8 -11,-7 -11,4 0,20 13,34 18,19 3,-7 -1,-17 -7,-23 z m 2380,-27 c -14,-47 -41,-66 -71,-50 -11,6 -20,13 -20,16 0,2 19,25 42,50 49,53 68,47 49,-16 z m -2451,35 c -7,-8 -20,-15 -28,-15 -13,0 -12,3 4,15 25,19 40,19 24,0 z m 730,6 c 0,-13 -29,-35 -37,-28 -7,8 15,37 28,37 5,0 9,-4 9,-9 z m 1850,-5 c -8,-8 -26,-17 -40,-20 l -25,-7 24,20 c 27,25 66,31 41,7 z m -2460,-6 c 0,-5 -4,-10 -10,-10 -5,0 -10,5 -10,10 0,6 5,10 10,10 6,0 10,-4 10,-10 z m 1583,-43 c 23,-8 22,-23 -5,-41 -26,-19 -38,-13 -38,19 0,14 -9,29 -20,35 -11,6 -20,18 -20,26 0,12 7,10 33,-9 17,-13 40,-27 50,-30 z m 1027,39 c 0,-2 -8,-10 -17,-17 -16,-13 -17,-12 -4,4 13,16 21,21 21,13 z m -2500,-16 c 8,-5 12,-11 9,-14 -7,-8 -49,5 -49,15 0,12 21,11 40,-1 z m 585,-42 c -7,-43 -29,-72 -50,-65 -15,6 -7,45 16,78 30,42 42,37 34,-13 z m -635,-11 c 0,-16 -35,-1 -38,16 -3,16 -1,17 17,5 12,-7 21,-17 21,-21 z m 3175,23 c 3,-5 -1,-10 -10,-10 -9,0 -13,5 -10,10 3,6 8,10 10,10 2,0 7,-4 10,-10 z m -2421,-15 c -4,-8 -8,-15 -10,-15 -2,0 -4,7 -4,15 0,8 4,15 10,15 5,0 7,-7 4,-15 z m 707,-6 c 8,-16 8,-24 0,-32 -14,-14 -31,6 -31,36 0,23 17,22 31,-4 z m -371,-5 c 0,-14 -3,-14 -15,-4 -8,7 -15,14 -15,16 0,2 7,4 15,4 8,0 15,-7 15,-16 z m 1370,11 c 0,-2 -15,-12 -32,-20 l -33,-16 24,21 c 22,19 41,26 41,15 z m -1762,-34 c 3,-16 -1,-22 -10,-19 -7,3 -15,15 -16,27 -3,16 1,22 10,19 7,-3 15,-15 16,-27 z m 715,9 c 3,-13 0,-20 -9,-20 -8,0 -14,9 -14,20 0,11 4,20 9,20 5,0 11,-9 14,-20 z m 1461,0 c 19,-18 -155,-120 -206,-120 -18,0 -12,9 33,58 29,31 63,63 74,69 21,13 83,9 99,-7 z m -3088,-15 29,-15 h -42 c -32,0 -43,4 -43,15 0,19 20,19 56,0 z m 164,-12 c 0,-20 -3,-24 -11,-16 -7,7 -9,19 -6,27 10,24 17,19 17,-11 z m 900,17 c 0,-5 -7,-10 -15,-10 -8,0 -15,5 -15,10 0,6 7,10 15,10 8,0 15,-4 15,-10 z m 2360,0 c 0,-5 -11,-10 -24,-10 -14,0 -28,5 -31,10 -4,6 7,10 24,10 17,0 31,-4 31,-10 z m 62,-12 c -16,-16 -25,-19 -33,-11 -16,16 -2,33 29,33 h 26 z m 628,2 c -20,-13 -67,-13 -54,-1 9,10 56,19 64,13 2,-2 -2,-7 -10,-12 z m -3799,-19 c 33,-33 43,-75 11,-43 -11,9 -17,20 -15,24 2,4 -1,9 -6,12 -5,3 -11,-1 -15,-9 -3,-8 -14,-15 -24,-15 -15,0 -18,6 -14,30 5,38 25,38 63,1 z m 167,17 c 19,-19 14,-30 -8,-18 -11,6 -20,15 -20,20 0,14 14,12 28,-2 z m 3556,3 c 3,-5 -8,-14 -25,-20 -25,-9 -29,-14 -24,-33 6,-21 5,-22 -8,-5 -8,9 -24,17 -37,17 -48,0 22,45 77,49 6,1 14,-3 17,-8 z m -1599,-11 c 17,-7 14,-9 -13,-9 -20,-1 -31,3 -27,9 7,12 13,12 40,0 z m -136,-72 c -16,-29 -24,-38 -27,-26 -2,9 7,36 19,60 16,29 24,38 27,26 2,-9 -7,-36 -19,-60 z m 1011,62 c 0,-5 -2,-10 -4,-10 -3,0 -8,5 -11,10 -3,6 -1,10 4,10 6,0 11,-4 11,-10 z m -1653,-36 c 30,-46 -13,-61 -52,-18 -18,20 -22,30 -15,39 15,18 48,7 67,-21 z m 1603,26 c 13,-9 13,-10 0,-10 -8,0 -22,5 -30,10 -13,9 -13,10 0,10 8,0 22,-5 30,-10 z m 295,0 c 8,-13 -5,-13 -25,0 -13,8 -13,10 2,10 9,0 20,-4 23,-10 z m -3685,-10 c 0,-5 -5,-10 -11,-10 -5,0 -7,5 -4,10 3,6 8,10 11,10 2,0 4,-4 4,-10 z m 230,0 c 0,-5 -4,-10 -10,-10 -5,0 -10,5 -10,10 0,6 5,10 10,10 6,0 10,-4 10,-10 z m 1598,-14 c 3,-12 -1,-17 -10,-14 -7,3 -15,13 -16,22 -3,12 1,17 10,14 7,-3 15,-13 16,-22 z m 96,18 c 21,-8 21,-50 0,-58 -22,-8 -34,1 -34,28 0,33 8,40 34,30 z m 1586,-4 c 0,-5 -4,-10 -10,-10 -5,0 -10,5 -10,10 0,6 5,10 10,10 6,0 10,-4 10,-10 z m 270,-11 c 0,-5 -4,-9 -10,-9 -5,0 -10,7 -10,16 0,8 5,12 10,9 6,-3 10,-10 10,-16 z m 161,-3 c -31,-33 -57,-38 -83,-16 l -23,18 40,7 c 22,4 45,8 50,10 31,11 37,4 16,-19 z m -3201,-8 c 44,-30 49,-48 13,-48 -32,0 -113,35 -113,48 0,30 56,29 100,0 z m 250,12 c 0,-5 -4,-10 -10,-10 -5,0 -10,5 -10,10 0,6 5,10 10,10 6,0 10,-4 10,-10 z m 1550,-4 c 0,-16 -37,-46 -57,-46 -18,0 -16,25 3,44 19,20 54,21 54,2 z m 1705,4 c -8,-13 -45,-13 -65,0 -11,7 -3,10 28,10 26,0 41,-4 37,-10 z m -3725,-4 c 0,-2 -7,-6 -15,-10 -8,-3 -15,-1 -15,4 0,6 7,10 15,10 8,0 15,-2 15,-4 z m 1550,-10 c 0,-24 -50,-56 -86,-56 -36,0 -43,14 -24,51 8,15 22,19 60,19 37,0 50,-4 50,-14 z m 1585,-6 c 4,-6 -15,-10 -50,-10 -35,0 -54,4 -50,10 3,6 26,10 50,10 24,0 47,-4 50,-10 z m -3625,-9 c 0,-6 -4,-13 -10,-16 -5,-3 -10,1 -10,9 0,9 5,16 10,16 6,0 10,-4 10,-9 z m 290,-36 c 0,-19 -5,-35 -11,-35 -5,0 -8,4 -4,9 3,5 1,12 -4,15 -11,7 -2,46 10,46 5,0 9,-16 9,-35 z m 286,19 c 15,-4 24,-13 24,-25 0,-23 -13,-25 -30,-4 -7,8 -23,15 -36,15 -24,0 -31,10 -17,24 4,3 13,4 21,1 8,-3 25,-8 38,-11 z m -812,-3 c 3,-5 0,-11 -8,-14 -15,-6 -26,1 -26,15 0,11 27,10 34,-1 z m 1461,-1 c 3,-5 1,-10 -4,-10 -6,0 -11,5 -11,10 0,6 2,10 4,10 3,0 8,-4 11,-10 z m -815,-41 c 0,-11 -4,-19 -9,-19 -10,0 -21,24 -21,47 0,13 3,13 15,3 8,-7 15,-21 15,-31 z m 2250,26 c 0,-14 -37,-41 -46,-33 -6,6 26,48 37,48 5,0 9,-7 9,-15 z m -449,-143 c -12,-87 -36,-162 -52,-162 -19,0 -8,117 18,207 25,82 29,90 37,66 5,-16 4,-59 -3,-111 z m 225,103 c -6,-17 -54,-50 -62,-42 -3,3 9,22 27,42 31,34 49,34 35,0 z m 1014,21 c 0,-8 -4,-18 -10,-21 -5,-3 -10,3 -10,14 0,12 5,21 10,21 6,0 10,-6 10,-14 z m -3532,-17 c 1,-9 -7,-28 -19,-43 -21,-27 -23,-27 -36,-10 -15,21 -18,48 -3,39 6,-3 10,0 10,9 0,27 43,31 48,5 z m 104,8 c 14,-7 32,-20 41,-29 9,-9 22,-18 29,-21 10,-3 10,-9 2,-24 -8,-13 -9,-25 -2,-36 14,-27 -6,-20 -41,12 -17,16 -36,43 -42,60 -6,17 -15,31 -21,31 -5,0 -6,-4 -3,-10 7,-11 -8,-14 -18,-3 -7,7 11,33 23,33 4,0 19,-6 32,-13 z m 1023,3 c 3,-6 -1,-13 -10,-16 -19,-8 -30,0 -20,15 8,14 22,14 30,1 z m 223,-17 c 23,-31 15,-44 -25,-41 -33,3 -38,6 -35,26 4,25 -1,27 -29,12 -13,-8 -19,-7 -19,0 0,31 84,33 108,3 z m -892,-5 c 9,-13 -25,-40 -46,-36 -8,2 -16,13 -18,26 -3,19 1,22 27,22 16,0 33,-5 37,-12 z m 563,-29 c 39,-22 73,-45 77,-50 3,-5 -12,-9 -33,-9 -22,0 -43,-4 -48,-9 -23,-22 -325,-68 -371,-57 -18,5 -24,13 -24,35 0,39 24,59 48,39 26,-23 87,-42 108,-34 18,7 18,8 1,17 -18,11 -18,19 5,79 7,18 11,21 18,11 6,-11 15,-11 40,-2 43,15 53,6 46,-40 -4,-24 -2,-39 4,-39 14,0 50,60 50,83 0,9 2,17 4,17 2,0 36,-18 75,-41 z m 937,10 -6,-32 21,27 c 23,29 49,35 49,10 0,-8 -12,-31 -27,-50 -42,-56 -117,-85 -85,-34 16,27 15,30 -8,30 -15,0 -20,7 -20,25 0,18 -5,25 -20,25 -20,0 -26,11 -13,23 3,4 31,7 61,7 h 55 z m 847,9 c -13,-12 -26,-19 -29,-15 -4,4 1,14 12,22 29,22 41,18 17,-7 z m -1593,-8 c 0,-5 -4,-10 -10,-10 -5,0 -10,5 -10,10 0,6 5,10 10,10 6,0 10,-4 10,-10 z m 1386,-28 c -18,-16 -18,-16 -6,6 6,13 14,21 18,18 3,-4 -2,-14 -12,-24 z m -2671,8 c 3,-5 -3,-10 -14,-10 -12,0 -21,5 -21,10 0,6 6,10 14,10 8,0 18,-4 21,-10 z m 695,-26 c 0,-8 -4,-12 -10,-9 -5,3 -10,13 -10,21 0,8 5,12 10,9 6,-3 10,-13 10,-21 z m 110,18 c 0,-11 -41,-34 -48,-28 -3,4 3,13 14,21 21,16 34,19 34,7 z m -275,-26 c 47,-14 49,-29 3,-36 -40,-7 -58,-2 -58,16 0,13 -18,19 -47,15 -7,-1 -13,3 -13,9 0,13 65,12 115,-4 z m 2267,-2 c -24,-17 -39,-14 -27,5 3,6 16,11 28,11 h 21 z m -2432,-13 c 0,-11 -31,-24 -39,-16 -3,3 1,10 9,15 19,12 30,12 30,1 z m 2625,-30 c 3,-5 -4,-13 -16,-16 -23,-8 -34,-1 -24,14 8,13 32,14 40,2 z m -2485,-17 c 17,-4 30,-10 30,-15 0,-12 -62,-11 -94,1 -37,14 -34,34 4,26 17,-3 44,-9 60,-12 z m 90,-4 c -20,-13 -40,-13 -40,0 0,6 12,10 28,10 21,0 24,-2 12,-10 z m 1265,-11 c 11,-17 -1,-21 -15,-4 -8,9 -8,15 -2,15 6,0 14,-5 17,-11 z m 1065,-20 c 0,-5 -4,-9 -10,-9 -5,0 -10,7 -10,16 0,8 5,12 10,9 6,-3 10,-10 10,-16 z m -2370,-23 c -25,-13 -48,-22 -52,-20 -15,9 5,33 30,37 61,9 65,5 22,-17 z m 2265,-25 c -12,-11 -85,-26 -85,-17 0,6 55,24 80,25 9,1 10,-2 5,-8 z m 126,-4 c -1,-12 -15,-9 -19,4 -3,6 1,10 8,8 6,-3 11,-8 11,-12 z m -694,-39 c -3,-7 -5,-2 -5,12 0,14 2,19 5,13 2,-7 2,-19 0,-25 z m -339,-39 c -3,-23 -4,-23 -21,8 -24,44 -22,62 4,37 13,-13 19,-31 17,-45 z m 890,31 c 47,0 10,-18 -51,-24 -75,-8 -104,-1 -85,21 9,12 25,14 63,9 27,-3 60,-6 73,-6 z m -198,-38 c 0,-5 -11,-19 -25,-32 -28,-27 -36,-8 -8,22 17,19 33,24 33,10 z m 148,-36 c 3,-11 -5,-26 -18,-36 -19,-14 -20,-18 -7,-23 9,-3 21,1 27,9 17,20 30,18 30,-5 0,-36 -25,-44 -113,-38 -83,5 -117,13 -117,27 0,4 8,10 18,14 9,3 37,22 61,41 35,29 51,35 80,33 26,-2 37,-8 39,-22 z m -506,-38 c 4,-87 -7,-168 -22,-168 -6,0 -10,20 -10,44 0,121 27,228 32,124 z"
       id="path5351" />
  </g>
</svg>
