<?xml version="1.0" encoding="UTF-8" standalone="no"?>
<svg
   version="1.0"
   width="365.828pt"
   height="373.49066pt"
   viewBox="0 0 365.828 373.49066"
   preserveAspectRatio="xMidYMid"
   id="svg5587"
   xmlns="http://www.w3.org/2000/svg"
   xmlns:svg="http://www.w3.org/2000/svg">
  <defs
     id="defs5591" />
  <metadata
     id="metadata5307">
Created by potrace 1.15, written by Peter Selinger 2001-2017
</metadata>
  <g
     transform="matrix(0.1,0,0,-0.1,-365.172,850.95766)"
     fill="#000000"
     stroke="none"
     id="g5585">
    <path
       d="m 5330,8495 c -25,-7 -63,-20 -85,-29 -22,-8 -57,-15 -78,-16 -43,0 -66,-10 -121,-54 -32,-26 -46,-31 -87,-30 -43,2 -48,0 -46,-18 2,-18 -7,-23 -53,-32 -30,-7 -96,-31 -146,-54 -50,-23 -98,-42 -106,-42 -9,0 -32,-19 -53,-41 -40,-44 -39,-41 -19,-151 6,-36 5,-38 -32,-55 -54,-24 -84,-52 -84,-79 0,-56 -37,-75 -58,-29 -15,34 -63,35 -85,2 -9,-14 -39,-31 -73,-43 -34,-11 -76,-36 -103,-60 -52,-47 -91,-68 -141,-79 -56,-12 -88,-33 -115,-75 -21,-34 -30,-39 -67,-42 -40,-3 -43,-5 -49,-38 -3,-19 -13,-52 -22,-74 -32,-72 -18,-169 33,-233 30,-38 27,-88 -7,-110 -37,-23 -44,-34 -38,-58 3,-11 15,-65 26,-120 11,-55 24,-104 28,-108 5,-5 28,5 51,22 55,40 100,41 129,5 26,-33 27,-70 1,-125 -11,-24 -20,-60 -20,-79 -1,-58 -10,-80 -39,-86 -77,-16 -93,-51 -46,-98 19,-19 25,-35 25,-71 0,-25 -2,-45 -5,-45 -3,0 -19,9 -34,21 -31,23 -71,19 -71,-7 0,-10 -12,-14 -39,-14 -30,0 -41,-5 -46,-19 -11,-37 6,-71 46,-92 21,-10 46,-30 55,-44 20,-30 47,-32 81,-5 14,11 30,20 34,20 5,0 9,-30 9,-67 0,-40 6,-80 14,-95 18,-34 10,-35 -28,-4 -16,14 -35,22 -43,19 -7,-3 -24,2 -38,11 -13,9 -33,16 -43,16 -19,0 -82,-59 -82,-77 0,-14 62,-39 149,-58 69,-16 109,-43 96,-65 -4,-7 -31,-27 -61,-46 -60,-39 -67,-59 -38,-120 23,-48 48,-52 98,-15 83,63 169,90 182,56 4,-8 -11,-36 -35,-66 -41,-51 -51,-82 -31,-94 6,-4 19,3 28,16 11,12 35,24 57,28 31,5 40,11 45,31 4,18 14,26 33,28 20,2 29,10 33,30 9,35 70,128 89,136 10,3 15,-1 16,-12 2,-23 2,-17 -6,-100 l -7,-73 36,6 c 47,9 47,-6 1,-52 l -36,-36 -69,7 c -39,3 -70,2 -70,-2 0,-15 66,-72 83,-72 10,0 68,20 130,44 62,25 126,48 142,52 17,4 51,17 77,30 64,33 78,31 78,-7 v -32 l 60,6 c 58,6 60,6 60,-16 0,-30 16,-49 66,-80 54,-33 74,-88 81,-223 7,-119 -8,-254 -45,-412 -22,-97 -24,-115 -11,-123 15,-10 379,-1 390,10 12,12 -10,450 -26,519 -9,36 -42,125 -75,197 -64,142 -87,211 -76,223 4,4 20,-8 34,-26 28,-34 47,-41 55,-19 2,7 22,12 53,12 48,0 49,1 52,33 4,40 12,40 34,2 9,-17 30,-35 45,-41 51,-20 58,-26 61,-48 2,-13 -8,-40 -24,-62 -15,-22 -25,-41 -23,-43 2,-2 60,-11 128,-20 127,-16 151,-25 151,-57 0,-26 31,-39 94,-39 61,0 68,-8 55,-67 -4,-18 -4,-33 1,-33 22,0 79,105 80,146 0,12 7,27 15,34 13,10 21,6 53,-29 35,-39 41,-41 92,-41 44,0 59,-4 73,-21 21,-24 44,-13 49,24 2,18 10,22 41,22 20,0 37,1 37,3 0,2 -16,24 -35,49 -41,53 -40,51 -18,98 9,19 14,37 12,40 -3,2 -36,22 -74,42 -37,21 -67,43 -66,48 1,6 40,9 101,6 95,-3 100,-2 100,17 0,26 -45,62 -76,62 -33,0 -64,34 -64,69 0,21 11,39 36,63 38,35 64,77 64,102 0,12 -7,14 -30,10 -17,-4 -30,-2 -30,4 0,20 30,33 67,30 l 38,-3 -3,-42 c -2,-30 2,-50 17,-70 12,-15 27,-54 33,-86 11,-54 11,-60 -6,-72 -26,-19 -14,-63 20,-71 38,-10 99,3 155,32 42,23 57,25 101,20 28,-4 64,-14 79,-22 15,-7 31,-14 35,-14 12,0 -6,50 -36,97 -19,30 -30,60 -30,84 0,33 -3,37 -31,43 -17,3 -44,20 -61,38 l -30,32 7,-56 c 4,-31 4,-62 0,-68 -12,-19 -35,9 -41,52 -4,22 -15,45 -26,52 -20,14 -20,15 4,28 14,8 55,13 108,13 99,0 168,-27 197,-76 20,-34 24,-35 40,-10 6,10 26,21 43,25 18,3 59,26 92,51 64,48 98,60 198,70 86,8 160,25 160,36 0,5 -15,9 -33,9 -63,0 -71,15 -77,142 -4,97 -8,117 -28,146 -18,24 -31,32 -53,32 -24,0 -29,4 -25,18 2,9 8,32 11,51 7,33 7,34 -21,28 -16,-4 -50,-13 -76,-21 -45,-14 -48,-14 -58,4 -5,10 -36,28 -67,40 -32,12 -65,28 -73,35 -8,7 -48,17 -88,21 -65,6 -102,21 -102,42 1,28 22,34 120,36 113,2 100,-5 173,90 16,20 44,44 64,54 37,17 62,46 51,57 -3,4 -24,-3 -47,-14 -76,-39 -91,-23 -91,101 0,102 -6,125 -33,132 -12,3 -45,26 -74,51 -28,25 -57,45 -65,45 -7,0 -29,-13 -48,-29 -65,-53 -104,-49 -60,6 33,42 26,84 -23,145 -77,94 -79,109 -15,106 19,-1 40,2 46,6 22,13 41,63 58,149 14,70 15,89 4,102 -27,32 -61,15 -74,-37 -3,-16 -13,-28 -21,-28 -23,0 -64,22 -70,38 -8,21 22,62 45,62 25,0 40,29 40,75 0,35 -1,37 -27,31 -16,-4 -40,-16 -55,-26 -35,-25 -93,-26 -180,-1 -120,33 -133,52 -81,115 13,16 22,35 19,43 -3,7 1,16 9,19 34,13 16,57 -47,119 -78,74 -142,110 -259,141 -50,13 -104,33 -119,44 -15,11 -49,24 -76,31 -85,20 -112,36 -134,79 -23,44 -38,50 -64,21 -18,-19 -18,-19 -49,0 -38,23 -137,25 -207,4 z m -48,-439 c 25,-18 12,-26 -44,-26 -42,0 -48,-3 -48,-20 0,-11 7,-23 15,-26 32,-13 59,-102 48,-157 -7,-35 -45,-56 -68,-37 -11,9 -15,34 -15,100 0,72 -3,92 -20,113 -25,31 -25,43 -2,56 25,15 114,13 134,-3 z m 312,-82 c 22,-8 20,-31 -3,-44 -25,-13 -52,-13 -71,0 -13,9 -12,13 9,30 24,21 39,24 65,14 z m 540,-163 c 9,-14 -20,-21 -77,-20 l -52,1 30,13 c 34,16 91,19 99,6 z M 4617,7564 c 3,-8 -1,-22 -9,-30 -19,-19 -52,3 -42,29 8,21 43,22 51,1 z m 591,-12 c 4,-24 -7,-29 -26,-10 -18,18 -15,40 6,36 9,-2 18,-13 20,-26 z m 497,-22 c 22,-43 20,-97 -6,-111 -40,-21 -183,8 -204,41 -20,33 85,100 157,100 31,0 40,-5 53,-30 z m 785,-10 c 0,-15 -7,-20 -25,-20 -27,0 -32,9 -13,28 18,18 38,14 38,-8 z m -646,-63 c 16,-12 16,-14 -3,-31 -18,-16 -25,-17 -46,-8 -14,6 -25,18 -25,26 0,26 45,34 74,13 z m -681,-33 c 24,-20 37,-24 61,-20 101,19 107,19 100,2 -3,-8 -33,-32 -65,-52 -33,-19 -65,-45 -71,-57 -12,-21 -13,-20 -18,13 -4,25 -14,40 -40,57 -58,38 -61,42 -50,63 15,27 46,25 83,-6 z m -866,-186 c 29,-14 44,-48 21,-48 -22,0 -118,51 -118,62 0,13 59,5 97,-14 z m 1402,-49 c 35,-12 51,-35 51,-74 0,-25 -3,-27 -36,-23 -33,4 -35,3 -29,-20 l 6,-25 -63,7 c -70,8 -128,29 -128,47 0,21 68,77 107,87 52,14 55,14 92,1 z m -486,-21 c 7,-21 -4,-38 -23,-38 -23,0 -34,16 -26,35 7,18 43,20 49,3 z m -907,-259 c 10,-16 -22,-43 -42,-35 -16,6 -16,8 1,26 20,23 31,25 41,9 z m 1614,-54 c 23,-28 -3,-40 -39,-19 -17,10 -31,22 -31,26 0,14 57,8 70,-7 z m -820,-14 c 0,-25 -35,-68 -70,-86 -56,-29 -54,-13 6,54 49,55 64,62 64,32 z m 55,-104 c -11,-53 -32,-77 -66,-77 -59,0 -47,65 18,99 46,23 56,19 48,-22 z m 311,-12 c -9,-35 -79,-110 -94,-101 -33,20 2,106 52,130 37,18 51,8 42,-29 z m -921,25 c 25,-10 43,-35 32,-47 -8,-7 -97,36 -97,48 0,12 32,11 65,-1 z m -412,-51 c -6,-22 -21,-21 -37,3 -7,12 -6,21 4,33 13,16 15,16 26,0 6,-9 10,-25 7,-36 z m 281,7 c -3,-9 -10,-16 -15,-16 -11,0 -11,7 -2,39 5,19 8,20 14,8 5,-8 6,-22 3,-31 z m 1789,-75 c 27,-28 57,-51 68,-51 20,0 24,-16 11,-37 -9,-15 -82,-46 -90,-39 -3,3 -10,16 -16,28 -7,13 -32,30 -61,41 -28,10 -57,25 -65,33 -13,13 -10,20 27,55 50,46 54,45 126,-30 z m -1930,-78 c 11,-10 -26,-32 -55,-33 -30,0 -35,9 -16,28 13,13 60,16 71,5 z m 102,-13 c -8,-13 -35,-13 -55,0 -11,7 -5,10 23,10 23,0 36,-4 32,-10 z m 1190,-80 c 4,-6 -7,-10 -24,-10 -17,0 -31,5 -31,10 0,6 11,10 24,10 14,0 28,-4 31,-10 z m 185,-15 c 0,-27 -9,-32 -28,-13 -18,18 -14,38 8,38 15,0 20,-7 20,-25 z m 700,-65 c 0,-5 -7,-13 -17,-18 -41,-24 26,-62 109,-62 44,0 68,-21 68,-61 0,-29 13,-39 25,-19 3,6 16,10 27,10 11,0 26,7 33,16 10,14 18,13 83,-15 40,-16 79,-28 87,-25 9,4 30,-9 52,-31 32,-32 35,-38 21,-51 -17,-17 -87,-22 -126,-10 -15,5 -31,24 -43,52 -17,40 -21,44 -39,34 -27,-15 -53,-57 -46,-75 9,-23 -2,-19 -73,34 -101,74 -109,77 -121,45 l -10,-27 -108,5 c -111,5 -182,25 -182,51 0,7 19,22 43,33 35,16 43,24 47,54 5,34 6,35 47,32 32,-3 46,1 62,17 21,21 61,29 61,11 z m -590,-41 c 39,-75 12,-105 -71,-80 -37,11 -89,52 -89,71 0,6 23,10 54,10 45,0 54,3 59,20 8,31 25,24 47,-21 z m 730,31 c 0,-5 -11,-10 -24,-10 -14,0 -28,5 -31,10 -4,6 7,10 24,10 17,0 31,-4 31,-10 z m -2326,-42 c 24,-33 20,-49 -8,-42 -15,3 -34,-1 -50,-11 -14,-10 -33,-15 -41,-11 -32,12 28,84 72,86 6,0 19,-10 27,-22 z m 1267,12 c 31,-17 55,-76 50,-127 -1,-7 -13,-13 -28,-13 -37,0 -111,-38 -125,-63 -6,-12 -14,-35 -18,-52 -4,-21 -12,-31 -27,-33 -33,-5 -44,25 -26,77 8,24 12,52 10,62 -6,22 10,24 61,10 36,-11 40,-2 17,39 -23,40 -18,57 16,64 19,4 33,13 36,26 6,23 8,24 34,10 z m -636,-50 c 0,-28 -4,-35 -20,-35 -13,0 -21,8 -23,23 -5,34 5,54 25,50 13,-2 18,-13 18,-38 z m 822,-31 c 15,-15 5,-39 -17,-39 -20,0 -53,33 -43,43 10,11 48,8 60,-4 z m 353,1 c 0,-6 -11,-15 -25,-22 -19,-8 -28,-8 -40,2 -8,7 -12,16 -9,21 7,13 74,11 74,-1 z m -1010,-84 c 9,-27 8,-42 -4,-71 -13,-31 -20,-36 -43,-33 -25,3 -28,7 -27,35 2,33 39,103 54,103 5,0 14,-15 20,-34 z m 971,8 c 22,-20 31,-17 24,7 -5,14 -3,19 4,15 15,-10 33,-85 27,-112 -4,-13 -21,-31 -38,-40 -40,-20 -130,-21 -158,-1 -21,14 -21,15 7,22 39,9 53,23 53,52 0,16 -7,27 -20,30 -29,8 -25,22 13,38 34,15 62,11 88,-11 z M 4739,5998 c 12,-53 10,-65 -8,-53 -25,15 -41,63 -31,90 14,36 26,24 39,-37 z m -361,-9 c 36,-12 34,-29 -3,-29 -15,0 -31,-10 -41,-25 -12,-19 -20,-23 -29,-15 -20,17 -24,49 -8,65 17,18 39,19 81,4 z m 1681,-102 c 42,-26 25,-34 -35,-17 -47,13 -59,23 -49,40 8,13 39,5 84,-23 z m -1522,-9 c 36,-38 56,-75 49,-87 -15,-24 -157,-14 -184,13 -14,14 -11,20 30,61 25,25 52,45 60,45 8,0 28,-15 45,-32 z m -447,-10 c 0,-19 -67,-61 -85,-54 -21,7 -11,22 29,47 36,22 56,24 56,7 z m 1809,-57 c 7,-5 9,-11 4,-14 -14,-9 -54,4 -47,14 7,11 25,11 43,0 z m -313,-101 c 7,-24 23,-52 35,-61 21,-16 21,-16 -20,-23 -50,-8 -87,0 -95,21 -9,23 12,91 32,102 26,16 34,9 48,-39 z m 372,-2 c 16,-50 24,-126 17,-148 -8,-26 -29,-25 -48,3 l -16,22 -20,-25 -21,-25 v 23 c 0,30 -22,71 -54,101 -25,24 -34,55 -18,65 4,3 26,1 47,-4 28,-6 46,-5 64,5 36,20 38,19 49,-17 z m -196,-55 c 19,-17 25,-53 9,-53 -16,0 -41,31 -41,51 0,23 8,24 32,2 z m 333,-49 c 18,-19 13,-59 -10,-83 -13,-13 -16,-10 -29,21 -25,60 0,101 39,62 z"
       id="path5315" />
  </g>
</svg>
