<?xml version="1.0" encoding="UTF-8" standalone="no"?>
<svg
   version="1.0"
   width="321.93533pt"
   height="433.83328pt"
   viewBox="0 0 321.93533 433.83328"
   preserveAspectRatio="xMidYMid"
   id="svg5587"
   xmlns="http://www.w3.org/2000/svg"
   xmlns:svg="http://www.w3.org/2000/svg">
  <defs
     id="defs5591" />
  <metadata
     id="metadata5307">
Created by potrace 1.15, written by Peter Selinger 2001-2017
</metadata>
  <g
     transform="matrix(0.1,0,0,-0.1,-7,438.83328)"
     fill="#000000"
     stroke="none"
     id="g5585">
    <path
       d="m 1735,4383 c -11,-3 -32,-14 -47,-25 -21,-14 -32,-17 -47,-9 -15,9 -20,7 -24,-9 -3,-12 -14,-20 -26,-20 -14,0 -21,-6 -21,-20 0,-15 -7,-20 -29,-20 -16,0 -37,-7 -46,-16 -14,-15 -19,-14 -63,9 -47,25 -211,71 -220,62 -3,-2 1,-11 8,-20 11,-13 9,-15 -11,-15 -13,0 -40,4 -59,10 l -35,10 30,-24 c 25,-21 28,-28 19,-43 -6,-10 -26,-22 -43,-27 -25,-7 -31,-14 -28,-28 4,-13 0,-18 -14,-18 -23,0 -24,-8 -3,-31 23,-26 12,-45 -31,-53 -42,-8 -70,-1 -105,26 -22,18 -25,18 -36,3 -13,-18 -34,-12 -34,9 0,10 -20,12 -82,8 -93,-5 -118,-14 -118,-42 0,-11 -5,-20 -11,-20 -6,0 -21,-8 -34,-19 -18,-13 -21,-21 -12,-30 13,-13 7,-14 -61,-11 -23,1 -66,-6 -94,-16 l -52,-17 23,-18 c 29,-23 50,-24 80,-3 23,16 23,16 11,-5 -10,-20 -9,-23 10,-28 16,-4 18,-8 8,-14 -7,-5 -23,-9 -35,-9 -28,0 -29,-8 -6,-26 16,-11 15,-13 -12,-20 -35,-8 -65,-31 -65,-51 0,-7 -6,-13 -13,-13 -8,0 -22,-9 -32,-20 -15,-17 -16,-24 -7,-46 7,-14 9,-36 6,-50 -8,-30 2,-31 27,-1 19,22 19,22 34,2 14,-18 14,-20 1,-23 -12,-3 -14,-15 -9,-67 4,-41 2,-69 -5,-78 -7,-8 -7,-18 -2,-27 19,-30 9,-33 -20,-5 -27,26 -30,27 -30,9 0,-28 -28,-64 -51,-64 -10,0 -19,-7 -19,-15 0,-9 -9,-15 -25,-15 -31,0 -33,-22 -5,-50 25,-25 25,-29 0,-23 -17,4 -20,0 -20,-23 -1,-16 -11,-42 -25,-58 -20,-25 -26,-27 -39,-17 -12,10 -16,9 -25,-7 -28,-52 -31,-145 -3,-96 15,28 26,-4 11,-33 -10,-19 -11,-28 -1,-44 7,-10 8,-19 3,-19 -6,0 -13,5 -16,10 -3,6 -13,10 -21,10 -19,0 -18,-36 1,-44 22,-8 18,-26 -5,-26 -19,0 -20,-4 -14,-52 4,-29 13,-64 20,-78 8,-14 18,-32 23,-40 17,-33 41,-77 58,-108 12,-24 22,-31 35,-26 11,3 25,0 33,-6 12,-10 15,-9 15,6 0,11 -7,28 -15,38 -11,14 -12,23 -4,33 18,21 39,15 39,-11 0,-37 55,-79 95,-72 20,4 38,1 50,-9 34,-25 51,-18 25,10 -21,23 -16,37 5,16 6,-5 23,-11 38,-13 27,-3 27,-4 12,-25 -14,-20 -25,-23 -80,-23 -35,0 -66,-4 -70,-9 -3,-6 -26,-13 -50,-17 -47,-7 -62,-24 -22,-24 20,-1 20,-2 5,-11 -10,-5 -18,-21 -18,-35 0,-26 -5,-26 -57,-7 -17,7 -17,-19 -1,-36 11,-10 6,-11 -23,-6 -23,4 -39,3 -43,-4 -4,-6 -15,-11 -25,-11 -9,0 -30,-13 -46,-30 l -29,-30 h 38 c 22,0 54,9 72,21 19,11 38,18 43,14 16,-9 1,-34 -22,-37 -16,-2 -21,-9 -19,-25 3,-24 -12,-30 -38,-14 -26,17 -32,-1 -9,-25 l 23,-24 -32,6 c -39,8 -42,-7 -7,-42 29,-29 31,-36 10,-27 -17,6 -75,-51 -75,-73 0,-29 14,-44 40,-44 27,0 56,-21 44,-33 -3,-3 -18,-1 -32,4 -19,7 -29,6 -40,-5 -13,-12 -10,-17 24,-34 l 39,-21 -32,-11 c -38,-14 -43,-39 -12,-58 20,-13 21,-24 4,-63 -4,-11 2,-24 16,-38 35,-32 80,-26 47,7 -6,6 -9,14 -5,18 12,12 24,-6 31,-44 3,-22 13,-45 22,-53 14,-12 19,-10 39,15 15,19 29,27 39,23 20,-8 21,7 1,23 -31,26 -16,35 54,35 87,0 113,-18 52,-36 -28,-8 -41,-18 -41,-30 0,-10 -7,-22 -15,-27 -9,-4 -30,-30 -48,-57 -18,-28 -48,-58 -69,-69 -43,-22 -49,-36 -14,-36 29,0 49,-22 40,-44 -4,-10 -18,-16 -39,-16 -19,0 -36,-4 -39,-8 -3,-5 13,-30 34,-56 31,-37 38,-54 34,-72 -4,-14 -2,-24 4,-24 6,0 17,-3 26,-6 11,-4 16,-1 16,10 0,9 7,16 15,16 12,0 14,-8 10,-37 -6,-41 17,-123 29,-104 11,17 23,13 31,-11 7,-22 8,-21 12,7 3,17 9,35 15,42 6,8 6,19 -1,32 -15,27 -14,29 11,33 18,2 22,8 20,28 -4,25 -3,24 31,-9 36,-34 57,-35 57,-1 0,30 16,32 29,4 18,-40 14,-52 -14,-46 -31,5 -32,-5 -3,-35 19,-20 20,-27 10,-43 -7,-11 -12,-26 -12,-34 0,-14 -41,-26 -87,-26 -22,0 -24,-2 -12,-16 12,-14 9,-20 -21,-45 -19,-16 -45,-29 -59,-29 -23,0 -24,-1 -6,-20 18,-20 17,-20 -10,-20 h -29 l 30,-31 29,-32 -27,5 c -40,7 -56,-6 -36,-29 16,-18 21,-35 19,-62 -1,-18 -31,5 -31,25 0,8 -4,14 -10,14 -14,0 -13,-5 10,-51 27,-52 45,-58 79,-25 32,31 41,32 41,7 0,-22 25,-45 40,-36 5,3 10,13 10,21 0,17 27,19 33,2 2,-7 -2,-21 -11,-30 -8,-10 -12,-25 -8,-34 6,-15 8,-15 27,2 21,19 21,19 14,-19 -5,-24 -3,-37 3,-37 18,0 25,21 24,67 v 45 l 25,-24 c 23,-21 26,-22 36,-6 11,16 14,15 39,-9 22,-21 28,-23 28,-10 0,10 8,17 18,17 27,0 62,29 62,51 0,10 5,19 11,19 7,0 9,-10 7,-25 -7,-32 7,-32 37,1 31,33 31,44 4,51 -19,5 -18,7 12,20 22,9 52,12 89,8 48,-5 53,-4 37,8 -25,21 -21,27 16,27 55,0 64,-13 34,-50 -15,-17 -27,-35 -27,-40 0,-12 37,-23 51,-15 6,4 17,-2 25,-14 8,-12 22,-21 31,-21 9,0 26,-9 38,-20 25,-24 50,-18 60,13 8,24 6,28 21,-40 6,-28 24,-30 24,-3 0,12 7,20 16,20 12,0 15,6 10,23 -19,72 -19,72 -5,59 18,-17 27,-15 34,8 4,11 20,27 36,35 35,19 37,37 7,58 -28,18 -15,36 13,18 12,-7 22,-11 23,-9 34,53 37,63 31,94 -3,19 -4,34 -2,34 15,0 89,-129 112,-195 15,-44 42,-123 60,-175 18,-52 38,-134 45,-181 18,-124 7,-345 -24,-482 L 1552,50 h 174 174 l -8,48 c -4,26 -7,198 -6,382 1,256 5,359 17,437 23,147 35,168 102,199 39,18 59,23 68,16 8,-7 18,-6 31,3 14,11 24,11 38,4 11,-6 32,-8 46,-5 26,6 26,6 7,-9 -11,-9 -30,-13 -41,-11 -31,8 -38,-19 -11,-41 15,-12 21,-26 19,-43 l -4,-25 24,23 c 27,24 57,29 62,10 4,-17 22,-69 31,-90 4,-10 3,-18 -3,-18 -5,0 -13,10 -17,22 l -8,23 -4,-23 c -3,-13 1,-30 7,-38 23,-27 80,-11 80,22 0,7 5,25 10,40 10,26 11,26 30,9 20,-18 50,-14 50,7 0,7 -9,24 -20,38 -27,35 -25,40 17,37 31,-2 37,2 42,21 l 6,24 24,-26 c 28,-30 57,-35 46,-8 -17,43 -16,45 14,12 27,-30 31,-32 26,-12 -7,24 39,105 88,160 27,30 39,28 60,-10 l 19,-33 12,24 13,24 17,-24 c 9,-13 16,-31 16,-41 0,-21 4,-22 31,-8 15,9 21,7 25,-5 3,-8 9,-15 13,-15 10,0 34,70 27,77 -3,4 -1,12 5,19 7,8 7,14 -1,19 -15,9 -12,25 5,25 8,0 22,9 32,19 10,11 29,21 43,23 48,6 27,40 -32,53 -16,3 -28,10 -28,15 0,5 7,7 15,4 8,-4 21,-1 29,5 10,8 18,5 36,-14 12,-13 37,-27 54,-30 17,-4 42,-14 55,-22 18,-11 26,-12 35,-3 8,9 3,19 -24,41 -20,17 -28,29 -19,29 8,0 20,-5 26,-11 7,-7 19,-9 27,-6 18,7 22,52 6,62 -6,3 -8,16 -4,29 7,27 -9,69 -36,96 -19,19 -20,23 -7,38 9,9 19,31 23,47 4,17 11,35 16,42 13,17 -1,62 -24,74 -25,13 -35,4 -18,-16 10,-12 10,-15 -4,-15 -14,0 -49,41 -82,96 -9,16 -13,17 -27,5 -14,-11 -19,-8 -38,23 -23,39 -45,49 -36,16 7,-29 -1,-25 -71,29 l -62,49 -40,-15 c -22,-9 -40,-20 -40,-25 0,-19 -40,-5 -90,32 -29,22 -64,40 -77,40 -32,0 -29,18 5,25 15,4 36,8 47,10 11,3 30,-5 42,-17 27,-25 40,-19 23,11 -8,15 -8,27 0,42 15,28 6,35 -26,20 -40,-18 -38,-9 6,34 l 40,39 6,-32 c 8,-38 24,-53 24,-22 0,11 9,28 20,37 28,25 25,60 -10,95 -16,16 -30,34 -30,39 0,14 60,-23 71,-43 16,-29 29,-20 29,19 0,42 9,38 20,-9 l 7,-33 13,28 c 13,27 30,31 38,9 2,-7 -3,-12 -12,-12 -18,0 -21,-15 -6,-25 6,-3 10,-19 10,-36 0,-16 5,-29 10,-29 6,0 10,-7 10,-15 0,-19 16,-19 24,0 3,8 10,15 17,15 6,0 9,-7 5,-15 -3,-8 -2,-15 3,-15 9,0 41,60 41,77 1,15 49,63 65,63 17,0 20,23 4,51 -6,11 -8,25 -6,32 3,7 13,-7 23,-30 11,-24 22,-43 27,-43 11,0 9,38 -3,45 -15,10 -12,35 5,35 11,0 15,11 15,40 0,30 -7,48 -31,75 -29,32 -30,35 -10,35 12,0 21,3 21,6 0,16 -71,74 -90,74 -20,0 -20,1 -4,25 11,17 25,25 45,25 39,0 37,17 -3,25 -26,6 -35,4 -46,-14 -18,-27 -102,-31 -102,-6 0,13 7,15 34,9 34,-6 35,-6 38,33 3,33 6,38 31,41 22,3 27,-1 27,-17 0,-22 14,-28 25,-11 3,5 16,-1 28,-13 l 22,-22 3,23 c 3,20 8,23 30,17 15,-4 37,-16 50,-27 20,-20 22,-20 22,-4 0,13 5,17 20,13 24,-6 27,20 5,49 -22,29 -18,53 11,64 19,8 23,14 16,23 -6,6 -13,29 -17,49 -4,21 -13,42 -21,49 -18,15 -9,28 15,22 35,-9 33,16 -2,33 -33,16 -73,75 -68,101 1,8 -18,13 -56,15 -73,4 -81,28 -15,41 37,7 46,6 58,-10 13,-17 15,-17 34,6 11,13 20,30 20,38 0,8 13,19 30,24 34,12 37,21 15,39 -8,7 -15,16 -15,21 0,5 7,9 15,9 8,0 15,5 15,10 0,6 9,10 20,10 28,0 25,18 -5,32 -14,6 -25,15 -25,20 0,4 -14,22 -30,40 -39,40 -48,74 -26,96 16,16 16,15 14,-8 -4,-34 23,-33 33,2 11,42 -13,65 -93,89 -49,14 -81,31 -102,52 -17,18 -47,44 -66,59 -32,25 -33,27 -12,28 13,0 37,-7 53,-16 37,-19 46,-13 31,21 -10,22 -9,25 9,25 24,0 21,18 -4,34 -13,8 -20,8 -26,-3 -7,-10 -12,-8 -25,10 -23,34 -20,37 24,26 79,-22 66,14 -33,88 -36,28 -63,51 -59,52 4,1 19,4 35,7 35,8 34,22 -4,41 -23,12 -29,21 -24,36 7,20 -18,28 -30,9 -13,-22 -25,-8 -25,30 0,33 -4,42 -25,52 -13,6 -22,14 -20,18 11,19 -85,60 -140,60 -17,0 -35,4 -40,9 -6,6 -35,11 -65,13 -47,3 -55,6 -52,22 3,17 -3,18 -101,11 -73,-5 -107,-4 -111,4 -4,6 -1,11 8,11 16,0 42,38 32,47 -3,3 -38,-7 -78,-23 -53,-22 -73,-34 -72,-47 1,-12 -6,-17 -27,-17 -19,0 -42,-12 -68,-35 -43,-39 -51,-42 -51,-19 0,13 -8,15 -35,12 -39,-5 -42,-2 -19,23 20,22 12,36 -25,44 -32,7 -82,65 -56,65 11,0 14,6 9,25 -6,25 -5,26 45,41 11,3 11,8 3,16 -8,8 -27,8 -70,-2 -51,-10 -63,-10 -90,4 -31,16 -58,18 -97,9 z M 485,3760 c 3,-6 -4,-10 -17,-10 -18,0 -20,2 -8,10 19,12 18,12 25,0 z m 2690,-520 c 3,-5 3,-15 -1,-21 -6,-11 -23,6 -24,24 0,10 18,9 25,-3 z m -19,-66 c 18,-15 17,-15 -16,-10 -43,8 -64,26 -29,26 14,0 34,-7 45,-16 z m -166,-85 c 0,-5 -4,-9 -10,-9 -5,0 -10,7 -10,16 0,8 5,12 10,9 6,-3 10,-10 10,-16 z m -908,-51 c -7,-7 -12,-8 -12,-2 0,14 12,26 19,19 2,-3 -1,-11 -7,-17 z m -392,-33 c 8,-9 9,-15 2,-15 -6,0 -14,5 -17,10 -4,6 -11,8 -16,5 -5,-4 -9,-1 -9,4 0,16 26,13 40,-4 z m 1477,-180 c 9,-25 -2,-27 -22,-5 -17,18 -17,20 -1,20 9,0 19,-7 23,-15 z M 525,2780 c -10,-11 -20,-18 -23,-15 -7,6 18,35 31,35 5,0 2,-9 -8,-20 z m -74,-9 c 23,-19 24,-19 5,-40 -11,-12 -25,-21 -31,-21 -16,0 -27,27 -15,35 7,4 6,13 0,26 -14,26 9,26 41,0 z m -201,-22 c 0,-6 -4,-7 -10,-4 -5,3 -10,11 -10,16 0,6 5,7 10,4 6,-3 10,-11 10,-16 z m 126,-26 c -11,-11 -17,4 -9,23 7,18 8,18 11,1 2,-10 1,-21 -2,-24 z m 2724,16 c 0,-6 -4,-7 -10,-4 -5,3 -10,11 -10,16 0,6 5,7 10,4 6,-3 10,-11 10,-16 z m 95,-19 c 8,-13 -5,-13 -25,0 -13,8 -13,10 2,10 9,0 20,-4 23,-10 z m -1880,-30 c 3,-5 1,-10 -4,-10 -6,0 -11,5 -11,10 0,6 2,10 4,10 3,0 8,-4 11,-10 z m 125,-30 c 0,-5 -7,-10 -15,-10 -8,0 -15,5 -15,10 0,6 7,10 15,10 8,0 15,-4 15,-10 z m 36,-54 c -14,-33 -19,-36 -54,-36 -29,0 -43,-6 -54,-22 -12,-17 -18,-19 -34,-10 -15,9 -23,6 -42,-11 -27,-25 -55,-15 -60,22 -4,24 13,29 22,6 9,-25 25,-17 43,20 l 16,34 73,-6 73,-6 7,29 c 9,40 18,52 22,32 2,-9 -4,-32 -12,-52 z m -376,10 c 0,-8 3,-22 7,-32 4,-11 3,-15 -4,-11 -13,8 -23,57 -12,57 5,0 9,-6 9,-14 z m 120,-17 c 0,-5 -4,-9 -10,-9 -5,0 -10,7 -10,16 0,8 5,12 10,9 6,-3 10,-10 10,-16 z m 360,-44 c -13,-16 -40,-20 -40,-7 0,14 12,22 33,22 16,0 17,-3 7,-15 z m 1430,-265 c 0,-5 -4,-10 -10,-10 -5,0 -10,5 -10,10 0,6 5,10 10,10 6,0 10,-4 10,-10 z m -63,-42 c -3,-8 -6,-5 -6,6 -1,11 2,17 5,13 3,-3 4,-12 1,-19 z m -321,-57 c 0,-15 -3,-17 -13,-9 -7,6 -10,14 -7,19 9,15 20,10 20,-10 z m 304,9 c 0,-5 -7,-10 -15,-10 -8,0 -15,5 -15,10 0,6 7,10 15,10 8,0 15,-4 15,-10 z m -690,-155 c 0,-17 -66,-75 -85,-75 -25,0 -39,38 -24,62 6,9 9,10 9,1 0,-7 9,-17 20,-23 16,-9 24,-6 42,15 19,23 38,32 38,20 z m -235,-25 c -3,-5 -11,-10 -16,-10 -6,0 -7,5 -4,10 3,6 11,10 16,10 6,0 7,-4 4,-10 z m 42,-32 c -3,-7 -5,-2 -5,12 0,14 2,19 5,13 2,-7 2,-19 0,-25 z m -1767,7 c 0,-8 -4,-15 -10,-15 -5,0 -10,7 -10,15 0,8 5,15 10,15 6,0 10,-7 10,-15 z m 1552,-17 c -7,-7 -12,-8 -12,-2 0,6 3,14 7,17 3,4 9,5 12,2 2,-3 -1,-11 -7,-17 z m -1292,-8 c 0,-5 -4,-10 -10,-10 -5,0 -10,5 -10,10 0,6 5,10 10,10 6,0 10,-4 10,-10 z m 1424,4 c 31,-12 16,-27 -20,-21 -25,4 -41,2 -51,-8 -18,-19 -76,-20 -71,-2 7,20 110,43 142,31 z M 334,1944 c 9,-3 14,-10 11,-15 -7,-10 -35,0 -35,12 0,11 3,11 24,3 z m 66,-4 c 8,-5 12,-11 9,-14 -3,-3 -14,1 -25,9 -21,16 -8,20 16,5 z m 105,-48 c -22,-5 -50,22 -40,38 5,8 15,5 32,-12 21,-20 22,-23 8,-26 z m 1065,13 c 16,-9 19,-14 9,-15 -8,0 -24,7 -35,15 -24,18 -7,19 26,0 z m 200,-2 c 0,-16 -48,-31 -59,-20 -19,19 -12,27 24,27 19,0 35,-3 35,-7 z m -350,-7 c 0,-11 -19,-15 -25,-6 -3,5 1,10 9,10 9,0 16,-2 16,-4 z m 267,-31 c 13,-29 -1,-34 -17,-6 -12,23 -13,31 -2,31 4,0 12,-11 19,-25 z m -150,1 c 1,-1 0,-12 -4,-24 -3,-13 -13,-22 -24,-22 -15,0 -19,7 -19,31 0,27 3,30 23,23 12,-3 23,-7 24,-8 z m 1573,-331 c 0,-8 -4,-15 -10,-15 -5,0 -10,7 -10,15 0,8 5,15 10,15 6,0 10,-7 10,-15 z M 268,1512 c 6,-18 -15,-14 -22,4 -4,10 -1,14 6,12 6,-2 14,-10 16,-16 z m 307,-52 c 3,-5 1,-10 -4,-10 -6,0 -11,5 -11,10 0,6 2,10 4,10 3,0 8,-4 11,-10 z m 2530,1 c 3,-5 1,-12 -5,-16 -5,-3 -10,1 -10,9 0,18 6,21 15,7 z m -1342,-67 c 26,-9 47,-21 47,-26 0,-15 -48,-58 -66,-58 -10,0 -14,-12 -14,-39 0,-22 -6,-44 -15,-51 -23,-19 1,-43 35,-36 l 27,5 -44,-122 c -24,-67 -46,-128 -48,-134 -9,-27 -27,-11 -55,49 -31,66 -53,154 -48,190 2,19 11,24 43,28 40,5 40,5 43,53 3,45 5,48 43,63 21,9 39,18 39,21 0,3 -9,16 -20,30 -18,23 -26,43 -17,43 2,0 24,-7 50,-16 z M 655,1370 c 3,-5 -1,-10 -9,-10 -9,0 -16,5 -16,10 0,6 4,10 9,10 6,0 13,-4 16,-10 z m 2215,-120 c 0,-11 -4,-20 -10,-20 -5,0 -10,9 -10,20 0,11 5,20 10,20 6,0 10,-9 10,-20 z m -860,-50 c 0,-5 -2,-10 -4,-10 -2,0 -12,-3 -20,-6 -12,-5 -15,-2 -10,10 7,17 34,22 34,6 z m 490,-26 c 0,-8 -4,-12 -10,-9 -5,3 -10,10 -10,16 0,5 5,9 10,9 6,0 10,-7 10,-16 z M 1275,1012 c -7,-7 -55,39 -55,52 0,5 13,-3 30,-19 16,-16 28,-31 25,-33 z m -169,-70 c -12,-11 -18,7 -10,30 l 8,23 4,-23 c 2,-13 1,-26 -2,-30 z"
       id="path5409" />
  </g>
</svg>
