<?xml version="1.0" encoding="UTF-8" standalone="no"?>
<svg
   version="1.0"
   width="110.9207pt"
   height="413pt"
   viewBox="0 0 110.9207 413"
   preserveAspectRatio="xMidYMid"
   id="svg5587"
   xmlns="http://www.w3.org/2000/svg"
   xmlns:svg="http://www.w3.org/2000/svg">
  <defs
     id="defs5591" />
  <metadata
     id="metadata5307">
Created by potrace 1.15, written by Peter Selinger 2001-2017
</metadata>
  <g
     transform="matrix(0.1,0,0,-0.1,-1148.0793,413)"
     fill="#000000"
     stroke="none"
     id="g5585">
    <path
       d="m 12092,4105 c 4,-20 2,-24 -11,-20 -11,3 -28,-6 -45,-24 -23,-24 -26,-32 -17,-49 10,-18 6,-25 -29,-53 -22,-18 -40,-36 -40,-40 0,-5 18,-18 40,-29 47,-24 51,-32 11,-24 -23,5 -32,2 -41,-16 -9,-17 -8,-26 5,-47 14,-21 15,-27 4,-34 -8,-5 -19,-9 -24,-9 -6,0 -26,-13 -45,-29 -32,-26 -34,-31 -25,-57 8,-22 16,-28 33,-26 26,4 30,-16 5,-24 -10,-3 -26,-10 -36,-15 -22,-12 -36,-4 -47,25 -7,20 -8,19 -15,-9 -3,-16 -11,-41 -17,-55 -8,-21 -6,-28 18,-47 l 27,-22 -25,-33 c -51,-67 -53,-77 -23,-108 l 27,-28 -30,-16 c -32,-16 -46,-43 -37,-67 3,-9 -5,-18 -25,-26 -45,-17 -38,-35 10,-27 38,6 39,6 37,-22 -2,-22 2,-29 15,-28 10,1 15,-2 12,-7 -6,-10 -58,-12 -67,-2 -4,3 -2,12 4,20 9,10 6,13 -14,13 -33,0 -53,-32 -32,-50 8,-7 15,-20 15,-30 0,-23 38,-70 56,-70 8,0 14,5 14,10 0,6 5,10 10,10 16,0 11,-12 -15,-45 -19,-23 -27,-27 -37,-17 -15,15 -70,16 -86,0 -9,-9 -12,-9 -12,0 0,7 11,18 25,24 29,13 33,38 6,38 -23,0 -85,-56 -76,-70 3,-5 1,-19 -5,-31 -9,-16 -8,-24 6,-40 9,-10 14,-19 9,-19 -4,0 -2,-7 5,-15 10,-12 9,-20 -4,-40 -31,-47 -12,-71 34,-43 10,7 22,9 26,5 10,-10 -16,-37 -36,-37 -10,0 -27,-8 -39,-17 -18,-16 -20,-25 -14,-81 5,-55 9,-65 30,-73 23,-8 23,-10 8,-38 -8,-16 -24,-33 -35,-36 -37,-12 -16,-29 31,-26 32,1 52,-3 68,-16 l 22,-18 h -28 c -15,0 -33,3 -39,7 -12,8 -24,1 -24,-13 0,-5 16,-11 36,-15 19,-4 38,-13 41,-21 3,-7 -11,-40 -31,-72 -43,-70 -44,-79 -11,-57 29,19 31,16 9,-25 -18,-35 -12,-48 12,-28 15,12 16,10 9,-21 -4,-19 -12,-43 -17,-53 -9,-17 -11,-16 -29,7 -23,29 -45,32 -73,11 -27,-20 -40,-8 -22,21 9,13 16,30 16,38 0,15 -24,28 -34,19 -11,-11 -6,-119 6,-131 9,-9 8,-12 -4,-12 -30,0 -38,-53 -12,-81 15,-17 14,-20 -5,-48 -22,-31 -25,-52 -14,-115 4,-26 12,-40 25,-44 12,-3 17,-10 14,-19 -3,-8 -6,-19 -6,-24 0,-4 -8,-5 -17,-2 -16,6 -16,5 -5,-10 8,-9 28,-17 45,-19 33,-3 37,-14 22,-51 -6,-14 -2,-20 14,-24 28,-7 27,-23 -3,-23 -33,0 -86,-20 -86,-33 0,-6 12,-24 27,-39 15,-15 22,-28 15,-28 -6,0 -14,5 -17,10 -10,17 -25,11 -25,-9 0,-11 9,-23 20,-26 11,-3 20,-11 20,-16 0,-6 16,-17 35,-25 19,-8 35,-18 35,-23 0,-5 -16,-12 -35,-15 -48,-9 -44,-26 5,-26 43,0 46,-5 28,-45 -9,-21 -8,-29 8,-48 37,-42 47,-72 33,-95 -11,-17 -11,-24 -1,-34 9,-9 16,-8 30,5 24,22 32,21 32,-3 0,-22 20,-26 38,-8 16,16 15,3 0,-23 -11,-17 -10,-22 12,-39 14,-10 22,-22 18,-25 -4,-4 -19,2 -34,14 -32,25 -74,28 -74,5 0,-9 16,-32 35,-51 31,-31 34,-40 27,-62 -10,-29 -52,-43 -52,-17 0,20 -19,31 -32,18 -8,-8 -7,-16 2,-26 10,-13 8,-17 -15,-26 -28,-11 -27,-19 7,-56 20,-23 16,-40 -20,-86 -12,-14 -11,-18 7,-27 26,-14 54,-14 69,1 21,21 13,-7 -13,-42 -13,-18 -22,-37 -19,-41 8,-13 58,-11 72,3 17,17 24,5 16,-26 -5,-22 -12,-26 -39,-26 -41,0 -53,-15 -31,-39 14,-16 15,-26 6,-66 -9,-39 -8,-51 5,-65 8,-9 15,-26 15,-38 0,-16 4,-20 16,-15 14,5 15,3 5,-15 -13,-25 -1,-36 29,-27 26,8 26,-14 0,-48 -25,-32 -10,-46 25,-23 32,21 42,20 55,-5 10,-17 8,-21 -9,-26 -26,-7 -27,-23 -1,-30 22,-6 72,-81 90,-136 7,-22 9,-54 5,-77 l -7,-40 h 122 122 l -6,28 c -4,15 -9,50 -12,77 -5,46 -1,57 41,130 25,44 57,91 70,105 19,20 22,29 13,38 -9,9 -8,16 5,30 9,10 20,32 23,50 5,24 12,32 32,34 32,4 41,28 13,35 -25,6 -26,11 -4,35 14,16 15,21 3,28 -11,7 -7,10 13,15 16,4 27,14 27,24 0,10 6,26 14,37 10,13 11,23 4,31 -14,17 4,39 54,64 25,13 36,24 32,34 -7,18 -27,19 -52,4 -14,-9 -25,-8 -48,4 -26,15 -27,16 -7,17 32,0 47,34 34,72 -15,42 -14,45 9,51 27,7 25,39 -4,66 -24,23 -24,23 -5,42 11,11 24,32 30,46 8,21 6,30 -12,49 l -22,23 42,47 c 39,44 40,48 25,65 -14,15 -14,21 -4,34 22,27 -7,17 -63,-20 -48,-33 -107,-47 -107,-26 0,5 28,29 63,54 34,25 75,59 91,76 26,27 27,31 11,31 -15,0 -16,3 -7,12 7,7 12,27 12,45 0,23 5,33 15,33 9,0 36,19 60,41 43,40 57,69 33,69 -6,0 -3,9 7,20 18,20 18,21 -3,50 -12,16 -22,39 -22,51 0,17 -4,20 -22,15 -13,-3 -26,-6 -30,-6 -15,0 -8,-30 7,-30 8,0 15,-4 15,-9 0,-16 -21,-24 -33,-12 -6,6 -22,11 -35,11 -22,0 -24,3 -18,31 3,17 6,40 6,50 0,14 7,19 25,19 27,0 33,8 65,102 25,71 22,92 -8,65 -25,-23 -30,-21 -24,8 2,14 10,25 17,25 13,0 75,100 75,120 0,6 -10,10 -22,8 -31,-4 -35,29 -10,84 28,64 8,93 -33,48 -25,-28 -45,-25 -45,5 0,18 7,28 24,35 32,12 37,29 18,63 -17,29 -27,33 -37,17 -3,-5 -27,-9 -53,-9 -26,1 -36,4 -22,6 14,2 30,10 35,18 6,7 29,20 50,30 l 40,16 -24,20 c -22,18 -25,18 -42,3 -22,-19 -23,-16 -9,20 6,16 6,35 1,49 -7,19 -5,28 10,40 20,18 26,57 8,57 -6,0 -19,-5 -30,-11 -20,-10 -20,-9 -5,14 19,28 40,132 30,148 -4,7 -15,3 -29,-11 -13,-12 -28,-19 -34,-16 -17,11 -61,-40 -61,-69 0,-14 -4,-25 -10,-25 -15,0 -12,54 4,87 13,26 29,69 64,173 8,25 22,53 30,63 14,15 13,17 -6,17 -27,0 -52,10 -52,21 0,5 11,9 24,9 14,0 27,4 31,9 3,6 0,42 -6,81 -10,60 -10,73 2,81 8,5 11,9 6,9 -4,0 0,11 9,25 26,39 8,42 -31,5 l -34,-33 -12,25 c -8,19 -8,39 0,77 15,72 15,74 -19,55 -40,-24 -52,-8 -15,22 26,21 28,26 17,44 -17,27 -15,60 5,82 32,35 -11,20 -47,-17 -19,-19 -38,-35 -42,-35 -13,0 -9,33 7,54 8,11 15,30 15,43 0,19 -5,23 -29,23 -39,0 -88,18 -95,36 -6,16 9,19 19,4 8,-12 45,-13 64,-1 10,7 14,24 12,56 -2,40 1,47 18,52 28,7 26,19 -4,39 -16,11 -35,14 -57,9 l -33,-6 28,23 c 45,39 36,48 -48,48 -49,0 -75,4 -75,11 0,7 10,9 25,7 15,-3 25,-1 25,7 0,6 14,18 32,26 51,22 47,39 -8,39 -46,0 -47,0 -29,20 14,16 17,30 12,76 -6,58 -20,84 -44,84 -11,0 -14,-7 -11,-25 z m 6,-82 c 2,-8 -6,-13 -22,-13 -25,0 -33,10 -19,24 10,10 36,3 41,-11 z m -8,-78 c 0,-8 -6,-15 -14,-15 -17,0 -28,14 -19,24 12,12 33,6 33,-9 z m -160,-245 c 0,-5 -4,-10 -10,-10 -5,0 -10,5 -10,10 0,6 5,10 10,10 6,0 10,-4 10,-10 z m -39,-120 c 10,-6 19,-17 19,-26 0,-11 -4,-12 -19,-4 -11,5 -30,10 -43,10 -22,1 -22,1 -4,15 24,18 22,18 47,5 z m 389,-155 c -13,-14 -26,-23 -28,-20 -3,3 5,16 18,30 13,14 26,23 28,20 3,-3 -5,-16 -18,-30 z m -42,-47 c -7,-19 -38,-22 -38,-4 0,10 9,16 21,16 12,0 19,-5 17,-12 z m 130,-182 c 3,-3 -3,-9 -12,-12 -11,-4 -25,1 -39,15 l -21,21 33,-10 c 19,-5 36,-12 39,-14 z m -448,-31 c -7,-8 -17,-15 -22,-15 -6,0 -5,7 2,15 7,8 17,15 22,15 6,0 5,-7 -2,-15 z m -50,-21 c 0,-8 -4,-12 -10,-9 -5,3 -10,10 -10,16 0,5 5,9 10,9 6,0 10,-7 10,-16 z m 470,-40 c 0,-8 -4,-12 -10,-9 -5,3 -10,10 -10,16 0,5 5,9 10,9 6,0 10,-7 10,-16 z m -475,-4 c -3,-5 -10,-10 -16,-10 -5,0 -9,5 -9,10 0,6 7,10 16,10 8,0 12,-4 9,-10 z m 40,-50 c 3,-5 1,-10 -4,-10 -6,0 -11,5 -11,10 0,6 2,10 4,10 3,0 8,-4 11,-10 z m 405,-96 c 0,-8 -5,-12 -10,-9 -6,4 -8,11 -5,16 9,14 15,11 15,-7 z m -600,-4 c 0,-5 -7,-10 -16,-10 -8,0 -12,5 -9,10 3,6 10,10 16,10 5,0 9,-4 9,-10 z m -60,-41 c 0,-11 -4,-17 -10,-14 -5,3 -10,13 -10,21 0,8 5,14 10,14 6,0 10,-9 10,-21 z m 675,-119 c -3,-5 -11,-10 -16,-10 -6,0 -7,5 -4,10 3,6 11,10 16,10 6,0 7,-4 4,-10 z m 103,-67 c 2,-8 -5,-13 -17,-13 -12,0 -21,6 -21,16 0,18 31,15 38,-3 z m -793,-33 c 3,-5 -3,-10 -15,-10 -12,0 -18,5 -15,10 3,6 10,10 15,10 5,0 12,-4 15,-10 z m 20,-50 c -10,-11 -20,-18 -23,-15 -3,3 3,14 13,25 10,11 20,18 23,15 3,-3 -3,-14 -13,-25 z m 62,-22 c -3,-8 -6,-5 -6,6 -1,11 2,17 5,13 3,-3 4,-12 1,-19 z m 648,12 c -3,-5 -11,-10 -16,-10 -6,0 -7,5 -4,10 3,6 11,10 16,10 6,0 7,-4 4,-10 z m -88,-56 c -3,-3 -12,-4 -19,-1 -8,3 -5,6 6,6 11,1 17,-2 13,-5 z m -28,-175 c -16,-10 -23,-4 -14,10 3,6 11,8 17,5 6,-4 5,-9 -3,-15 z m -499,-19 c 8,-5 12,-11 9,-14 -3,-3 -14,1 -25,9 -21,16 -8,20 16,5 z m 645,-110 c 3,-5 1,-10 -4,-10 -6,0 -11,5 -11,10 0,6 2,10 4,10 3,0 8,-4 11,-10 z m 35,-64 c 0,-3 -4,-8 -10,-11 -5,-3 -10,-1 -10,4 0,6 5,11 10,11 6,0 10,-2 10,-4 z m -728,-138 c -9,-9 -12,-4 -11,23 0,32 1,33 11,11 8,-17 8,-26 0,-34 z m 818,-9 c -7,-11 -14,-18 -17,-15 -8,8 5,36 17,36 7,0 7,-6 0,-21 z m -980,-128 c 0,-12 -20,-25 -27,-18 -7,7 6,27 18,27 5,0 9,-4 9,-9 z m 32,-333 c -7,-7 -12,-8 -12,-2 0,14 12,26 19,19 2,-3 -1,-11 -7,-17 z m 104,7 c 19,-15 19,-16 -2,-13 -11,2 -28,-3 -37,-11 -19,-15 -22,-8 -7,20 13,23 20,24 46,4 z m 724,-25 c 0,-5 -7,-10 -16,-10 -8,0 -12,5 -9,10 3,6 10,10 16,10 5,0 9,-4 9,-10 z m -789,-61 c -13,-11 -27,-17 -30,-13 -7,7 28,34 43,34 6,-1 0,-10 -13,-21 z m 784,-49 c 0,-8 -5,-14 -12,-13 -6,1 -17,-4 -23,-12 -16,-19 -31,-19 -25,0 3,8 7,22 10,31 6,20 50,15 50,-6 z m -725,1 c 0,-5 -7,-12 -16,-15 -22,-9 -24,-8 -24,9 0,8 9,15 20,15 11,0 20,-4 20,-9 z m 165,-10 c 3,-5 1,-12 -5,-16 -5,-3 -10,1 -10,9 0,18 6,21 15,7 z m -131,-40 c 3,-5 -4,-11 -17,-15 -35,-9 -40,-7 -27,9 14,17 36,20 44,6 z m -24,-82 c 0,-11 -3,-11 -24,-3 -23,9 -20,23 4,17 11,-3 20,-9 20,-14 z m 25,-39 c -3,-5 -13,-10 -21,-10 -8,0 -12,5 -9,10 3,6 13,10 21,10 8,0 12,-4 9,-10 z m 656,-103 c -14,-15 -21,-17 -21,-8 0,21 33,56 38,41 3,-7 -5,-22 -17,-33 z m -41,-87 c 0,-5 -11,-10 -25,-10 -14,0 -25,5 -25,10 0,6 11,10 25,10 14,0 25,-4 25,-10 z m -570,-200 c 0,-12 -27,-12 -55,0 -16,7 -13,9 18,9 20,1 37,-3 37,-9 z m -60,-50 c 0,-5 -4,-10 -10,-10 -5,0 -10,5 -10,10 0,6 5,10 10,10 6,0 10,-4 10,-10 z m 640,-204 c 0,-15 -18,-31 -26,-23 -7,7 7,37 17,37 5,0 9,-6 9,-14 z m -50,-46 c 0,-5 -5,-10 -11,-10 -5,0 -7,5 -4,10 3,6 8,10 11,10 2,0 4,-4 4,-10 z m -503,-16 c -3,-3 -12,-4 -19,-1 -8,3 -5,6 6,6 11,1 17,-2 13,-5 z m -7,-88 c 0,-3 -4,-8 -10,-11 -5,-3 -10,-1 -10,4 0,6 5,11 10,11 6,0 10,-2 10,-4 z m 411,-199 c -14,-35 -51,-94 -51,-80 0,18 43,103 52,103 4,0 4,-10 -1,-23 z m -231,3 c 0,-5 -7,-10 -15,-10 -8,0 -15,5 -15,10 0,6 7,10 15,10 8,0 15,-4 15,-10 z m -50,-21 c 7,-11 9,-24 5,-27 -7,-7 -35,25 -35,40 0,16 19,8 30,-13 z m 42,-84 c 6,-14 8,-28 5,-31 -10,-11 -37,17 -37,37 0,27 18,23 32,-6 z"
       id="path5417" />
  </g>
</svg>
