<?xml version="1.0" encoding="UTF-8" standalone="no"?>
<svg
   version="1.0"
   width="316.90311pt"
   height="544pt"
   viewBox="0 0 316.90311 544"
   preserveAspectRatio="xMidYMid"
   id="svg5587"
   xmlns="http://www.w3.org/2000/svg"
   xmlns:svg="http://www.w3.org/2000/svg">
  <defs
     id="defs5591" />
  <metadata
     id="metadata5307">
Created by potrace 1.15, written by Peter Selinger 2001-2017
</metadata>
  <g
     transform="matrix(0.1,0,0,-0.1,-751.09691,1018)"
     fill="#000000"
     stroke="none"
     id="g5585">
    <path
       d="m 8950,10058 v -122 l -53,52 c -29,29 -56,52 -60,52 -20,0 -2,-54 34,-100 22,-28 47,-67 55,-85 15,-36 19,-135 6,-135 -12,0 -41,62 -48,105 -13,77 -49,104 -60,45 -4,-16 -9,-30 -12,-30 -3,0 -23,12 -44,26 -38,27 -68,27 -68,0 0,-8 18,-38 40,-67 45,-61 48,-74 20,-89 -24,-13 -26,-33 -4,-51 13,-11 21,-11 44,3 l 28,16 4,-35 c 5,-42 -3,-48 -41,-28 -68,35 -81,7 -25,-55 31,-35 34,-40 16,-40 -11,0 -26,-9 -33,-20 -14,-20 -16,-19 -109,35 -56,32 -98,51 -104,45 -16,-16 4,-61 34,-78 36,-20 38,-32 8,-32 -13,0 -29,-4 -37,-9 -20,-13 -6,-41 21,-41 28,-1 62,-25 54,-38 -3,-6 6,-19 21,-30 l 28,-21 -42,-7 c -58,-9 -82,-27 -67,-51 9,-15 22,-17 66,-15 40,3 58,-1 67,-12 17,-20 45,-20 61,-1 12,14 50,21 50,9 0,-3 -11,-15 -25,-26 -14,-11 -25,-23 -25,-28 0,-18 42,-21 66,-5 25,16 26,16 22,-12 -3,-26 -1,-28 34,-28 28,-1 40,5 49,22 7,13 15,23 19,23 8,0 31,-72 25,-78 -8,-9 -170,-21 -195,-15 -14,3 -58,22 -98,41 -58,28 -76,32 -85,23 -9,-10 -5,-19 22,-41 l 34,-29 -39,10 c -48,14 -109,44 -150,74 -51,38 -87,37 -82,-2 3,-27 1,-28 -62,-36 -36,-4 -69,-12 -74,-17 -26,-26 50,-60 136,-60 h 63 l -33,-20 c -39,-24 -40,-53 -1,-58 17,-2 40,9 69,32 43,34 70,45 70,28 0,-5 -16,-16 -35,-25 -36,-17 -43,-31 -24,-42 5,-4 14,-18 19,-31 9,-23 40,-34 40,-14 0,5 19,14 42,21 24,6 55,20 71,31 15,11 30,18 33,15 5,-4 -11,-18 -75,-66 -14,-10 -21,-23 -17,-29 10,-17 47,-15 68,5 17,15 18,15 18,-10 0,-36 13,-34 43,5 21,26 28,30 40,20 11,-10 17,-9 27,3 7,8 26,15 42,15 49,0 99,30 116,69 l 16,36 4,-29 c 2,-19 -4,-36 -20,-53 -27,-29 -134,-101 -197,-133 l -43,-22 -72,32 c -39,18 -77,35 -83,37 -17,7 -17,-29 -1,-45 19,-19 6,-21 -47,-5 -97,27 -95,27 -95,3 0,-22 -3,-23 -58,-17 -62,7 -82,-2 -82,-35 0,-11 7,-18 20,-18 17,0 19,-3 10,-19 -15,-29 -13,-31 25,-31 29,0 35,-4 33,-17 -2,-14 3,-18 25,-16 22,1 27,-2 27,-23 0,-27 0,-27 35,-14 20,8 29,6 45,-10 22,-22 24,-29 11,-49 -8,-12 -14,-12 -44,2 -40,20 -73,22 -83,6 -3,-6 -15,-9 -25,-6 -25,7 -24,-14 1,-36 23,-19 27,-65 6,-73 -8,-3 -33,8 -57,25 -56,41 -73,41 -64,0 l 7,-32 -58,7 c -33,4 -67,9 -76,12 -12,4 -18,0 -18,-10 0,-16 68,-56 95,-56 11,0 14,-6 9,-25 -5,-20 -2,-25 12,-26 11,-1 26,-3 34,-4 8,-1 21,-3 28,-4 6,0 12,-7 12,-15 0,-9 12,-16 33,-18 25,-2 33,-8 35,-26 l 4,-24 25,24 c 18,16 27,19 30,11 3,-7 11,-13 19,-13 8,0 14,-4 14,-9 0,-13 82,-111 94,-111 5,0 20,-9 32,-21 21,-20 23,-20 51,-4 l 28,17 -24,-20 c -45,-37 -219,-77 -271,-62 -14,4 -41,15 -58,24 -39,20 -54,13 -46,-20 6,-22 4,-24 -34,-24 -23,0 -44,5 -47,10 -9,14 -20,12 -45,-8 l -23,-18 37,-22 c 26,-16 36,-28 36,-47 0,-21 5,-25 29,-25 25,0 30,-4 33,-27 2,-22 9,-29 30,-31 15,-2 35,1 45,7 16,8 19,6 18,-17 0,-26 2,-27 43,-24 53,3 54,-17 1,-35 -52,-18 -115,-15 -156,7 -39,20 -53,19 -53,-7 0,-13 -9,-15 -54,-9 -71,8 -80,-7 -22,-36 28,-13 46,-29 46,-39 0,-27 26,-42 59,-34 27,6 31,3 37,-19 4,-19 13,-26 31,-26 17,0 23,-5 21,-17 -2,-13 3,-17 15,-15 10,2 25,-2 33,-9 14,-12 14,-12 109,65 21,17 28,17 54,6 43,-17 39,-30 -9,-30 -45,0 -52,-18 -24,-58 9,-13 14,-25 13,-26 -2,-2 -35,-18 -74,-36 -65,-31 -96,-38 -247,-56 -50,-6 -58,-10 -66,-34 -10,-28 -44,-40 -119,-40 -18,0 -33,-4 -33,-9 0,-14 46,-40 94,-53 l 46,-12 -21,-22 -20,-21 31,-6 c 17,-4 30,-13 30,-22 0,-12 12,-14 63,-12 55,2 62,0 62,-17 0,-30 22,-30 42,0 l 17,27 6,-24 c 5,-21 12,-24 57,-27 51,-3 52,-2 72,35 l 19,38 12,-30 12,-30 22,28 c 27,34 36,34 36,2 0,-36 13,-31 35,13 12,23 20,31 22,22 3,-12 13,-15 40,-12 27,3 34,1 31,-9 -6,-19 -106,-69 -139,-69 -14,0 -32,-7 -39,-15 -7,-9 -29,-15 -54,-15 -22,0 -51,-3 -64,-6 l -23,-7 22,-23 c 13,-14 34,-24 50,-24 33,0 59,-9 59,-20 0,-14 -126,-29 -330,-40 -107,-6 -213,-16 -235,-22 -22,-7 -51,-12 -64,-12 -13,-1 -26,-6 -28,-12 -4,-13 56,-44 86,-44 30,0 26,-17 -7,-34 -16,-8 -34,-22 -41,-30 -12,-14 -9,-16 28,-16 22,0 41,-4 41,-10 0,-5 14,-10 30,-10 17,0 30,-4 30,-10 0,-17 30,-11 57,10 31,24 44,18 20,-8 -10,-10 -17,-24 -17,-30 0,-15 46,-16 55,-2 11,18 35,10 47,-15 14,-31 24,-31 70,0 20,14 39,25 40,25 2,0 2,-15 0,-34 -5,-46 12,-53 58,-22 l 39,25 -2,-26 c -2,-21 3,-26 23,-28 14,-1 33,-5 43,-10 10,-4 17,-3 17,4 0,16 30,13 36,-4 4,-10 20,-15 50,-15 24,0 44,-4 44,-9 0,-24 -204,-87 -320,-97 -56,-6 -73,-3 -109,15 -23,12 -50,21 -59,19 -14,-3 -12,-7 8,-26 l 25,-23 -25,5 c -14,2 -59,7 -100,11 -41,3 -100,12 -130,20 -66,18 -60,17 -60,6 0,-17 62,-55 109,-67 l 45,-11 -38,-7 c -54,-10 -45,-37 18,-50 44,-10 47,-13 33,-25 -27,-22 -20,-32 18,-25 29,5 35,3 35,-11 0,-18 19,-18 110,1 21,5 22,4 8,-6 -27,-17 -22,-30 11,-30 21,0 32,-6 36,-21 7,-20 8,-20 37,8 l 30,28 -21,-40 -21,-40 25,-3 c 14,-2 42,6 61,17 45,27 45,27 32,-9 -12,-36 -34,-49 -146,-84 -95,-30 -128,-32 -196,-11 -27,8 -69,15 -93,15 -40,0 -44,-2 -38,-20 7,-23 8,-23 -72,-6 -81,17 -97,7 -58,-35 30,-32 30,-32 5,-25 -50,14 -157,19 -164,7 -9,-14 61,-46 122,-56 l 44,-7 -31,-32 c -38,-39 -39,-56 -6,-56 20,0 25,-5 25,-25 0,-16 7,-28 18,-31 9,-3 33,-14 54,-24 36,-19 36,-19 63,2 l 28,22 23,-27 c 19,-22 21,-30 11,-50 -8,-17 -17,-22 -35,-19 -13,3 -33,0 -45,-6 -12,-6 -44,-13 -70,-15 -60,-6 -68,-14 -38,-38 20,-16 34,-19 85,-14 l 61,6 -38,-21 c -21,-12 -41,-28 -44,-36 -9,-24 10,-36 40,-25 21,8 25,7 20,-4 -4,-11 3,-15 28,-15 25,0 30,-3 19,-10 -28,-18 0,-22 40,-6 52,21 57,20 36,-3 -22,-24 -8,-33 35,-21 42,12 39,13 39,-5 0,-9 6,-12 15,-9 8,4 15,2 15,-4 0,-17 -41,-22 -215,-23 -93,0 -181,-4 -195,-9 l -25,-7 27,-7 c 14,-4 34,-16 43,-26 16,-18 16,-19 -6,-24 -13,-3 -46,-7 -72,-9 -58,-6 -76,-19 -57,-42 16,-19 81,-20 145,0 27,8 50,13 52,12 1,-2 -11,-19 -27,-38 -41,-48 -39,-63 8,-54 73,14 77,13 80,-23 2,-18 9,-35 17,-38 16,-6 50,10 84,40 l 24,21 -6,-52 c -3,-29 -3,-53 2,-53 4,0 43,30 86,67 43,37 73,57 66,45 -6,-11 -16,-24 -21,-27 -11,-7 -14,-48 -3,-58 4,-4 19,5 35,20 32,31 43,27 29,-10 -8,-20 -20,-27 -63,-36 -109,-21 -161,-23 -207,-7 -24,9 -55,16 -68,16 -23,0 -24,-2 -12,-17 13,-15 10,-15 -35,-9 l -49,8 7,-27 c 7,-26 6,-27 -26,-23 -38,6 -101,-9 -93,-22 3,-5 21,-12 40,-16 44,-8 38,-17 -35,-54 -102,-51 -89,-72 26,-40 82,23 99,22 59,-4 -14,-9 -25,-25 -25,-36 0,-16 5,-19 31,-13 29,6 31,5 20,-15 -6,-11 -11,-24 -11,-27 0,-10 42,6 73,27 l 27,19 v -27 c 0,-22 2,-25 15,-14 12,10 15,9 15,-5 0,-14 3,-14 26,4 33,26 44,26 44,1 0,-25 20,-25 68,-1 27,14 47,17 77,12 l 40,-7 -70,-18 c -108,-28 -140,-41 -140,-56 0,-17 50,-20 100,-7 l 30,8 -37,-38 c -21,-21 -38,-44 -38,-50 0,-13 68,0 111,22 44,24 53,18 29,-20 -22,-36 -20,-58 6,-48 8,3 21,-2 28,-13 13,-17 15,-17 39,-1 24,15 25,15 30,-3 9,-36 88,-15 121,32 16,22 16,21 16,-20 0,-54 17,-55 74,-2 45,42 56,40 56,-10 0,-32 24,-42 48,-20 25,24 41,25 48,5 9,-21 21,-19 27,6 3,11 14,23 25,26 11,2 24,15 30,28 10,23 13,23 38,10 37,-19 51,-10 86,51 37,66 54,79 45,36 -4,-18 -2,-32 2,-32 16,0 71,51 71,66 0,8 5,14 10,14 6,0 10,-5 10,-11 0,-5 4,-8 9,-4 6,3 13,27 17,53 4,26 9,42 11,35 2,-7 20,-17 39,-23 31,-10 34,-15 34,-48 -1,-66 -28,-190 -54,-247 l -25,-55 h 174 c 96,0 176,4 179,8 3,5 -4,37 -14,71 -20,63 -27,181 -11,181 4,0 21,-18 36,-40 30,-43 51,-53 42,-20 -8,31 11,13 31,-28 17,-37 45,-49 122,-55 14,-1 36,-10 50,-20 34,-23 43,-21 38,8 -6,27 1,32 19,14 6,-6 49,-12 96,-13 l 85,-2 6,29 c 3,17 1,36 -5,43 -15,18 -1,18 44,-1 49,-20 60,-19 48,3 -9,16 -6,18 20,14 17,-3 33,-12 36,-21 3,-9 13,-24 21,-33 13,-15 16,-16 37,-2 22,14 25,14 46,-15 l 23,-31 13,32 14,32 15,-22 c 19,-27 36,-28 59,-2 15,16 16,25 7,43 -6,12 -14,33 -18,46 l -6,24 33,-27 c 105,-84 97,-81 119,-61 11,10 20,24 20,31 0,9 16,3 47,-16 67,-43 101,-40 68,4 -21,28 -19,33 18,40 l 32,7 -34,29 c -19,16 -33,32 -30,35 3,2 40,-12 82,-32 77,-36 112,-38 69,-3 l -23,19 38,6 c 110,17 120,40 22,49 -89,8 -255,44 -291,62 -42,22 -34,32 20,27 39,-5 45,-3 35,8 -22,23 -14,29 37,29 54,0 64,12 28,32 -21,12 -17,13 40,18 72,6 82,20 26,37 -22,6 -31,12 -22,12 9,1 29,6 45,12 l 28,10 -25,20 -25,20 73,-6 c 43,-4 72,-2 72,3 0,9 -23,20 -72,36 -37,11 -16,26 37,26 30,0 55,4 55,9 0,10 -24,16 -105,27 -81,11 -86,20 -20,38 87,24 148,49 153,64 5,17 -38,15 -130,-7 -43,-10 -78,-17 -78,-16 0,2 17,20 38,41 52,53 27,54 -83,3 -147,-68 -216,-59 -470,66 -127,62 -175,94 -175,117 0,7 12,0 28,-14 30,-29 72,-45 72,-29 0,20 24,11 58,-21 l 33,-33 -7,43 c -4,23 -4,42 0,42 13,0 105,-50 111,-60 3,-5 13,-10 21,-10 12,0 13,8 8,36 -6,34 -6,36 14,25 32,-17 59,-13 76,11 l 16,22 32,-31 c 70,-66 103,-63 51,5 l -26,35 24,18 c 16,13 41,19 78,19 34,0 61,6 71,15 13,11 24,13 51,5 18,-6 51,-10 73,-10 35,0 37,2 25,17 -8,9 -41,29 -74,45 -33,16 -49,26 -35,23 48,-11 148,-18 174,-11 56,14 21,46 -51,46 -40,0 -51,16 -18,24 14,4 25,13 25,22 0,13 -17,14 -135,8 l -136,-7 12,27 c 7,14 9,29 6,32 -3,4 -38,-2 -78,-11 -89,-22 -146,-14 -333,50 -174,59 -226,97 -146,108 27,3 60,-1 93,-12 57,-20 237,-38 237,-24 0,5 -5,14 -12,21 -7,7 -8,12 -2,12 6,0 21,-11 34,-25 27,-28 40,-32 40,-10 0,18 17,19 49,1 21,-12 29,-10 70,12 60,33 59,32 38,46 -26,20 -20,26 13,14 25,-8 34,-7 49,6 10,9 22,16 27,16 9,0 165,46 199,59 18,7 17,9 -10,22 -18,8 -30,22 -30,33 0,11 -6,21 -13,24 -25,8 -10,19 58,46 39,15 70,29 70,31 0,2 -73,2 -162,-1 -145,-5 -161,-4 -145,9 24,20 16,23 -78,32 -125,11 -225,36 -225,56 0,5 4,9 9,9 5,0 22,5 38,12 15,6 33,10 40,9 6,-1 14,3 18,9 4,6 16,5 35,-5 16,-8 44,-15 62,-15 l 33,1 -28,23 -29,23 64,7 63,8 -45,23 -45,24 37,1 c 28,0 51,11 100,48 72,55 85,82 41,82 -15,0 -50,-7 -77,-15 -71,-22 -86,-20 -86,10 0,30 6,29 -79,6 -74,-20 -99,-19 -206,16 -109,34 -143,63 -74,63 17,0 39,5 50,11 16,8 26,7 44,-5 25,-16 73,-20 113,-10 26,8 28,22 5,41 -17,14 -17,14 0,9 59,-19 69,-19 65,0 -2,13 4,20 18,22 27,4 39,54 22,82 -11,16 -8,24 17,50 16,16 26,33 22,36 -4,4 -49,-5 -101,-20 -129,-36 -185,-42 -222,-23 -76,39 -67,74 14,56 29,-7 55,-9 59,-6 4,4 -9,23 -27,42 l -34,35 h 41 c 44,0 66,16 38,26 -14,6 -12,10 12,30 33,26 27,39 -13,24 -30,-12 -291,-16 -339,-5 -17,4 -43,12 -59,18 -27,10 -28,11 -7,18 12,5 21,17 21,29 v 22 l 34,-21 c 36,-22 75,-21 126,6 14,7 31,13 38,13 21,0 13,17 -27,53 l -40,36 52,-7 c 96,-12 112,-10 109,15 -4,26 31,53 70,53 33,0 44,15 21,29 -15,9 -13,10 15,11 21,0 32,5 32,14 0,8 6,17 13,20 20,8 -25,38 -51,33 -17,-3 -20,-1 -12,8 13,16 -9,26 -41,18 -18,-5 -21,-3 -16,10 4,10 5,17 4,17 -1,0 -37,-7 -80,-15 -43,-8 -81,-15 -83,-15 -2,0 13,16 34,36 36,34 36,35 10,30 -14,-3 -33,-9 -42,-12 -17,-7 -22,11 -6,21 6,3 10,13 10,22 0,14 -2,14 -22,-1 -78,-55 -130,-68 -222,-55 -103,14 -151,39 -175,90 -26,54 -26,57 2,32 16,-15 42,-22 95,-27 72,-7 72,-7 72,18 v 25 l 45,-25 c 45,-25 71,-24 61,2 -4,11 11,14 77,14 99,0 120,9 93,39 -19,21 -19,21 12,32 31,11 43,34 21,41 -6,2 16,20 48,41 33,20 66,43 73,52 10,13 9,15 -9,15 -12,0 -38,7 -59,16 -20,9 -50,16 -67,14 -25,-2 -27,0 -16,14 24,29 2,36 -49,16 -45,-18 -150,-34 -150,-24 0,3 7,12 15,20 17,17 19,33 7,52 -7,10 -21,7 -63,-13 -30,-13 -68,-25 -85,-25 -66,0 -239,66 -315,121 -33,23 -33,37 0,19 17,-9 22,-8 27,5 6,14 8,14 25,-1 11,-9 19,-14 19,-10 0,3 18,-3 40,-14 l 40,-20 v 30 c 0,32 11,38 29,16 7,-8 26,-19 43,-25 26,-9 31,-8 35,9 7,25 19,26 26,1 3,-13 17,-22 40,-26 46,-9 86,18 87,58 0,15 1,27 3,27 1,0 16,-4 34,-9 36,-11 48,-4 31,17 -10,11 -8,16 6,24 16,9 16,11 1,28 -27,29 -14,45 17,21 15,-13 41,-21 62,-21 34,0 36,2 26,20 -13,24 -6,40 17,40 19,0 93,41 93,52 0,4 -32,8 -71,8 -63,0 -70,2 -59,15 24,29 1,27 -53,-4 -64,-37 -71,-38 -56,-9 9,18 9,20 -4,15 -23,-9 -28,3 -10,29 22,34 2,30 -50,-10 -68,-52 -86,-59 -132,-53 -102,14 -255,94 -255,133 0,20 37,17 59,-5 10,-10 28,-22 40,-26 18,-5 21,-2 21,21 v 28 l 33,-32 c 21,-21 43,-32 61,-32 27,0 28,2 22,34 -10,53 12,63 59,26 34,-27 95,-42 95,-23 0,4 -17,24 -37,45 -28,28 -33,38 -20,38 10,0 20,-7 23,-15 4,-8 14,-15 24,-15 11,0 22,-4 25,-10 3,-5 20,-10 37,-10 30,0 31,0 13,20 -17,19 -17,20 9,30 15,5 34,10 42,10 19,0 18,17 -3,29 -14,8 -8,10 28,11 25,0 54,6 64,14 24,17 13,46 -18,46 -46,0 -87,13 -87,26 0,21 -43,17 -106,-11 -68,-30 -64,-30 -64,-5 0,11 -7,20 -15,20 -8,0 -15,9 -15,20 0,18 -4,20 -35,14 -31,-5 -35,-4 -35,15 0,26 -5,26 -41,1 -15,-12 -48,-30 -73,-41 -39,-17 -51,-18 -91,-8 -48,12 -54,19 -30,39 18,15 20,40 3,41 -7,0 -37,2 -66,3 -32,2 -59,9 -71,20 -34,31 -67,156 -41,156 6,0 10,-17 10,-39 0,-42 36,-106 60,-106 8,0 22,14 30,32 l 15,32 17,-29 c 19,-34 59,-56 83,-46 12,4 14,10 5,25 -13,25 -13,44 0,36 6,-3 10,-1 10,4 0,6 7,11 15,11 8,0 15,-6 15,-14 0,-15 74,-86 90,-86 6,0 13,8 16,18 3,9 11,27 16,39 11,22 11,22 35,4 19,-16 29,-17 56,-9 62,21 107,41 107,49 0,5 -18,20 -40,34 -22,14 -40,29 -40,34 0,5 -17,12 -37,15 -64,11 -95,27 -88,45 13,32 9,36 -27,39 -22,2 -47,-3 -62,-13 -14,-9 -35,-15 -48,-12 -21,4 -21,5 9,18 27,11 31,17 27,36 -5,18 -2,23 14,23 11,0 30,9 43,20 30,25 17,35 -53,43 -28,4 -53,8 -55,10 -5,6 19,57 26,57 3,-1 17,-7 31,-15 33,-19 38,-18 45,5 3,11 13,20 21,20 8,0 14,4 14,9 0,5 11,12 25,15 46,12 19,56 -34,56 -27,0 -38,20 -18,35 10,7 17,16 17,21 0,5 14,18 30,29 40,27 33,39 -23,43 -50,3 -57,11 -31,33 22,18 46,68 39,79 -11,17 -24,11 -71,-32 l -45,-41 -15,21 c -8,12 -21,22 -29,22 -7,0 -32,-37 -55,-83 -39,-81 -86,-133 -148,-166 -28,-15 -29,-11 -37,89 -10,132 -8,153 11,167 30,22 54,16 54,-12 0,-29 16,-32 50,-8 14,10 38,16 56,14 18,-1 34,2 38,7 9,15 -67,79 -102,87 -54,11 -26,20 65,20 60,0 87,4 90,13 3,6 -1,12 -7,12 -7,0 -24,9 -40,20 -15,11 -30,17 -34,13 -3,-3 -6,-1 -6,5 0,6 18,26 40,43 59,48 36,58 -44,21 l -66,-31 v 25 c 0,39 -21,24 -52,-37 -50,-97 -85,-117 -73,-42 9,59 21,84 85,168 27,36 50,70 50,76 0,5 -11,9 -25,9 -25,0 -50,-20 -71,-55 -19,-33 -34,-7 -34,59 0,49 -5,69 -21,90 -11,14 -25,26 -30,26 -5,0 -9,-54 -9,-122 z m -20,-438 c 6,-15 10,-43 8,-61 l -4,-34 -13,30 c -7,17 -23,53 -37,80 -13,28 -24,54 -24,60 0,16 58,-46 70,-75 z m -59,-152 c 33,-18 75,-75 64,-86 -10,-10 -115,77 -115,95 0,18 6,17 51,-9 z m 357,-106 c 3,-11 -111,-92 -131,-92 -6,0 -19,-7 -29,-16 -16,-16 -18,-16 -24,0 -12,31 3,46 48,46 37,1 48,6 78,40 35,38 50,44 58,22 z m -94,-212 c 50,-7 50,-7 23,-18 -23,-10 -34,-9 -57,3 -16,8 -32,20 -36,26 -5,8 -3,9 5,4 7,-4 36,-11 65,-15 z m 102,-19 c 8,6 14,7 18,0 6,-9 -30,-41 -45,-41 -10,0 -20,31 -13,42 4,6 10,6 17,-1 7,-7 14,-7 23,0 z m 188,-50 c 3,-5 -1,-11 -9,-15 -15,-6 -29,7 -18,18 9,9 21,8 27,-3 z m -332,-257 c 5,-47 -2,-95 -13,-88 -12,7 -12,124 0,124 5,0 11,-16 13,-36 z m -120,-166 c -7,-7 -12,-8 -12,-2 0,14 12,26 19,19 2,-3 -1,-11 -7,-17 z m -47,-28 c -3,-5 -10,-10 -16,-10 -5,0 -9,5 -9,10 0,6 7,10 16,10 8,0 12,-4 9,-10 z m 170,1 c 3,-5 1,-12 -5,-16 -5,-3 -10,1 -10,9 0,18 6,21 15,7 z m -503,-46 c 36,-30 57,-31 91,-5 30,24 49,26 41,5 -8,-19 15,-20 42,0 20,13 34,11 34,-6 0,-14 -80,-38 -151,-45 -65,-5 -76,-4 -90,12 -48,56 -23,86 33,39 z m 263,15 c -3,-5 -10,-10 -16,-10 -5,0 -9,5 -9,10 0,6 7,10 16,10 8,0 12,-4 9,-10 z m 995,-746 c 0,-8 -5,-12 -10,-9 -6,4 -8,11 -5,16 9,14 15,11 15,-7 z M 8655,7690 c -14,-22 -105,-58 -105,-41 0,5 24,19 53,30 63,24 60,23 52,11 z m 1265,-600 c 0,-5 -21,-10 -46,-10 -27,0 -43,4 -39,10 3,6 24,10 46,10 21,0 39,-4 39,-10 z m 287,-76 c -3,-3 -12,-4 -19,-1 -8,3 -5,6 6,6 11,1 17,-2 13,-5 z m 23,-354 c 13,-8 13,-10 -2,-10 -9,0 -20,5 -23,10 -8,13 5,13 25,0 z M 7742,6088 c -6,-6 -15,-8 -19,-4 -4,4 -1,11 7,16 19,12 27,3 12,-12 z m 268,-140 c 25,-27 32,-30 39,-18 5,8 17,24 25,35 15,19 17,19 27,2 5,-9 15,-14 21,-11 6,4 19,-4 28,-17 15,-19 21,-21 33,-10 9,7 28,11 44,9 25,-3 22,-5 -24,-21 -35,-12 -63,-16 -88,-11 -26,5 -40,3 -45,-6 -6,-10 -16,-10 -49,3 -22,9 -47,14 -56,11 -8,-3 -22,-3 -32,0 -14,6 -12,11 12,36 16,17 30,30 32,30 2,0 17,-15 33,-32 z m 295,12 c -3,-5 -14,-10 -23,-10 -15,0 -15,2 -2,10 20,13 33,13 25,0 z m -135,-580 c 0,-5 -7,-10 -16,-10 -8,0 -12,5 -9,10 3,6 10,10 16,10 5,0 9,-4 9,-10 z"
       id="path5309" />
  </g>
</svg>
