<?xml version="1.0" encoding="UTF-8" standalone="no"?>
<svg
   version="1.0"
   width="183.71054pt"
   height="318.94275pt"
   viewBox="0 0 183.71054 318.94275"
   preserveAspectRatio="xMidYMid"
   id="svg5587"
   xmlns="http://www.w3.org/2000/svg"
   xmlns:svg="http://www.w3.org/2000/svg">
  <defs
     id="defs5591" />
  <metadata
     id="metadata5307">
Created by potrace 1.15, written by Peter Selinger 2001-2017
</metadata>
  <g
     transform="matrix(0.1,0,0,-0.1,-1095.9867,806.84276)"
     fill="#000000"
     stroke="none"
     id="g5585">
    <path
       d="m 11901,8043 c -24,-14 -46,-35 -49,-45 -3,-11 -10,-17 -18,-14 -8,3 -21,9 -29,12 -22,9 -8,-24 16,-37 23,-12 25,-29 4,-29 -9,0 -18,-7 -22,-16 -3,-8 -16,-20 -29,-25 -31,-11 -32,-50 -2,-92 18,-26 19,-30 5,-24 -11,4 -20,1 -23,-8 -10,-25 -62,-18 -90,13 l -25,27 6,-29 c 3,-17 15,-42 26,-57 10,-15 19,-34 19,-42 0,-9 16,-25 35,-37 19,-12 44,-35 56,-51 l 20,-29 h -28 c -15,0 -53,16 -83,35 -30,19 -58,35 -62,35 -15,0 -8,-20 13,-38 11,-9 25,-27 30,-40 5,-14 14,-20 21,-16 8,5 9,2 3,-12 -4,-10 -10,-31 -13,-46 -4,-25 -9,-28 -42,-28 -24,0 -43,7 -55,20 -24,26 -35,25 -35,-4 0,-33 -28,-63 -70,-75 -32,-8 -30,-9 35,-12 39,-2 80,-3 93,-3 38,0 25,-16 -35,-42 -143,-63 -154,-74 -74,-71 37,2 57,9 75,26 18,17 32,22 49,17 27,-6 46,-38 27,-44 -7,-3 2,-17 19,-33 40,-36 42,-62 4,-53 -16,3 -45,12 -66,20 -20,8 -55,14 -77,14 -35,0 -40,-3 -40,-24 0,-19 10,-28 49,-45 27,-11 54,-21 60,-21 6,0 11,-4 11,-9 0,-6 17,-11 37,-13 20,-2 38,-9 41,-16 2,-7 -2,-10 -11,-6 -8,3 -18,1 -22,-5 -10,-17 -105,-14 -105,3 0,8 -21,26 -47,42 -27,15 -70,46 -97,68 -35,29 -48,35 -43,21 5,-10 11,-38 14,-62 6,-45 18,-52 54,-33 17,9 19,7 21,-20 0,-16 1,-36 2,-42 1,-9 -14,-13 -41,-14 -24,0 -46,-3 -49,-7 -11,-11 7,-45 26,-50 11,-3 27,-21 37,-41 16,-34 18,-35 40,-21 25,17 28,13 13,-16 -8,-13 -7,-19 0,-19 6,0 13,7 17,16 5,14 8,12 19,-7 18,-33 17,-39 -6,-39 -11,0 -36,-7 -56,-15 -32,-13 -38,-13 -78,7 -25,12 -51,18 -61,14 -16,-6 -15,-9 6,-29 15,-14 33,-21 47,-19 23,5 31,-13 10,-21 -10,-3 -9,-11 4,-33 12,-21 14,-34 7,-47 -12,-20 2,-23 32,-7 15,9 19,7 19,-5 0,-30 -32,-28 -98,4 -74,37 -93,32 -72,-18 7,-17 19,-31 26,-31 17,0 18,-17 2,-23 -7,-3 -1,-6 15,-6 16,-1 27,-7 27,-15 0,-9 -20,-15 -66,-20 -37,-4 -79,-13 -95,-22 -16,-8 -31,-14 -34,-14 -3,0 -7,0 -10,0 -3,0 -1,-9 5,-19 8,-16 6,-21 -11,-26 -26,-9 -21,-41 6,-38 14,2 32,-14 58,-50 34,-47 46,-77 31,-77 -3,0 -35,18 -71,40 -37,22 -70,40 -75,40 -13,0 -9,-17 7,-30 11,-9 13,-16 5,-24 -20,-20 -11,-37 15,-30 27,7 33,-4 13,-24 -10,-10 -8,-14 10,-18 12,-4 22,-10 22,-14 0,-5 9,-12 20,-15 23,-7 27,-25 7,-25 -8,0 -22,-9 -32,-20 -19,-21 -60,-27 -70,-10 -12,20 -26,9 -23,-17 2,-18 10,-29 25,-33 12,-3 33,-21 46,-40 16,-24 30,-34 45,-33 15,2 20,-2 16,-12 -4,-10 0,-15 14,-15 10,0 36,-13 57,-30 21,-16 48,-30 61,-30 32,0 31,-18 -2,-30 -37,-14 -98,-12 -130,5 -36,18 -133,39 -142,30 -4,-4 10,-22 32,-39 32,-27 35,-34 21,-39 -9,-4 -25,-7 -36,-7 -30,0 -22,-15 16,-29 43,-15 45,-37 5,-46 -16,-4 -30,-11 -30,-17 0,-10 23,-8 78,8 13,4 22,2 22,-4 0,-6 -18,-16 -40,-22 -21,-6 -42,-15 -46,-21 -3,-6 0,-31 6,-55 11,-40 16,-45 36,-40 16,4 31,-2 54,-25 29,-30 30,-32 14,-50 -9,-11 -29,-19 -44,-19 -27,0 -105,44 -129,73 -40,50 -59,-27 -19,-78 l 22,-28 -22,-18 c -30,-24 -28,-29 14,-29 29,0 44,-7 70,-35 18,-19 37,-35 43,-35 6,0 11,-5 11,-11 0,-6 10,-9 23,-7 16,2 21,9 20,26 -2,12 2,22 7,22 17,0 23,-30 12,-56 -10,-21 -18,-24 -64,-24 -33,0 -48,-4 -43,-9 13,-13 139,-33 159,-25 24,9 226,-6 226,-17 0,-5 -8,-9 -17,-9 -10,-1 -43,-14 -73,-30 -30,-17 -61,-30 -67,-30 -7,0 -13,-4 -13,-10 0,-5 16,-10 35,-10 19,0 35,-4 35,-10 0,-21 20,-9 26,16 l 6,25 22,-20 c 12,-12 30,-21 40,-21 12,0 16,-5 12,-15 -3,-9 0,-15 9,-15 8,0 15,-7 15,-16 0,-10 5,-14 15,-10 8,3 21,9 29,12 9,3 17,-3 21,-15 8,-27 19,-26 47,3 13,13 40,26 63,30 22,3 67,10 100,15 43,7 61,7 67,-2 12,-19 20,-153 16,-257 l -4,-101 51,3 c 43,3 50,6 48,23 -1,11 -9,72 -18,135 -9,63 -15,138 -13,165 l 3,50 h 45 c 42,0 46,2 55,33 5,17 12,32 16,32 4,0 16,-16 28,-35 23,-39 63,-59 98,-50 27,6 31,25 6,25 -10,1 -29,7 -43,15 -22,12 -23,14 -8,20 10,4 15,11 12,16 -11,18 15,8 44,-16 17,-14 42,-25 58,-25 l 29,1 -30,14 c -30,13 -29,13 30,15 58,1 59,2 28,13 -65,24 -60,35 21,42 61,6 76,11 81,26 6,16 17,19 79,19 77,0 92,5 75,26 -13,16 -3,34 19,34 21,0 92,66 92,85 0,19 39,45 66,45 20,0 90,68 80,78 -2,2 -40,-4 -85,-14 -76,-16 -82,-16 -99,0 -15,13 -25,14 -46,6 -15,-5 -46,-10 -69,-9 l -42,1 44,9 c 24,5 54,18 67,30 17,16 27,18 40,11 21,-12 54,-4 54,14 0,7 14,21 31,31 31,19 89,96 89,120 0,9 -13,5 -40,-13 -34,-23 -48,-26 -91,-22 -52,5 -87,27 -74,48 5,8 10,8 20,0 8,-6 31,-10 52,-8 37,3 38,4 35,38 -2,25 4,47 22,73 22,32 51,137 39,137 -3,0 -29,-22 -59,-49 -57,-52 -137,-97 -154,-86 -17,11 -11,25 11,25 16,0 20,5 16,20 -4,17 -1,20 21,18 20,-2 27,2 32,22 5,19 13,25 33,25 27,-1 35,9 17,20 -6,4 -8,11 -4,16 3,5 9,7 13,4 11,-6 65,21 81,40 10,12 8,23 -9,57 -22,46 -20,80 7,111 8,9 12,20 8,24 -12,13 -72,-25 -150,-96 -43,-39 -84,-71 -92,-71 -19,0 -18,26 1,34 8,3 15,12 15,20 0,7 -7,16 -15,20 -21,8 -19,26 4,26 28,0 75,40 62,53 -18,18 -12,29 13,23 19,-5 25,-1 28,19 3,14 0,26 -8,29 -20,8 -17,27 5,33 22,6 36,32 24,44 -5,5 -55,-19 -113,-51 -101,-57 -140,-71 -140,-50 0,6 -7,10 -16,10 -12,0 -10,6 10,21 14,11 26,27 26,34 0,7 16,19 35,25 19,6 40,20 45,30 6,10 18,21 28,24 31,10 74,86 68,118 -5,23 -2,28 14,28 11,0 20,5 20,10 0,22 -43,8 -109,-35 -102,-66 -192,-107 -207,-94 -17,14 -9,32 26,58 16,12 36,34 45,50 8,16 24,32 35,36 11,3 20,15 20,25 0,10 12,28 26,39 22,17 24,22 10,27 -22,8 -20,24 3,24 20,0 34,14 44,43 10,28 -17,20 -72,-22 -32,-24 -80,-47 -127,-61 l -75,-22 -23,25 c -13,14 -26,36 -29,49 -5,20 -1,26 24,35 36,14 36,41 2,58 -19,10 -12,13 54,24 112,19 131,30 56,30 -69,1 -80,10 -32,28 24,10 30,17 26,32 -7,26 16,91 37,107 13,9 14,14 5,19 -8,6 -7,10 5,17 15,8 15,11 0,33 -21,32 -32,31 -44,0 -5,-14 -18,-28 -27,-32 -10,-3 -31,-16 -48,-28 -42,-31 -115,-41 -155,-20 -34,18 -32,35 6,35 14,0 36,12 51,26 14,14 37,30 52,35 23,9 24,11 9,20 -23,13 -23,36 1,79 10,20 19,48 19,63 0,31 6,35 -114,-66 -72,-61 -108,-77 -127,-58 -8,8 -6,11 6,11 32,0 77,30 83,55 7,28 31,45 62,45 15,0 19,5 15,20 -4,13 3,30 16,44 13,13 23,30 25,37 1,8 5,19 9,26 17,26 -13,20 -59,-14 -62,-45 -121,-73 -156,-73 -37,0 -35,13 8,52 97,89 127,119 122,124 -3,2 -39,-7 -81,-21 -105,-35 -137,-33 -116,7 8,15 14,17 22,9 6,-6 24,-11 39,-11 27,0 28,2 28,45 0,40 2,45 23,45 12,0 33,7 45,16 18,13 21,19 11,30 -9,11 -9,14 1,14 8,0 11,3 7,6 -3,3 -26,-3 -51,-15 -65,-28 -68,-8 -7,49 28,26 51,55 51,64 0,22 -6,20 -44,-9 -35,-26 -156,-78 -164,-70 -2,2 7,18 22,35 14,17 26,40 26,50 0,23 20,70 30,70 12,0 83,71 77,76 -3,3 -36,-13 -74,-35 -73,-43 -93,-49 -93,-28 0,19 24,67 33,67 12,0 57,47 57,60 0,14 -9,12 -59,-17 z m -111,-597 c 0,-12 -7,-13 -31,-6 -46,13 -48,20 -6,20 25,0 37,-4 37,-14 z m 180,-206 c 0,-5 -7,-10 -15,-10 -8,0 -15,5 -15,10 0,6 7,10 15,10 8,0 15,-4 15,-10 z m 210,-129 c 0,-9 -71,-41 -92,-41 -19,0 36,38 62,43 14,2 26,5 28,6 1,0 2,-3 2,-8 z m -675,-112 c 0,-8 -10,-15 -22,-17 -25,-4 -30,7 -11,26 15,15 33,10 33,-9 z m 60,-29 c 3,-5 -3,-10 -14,-10 -12,0 -21,5 -21,10 0,6 6,10 14,10 8,0 18,-4 21,-10 z m 85,-9 c 0,-12 -20,-25 -27,-18 -7,7 6,27 18,27 5,0 9,-4 9,-9 z m 550,-61 c 0,-5 -4,-10 -10,-10 -5,0 -10,5 -10,10 0,6 5,10 10,10 6,0 10,-4 10,-10 z m -634,-91 c 8,-14 -21,-43 -35,-35 -19,12 -13,46 8,46 11,0 23,-5 27,-11 z m 64,1 c 0,-5 -2,-10 -4,-10 -3,0 -8,5 -11,10 -3,6 -1,10 4,10 6,0 11,-4 11,-10 z m -220,-199 c 0,-12 -39,-25 -48,-16 -7,7 17,25 36,25 6,0 12,-4 12,-9 z m 860,-21 c 0,-5 -4,-10 -10,-10 -5,0 -10,5 -10,10 0,6 5,10 10,10 6,0 10,-4 10,-10 z m -1000,-65 c 7,-18 17,-25 35,-25 14,0 25,-4 25,-9 0,-17 63,-22 87,-6 25,17 32,5 8,-15 -25,-21 -17,-29 23,-24 33,5 35,4 20,-9 -10,-8 -15,-17 -11,-20 11,-12 -35,-8 -107,9 -72,16 -150,63 -150,89 0,14 29,32 53,34 4,1 12,-10 17,-24 z m 1447,-312 c 3,-8 0,-19 -8,-24 -19,-12 -70,-11 -89,1 -13,9 -13,11 0,19 8,6 24,16 35,24 22,17 52,7 62,-20 z m -1477,-38 c 14,-8 37,-14 52,-15 15,0 30,-5 34,-11 10,-16 -12,-32 -44,-31 -38,1 -145,49 -137,62 9,15 66,12 95,-5 z m 60,-126 c 0,-5 -4,-9 -10,-9 -5,0 -10,7 -10,16 0,8 5,12 10,9 6,-3 10,-10 10,-16 z m -85,-198 c -3,-6 -11,-8 -17,-5 -6,4 -5,9 3,15 16,10 23,4 14,-10 z m 1378,-52 c -14,-14 -93,-24 -93,-12 0,18 13,23 59,23 32,0 42,-3 34,-11 z m -1303,-17 c 0,-5 -18,-17 -40,-27 -31,-14 -43,-15 -54,-6 -12,10 -20,9 -38,-3 -21,-13 -27,-14 -43,-2 -17,12 -16,14 15,24 41,15 87,15 95,2 4,-6 16,-5 33,5 33,17 32,17 32,7 z m 95,-52 c -3,-5 -11,-10 -16,-10 -6,0 -7,5 -4,10 3,6 11,10 16,10 6,0 7,-4 4,-10 z m -65,-10 c 0,-13 -11,-13 -30,0 -12,8 -11,10 8,10 12,0 22,-4 22,-10 z m 1100,-60 c 0,-5 -4,-10 -10,-10 -5,0 -10,5 -10,10 0,6 5,10 10,10 6,0 10,-4 10,-10 z m -1165,-20 c 7,-12 -2,-12 -30,0 -19,8 -19,9 2,9 12,1 25,-3 28,-9 z m 1155,-20 c 0,-5 -9,-10 -20,-10 -11,0 -20,5 -20,10 0,6 9,10 20,10 11,0 20,-4 20,-10 z m -1017,-22 c 19,-7 31,-7 40,0 9,8 15,4 23,-13 11,-22 10,-23 -50,-29 -70,-7 -158,4 -163,20 -5,16 67,44 97,37 14,-2 37,-9 53,-15 z m 422,-8 c -3,-5 -14,-10 -23,-10 -15,0 -15,2 -2,10 20,13 33,13 25,0 z m -205,-25 c 0,-8 -7,-15 -15,-15 -16,0 -20,12 -8,23 11,12 23,8 23,-8 z m -354,-103 c -22,-23 -29,-10 -9,18 11,16 18,19 21,11 2,-7 -3,-20 -12,-29 z m 369,-169 c 0,-22 -3,-23 -67,-23 -87,0 -105,6 -77,29 13,11 41,16 82,17 59,1 62,-1 62,-23 z"
       id="path5329" />
  </g>
</svg>
